<?xml version="1.0" encoding="UTF-8"?>
<svg version="1.1" xmlns="http://www.w3.org/2000/svg" width="512" height="512">
<path d="M0 0 C1.28217148 -0.00445784 2.56434295 -0.00891569 3.88536811 -0.01350862 C5.32168183 -0.01341931 6.75799554 -0.01322944 8.19430923 -0.01294994 C9.70968669 -0.01624752 11.22506326 -0.01997286 12.7404387 -0.02409142 C16.92011681 -0.03413164 21.09978055 -0.03783146 25.27946901 -0.04048073 C29.78130106 -0.0443778 34.28312167 -0.05395654 38.78494644 -0.0626936 C49.66447074 -0.08247485 60.543996 -0.09252628 71.4235338 -0.10142139 C76.54321439 -0.10580153 81.66289393 -0.11116905 86.7825737 -0.11641026 C103.79524267 -0.13342413 120.80791099 -0.14791919 137.82058716 -0.155159 C142.23749925 -0.15706898 146.65441133 -0.1589893 151.07132339 -0.16094494 C152.71808545 -0.16167055 152.71808545 -0.16167055 154.39811543 -0.16241082 C172.18984786 -0.17071442 189.98151313 -0.1960562 207.77321622 -0.22852562 C226.02753019 -0.26156848 244.28180999 -0.27960524 262.53615403 -0.28280324 C272.79018583 -0.2849709 283.0441197 -0.29375692 293.29812241 -0.31926441 C302.02943861 -0.34093356 310.76063309 -0.34904053 319.49197313 -0.33929763 C323.9484119 -0.33474192 328.40459932 -0.33671262 332.86100388 -0.35605907 C336.93971412 -0.37361325 341.01798823 -0.37275652 345.09670261 -0.35716178 C346.57319191 -0.35477387 348.04971081 -0.3591703 349.52615473 -0.37099043 C351.53190918 -0.38605505 353.53781228 -0.37407876 355.5435791 -0.36076355 C357.21538038 -0.36222876 357.21538038 -0.36222876 358.92095542 -0.36372358 C364.15168485 0.47579293 367.20077076 3.04469804 370.33597183 7.19672108 C372.93901981 11.72795274 373.14337466 15.27138796 373.07010269 20.35272694 C373.05732619 21.87054145 373.04488584 23.38835883 373.03273392 24.90617847 C373.02481764 25.71089525 373.01690136 26.51561203 373.00874519 27.34471416 C372.96650913 32.52219487 372.9784735 37.69990929 372.97863293 42.87752914 C372.9756439 47.4175266 372.95514993 51.95614642 372.89676285 56.49579334 C372.84122998 60.89604573 372.83526127 65.29399963 372.86145592 69.6944952 C372.86268189 71.36210273 372.84644609 73.02982749 372.8115406 74.69707012 C372.63683561 83.51334545 372.83125341 90.09875316 378.86551285 96.93280506 C380.57469996 98.67659991 382.29336987 100.41117487 384.02347183 102.13422108 C386.49884324 105.41938037 388.76909071 108.8194815 391.02347183 112.25922108 C391.61668228 113.15955067 392.20989273 114.05988026 392.82107925 114.98749256 C411.73381534 144.02448062 424.65306204 176.03116647 431.02347183 210.13422108 C431.18573257 210.93924061 431.34799332 211.74426014 431.51517105 212.5736742 C436.98802688 240.56487492 436.86939773 274.22294504 431.02347183 302.13422108 C430.7254567 303.59650135 430.7254567 303.59650135 430.42142105 305.08832264 C421.37017258 348.35803632 402.98576512 388.55941442 374.02347183 422.13422108 C373.38925308 422.8792992 372.75503433 423.62437733 372.10159683 424.39203358 C360.29045669 437.8970194 347.53986955 450.56840851 333.02347183 461.13422108 C331.87352352 461.99071174 330.72378595 462.84748541 329.57425308 463.70453358 C321.38412925 469.74456316 312.87967566 475.12789722 304.02347183 480.13422108 C303.31625992 480.53640858 302.609048 480.93859608 301.88040543 481.35297108 C275.73302353 496.07417135 246.71173399 505.77381223 217.02347183 510.13422108 C215.81811783 510.31154774 214.61276382 510.4888744 213.37088394 510.67157459 C201.73485666 512.26686909 190.19272659 512.49375222 178.46097183 512.44672108 C177.49202988 512.44456593 176.52308792 512.44241077 175.52478409 512.44019032 C110.36662718 512.20787348 48.04935422 487.4268638 1.02347183 442.13422108 C0.36411636 441.50209705 -0.29523911 440.86997303 -0.97457504 440.21869373 C-10.46283122 431.07424629 -19.20273257 421.77688098 -26.97652817 411.13422108 C-27.83458968 409.98317091 -28.69266268 408.8321293 -29.55074692 407.68109608 C-35.58889646 399.48991493 -40.94748337 390.97618003 -45.97652817 382.13422108 C-46.34101059 381.50241932 -46.70549301 380.87061756 -47.08102036 380.2196703 C-68.68687815 342.47139535 -78.45350912 299.70482111 -78.28902817 256.50922108 C-78.28687302 255.49131489 -78.28471786 254.4734087 -78.28249741 253.42465687 C-78.23282671 238.81558585 -77.98193008 224.48346255 -74.97652817 210.13422108 C-74.77785141 209.15936756 -74.57917465 208.18451405 -74.37447739 207.18011951 C-65.78145416 166.10096277 -48.32185137 120.47954428 -17.97652817 90.13422108 C-17.87284268 87.77338505 -17.83290849 85.44085953 -17.83468246 83.07928944 C-17.83120804 82.34096882 -17.82773361 81.6026482 -17.8241539 80.84195423 C-17.81678239 79.23228623 -17.81144448 77.62260796 -17.80786324 76.01292706 C-17.80070971 73.46079079 -17.78504885 70.90884814 -17.76652145 68.35677052 C-17.71401957 61.09812653 -17.66613011 53.83958377 -17.65060043 46.58075428 C-17.64048574 42.14438459 -17.6110655 37.70849469 -17.56928062 33.27231503 C-17.55700695 31.58477449 -17.55184271 29.89716602 -17.55407906 28.20958233 C-17.57053836 11.72457297 -17.57053836 11.72457297 -12.97652817 5.13422108 C-8.51771038 0.99389028 -6.00026237 0.00963465 0 0 Z " fill="#DB97F0" transform="translate(77.97652816772461,-0.13422107696533203)"/>
<path d="M0 0 C1.21520325 -0.01824451 2.43040649 -0.03648903 3.68243408 -0.05528641 C5.80123367 -0.08976013 7.91988657 -0.13954776 10.03778076 -0.21043015 C15.47000088 -0.28562386 19.182527 0.42693812 23.9039917 3.18144608 C27.06121985 5.00099081 29.68808795 5.26544787 33.24414062 5.24279785 C34.13681641 5.2395752 35.02949219 5.23635254 35.94921875 5.23303223 C36.87798828 5.22465332 37.80675781 5.21627441 38.76367188 5.2076416 C39.70404297 5.20312988 40.64441406 5.19861816 41.61328125 5.19396973 C43.934309 5.18218786 46.25520832 5.16573718 48.57617188 5.1451416 C48.65231848 11.46220162 48.70481219 17.77914299 48.7409668 24.09655762 C48.75604102 26.24504011 48.77650377 28.3934919 48.80249023 30.54187012 C48.83893301 33.63236068 48.85591206 36.72244391 48.86914062 39.81311035 C48.88462448 40.77162399 48.90010834 41.73013763 48.9160614 42.71769714 C48.91730568 47.66285982 48.8879952 51.17793001 45.57617188 55.1451416 C41.2551294 58.23160051 37.79231976 58.56685882 32.69726562 57.7935791 C29.35039523 56.77041062 27.65734721 54.87668423 25.57617188 52.1451416 C24.57611884 49.14498248 24.46041602 47.17090404 24.47851562 44.03967285 C24.48101318 43.15384521 24.48351074 42.26801758 24.48608398 41.35534668 C24.49973999 39.67348267 24.49973999 39.67348267 24.51367188 37.9576416 C24.53429687 34.3895166 24.55492187 30.8213916 24.57617188 27.1451416 C16.65617187 27.1451416 8.73617188 27.1451416 0.57617188 27.1451416 C0.45242188 29.7438916 0.32867187 32.3426416 0.20117188 35.0201416 C-0.24807192 43.97485626 -0.91246267 52.90670454 -1.67529297 61.83996582 C-2.5834964 72.94716884 -2.93825207 83.97689223 -3.42382812 95.1451416 C25.94617188 95.1451416 55.31617188 95.1451416 85.57617188 95.1451416 C85.30310934 78.61676989 85.30310934 78.61676989 80.61132812 64.25061035 C80.02127235 62.91961052 80.02127235 62.91961052 79.41929626 61.5617218 C78.1894123 58.80372679 76.91650363 56.06869629 75.63867188 53.3326416 C74.37497499 50.54631932 73.1206078 47.75597261 71.86875916 44.96430969 C71.09536273 43.24837125 70.31347756 41.53622299 69.52149963 39.82878113 C69.16450485 39.0529921 68.80751007 38.27720306 68.43969727 37.47790527 C68.12738663 36.80764816 67.81507599 36.13739105 67.49330139 35.44682312 C66.29048906 32.42817541 65.46886724 29.26957539 64.57617188 26.1451416 C59.62617188 26.1451416 54.67617188 26.1451416 49.57617188 26.1451416 C49.57617188 24.8251416 49.57617188 23.5051416 49.57617188 22.1451416 C55.65866393 21.7720178 61.7344125 21.50122585 67.82568359 21.32116699 C69.89261911 21.24609083 71.95876711 21.14397619 74.02294922 21.0135498 C90.59396973 19.99336385 90.59396973 19.99336385 95.40737915 23.46643066 C98.61682207 26.9145387 100.6507361 30.91089133 102.61877441 35.15744019 C104.03974609 38.10759155 105.84638217 40.76366353 107.66601562 43.4810791 C108.94987871 45.49326406 110.23242501 47.50628977 111.51367188 49.5201416 C112.89098824 51.67787742 114.26859373 53.83542871 115.64648438 55.99279785 C116.31067383 57.03323242 116.97486328 58.07366699 117.65917969 59.14562988 C120.39260301 63.42260886 123.1361384 67.69294007 125.88867188 71.9576416 C126.5450061 72.9783374 126.5450061 72.9783374 127.21459961 74.01965332 C128.85449803 76.55680532 130.44802039 78.99756505 132.43164062 81.28186035 C133.57617188 83.1451416 133.57617188 83.1451416 133.47460938 85.41467285 C125.89173998 108.46000203 110.17420322 129.89153144 94.57617188 148.1451416 C93.939375 148.89408691 93.30257813 149.64303223 92.64648438 150.41467285 C80.82914719 163.91034781 68.090656 176.58072185 53.57617188 187.1451416 C52.42622356 188.00163226 51.27648599 188.85840593 50.12695312 189.7154541 C41.93682929 195.75548369 33.4323757 201.13881774 24.57617188 206.1451416 C23.515354 206.74842285 23.515354 206.74842285 22.43310547 207.3638916 C-3.71427643 222.08509188 -32.73556597 231.78473276 -62.42382812 236.1451416 C-63.62918213 236.32246826 -64.83453613 236.49979492 -66.07641602 236.68249512 C-77.7124433 238.27778961 -89.25457337 238.50467274 -100.98632812 238.4576416 C-101.95527008 238.45548645 -102.92421204 238.4533313 -103.92251587 238.45111084 C-169.08067277 238.21879401 -231.39794574 213.43778432 -278.42382812 168.1451416 C-279.08318359 167.51301758 -279.74253906 166.88089355 -280.421875 166.22961426 C-289.91013118 157.08516681 -298.65003253 147.78780151 -306.42382812 137.1451416 C-307.28188964 135.99409144 -308.13996264 134.84304983 -308.99804688 133.6920166 C-319.27230744 119.75424827 -331.373514 102.82560767 -336.42382812 86.1451416 C-335.67094645 81.79911024 -333.26812316 78.56250089 -330.86132812 74.9576416 C-329.85780124 73.43220656 -328.85525827 71.90612394 -327.85351562 70.3795166 C-327.3053418 69.5461377 -326.75716797 68.71275879 -326.19238281 67.85412598 C-322.27707602 61.85685318 -318.451517 55.80113186 -314.61108398 49.7557373 C-313.31150016 47.71853832 -311.98376673 45.69909558 -310.63232422 43.69592285 C-308.88235325 41.02426211 -307.53003166 38.28774837 -306.18798828 35.39123535 C-300.19933628 23.41562089 -300.19933628 23.41562089 -293.6723938 21.2192688 C-285.68985063 19.89742016 -277.70650949 20.50444994 -269.67382812 21.0201416 C-267.22360178 21.11054271 -264.7730547 21.19265281 -262.32226562 21.26623535 C-256.34813581 21.46356395 -250.38953602 21.7733177 -244.42382812 22.1451416 C-244.42382812 16.2051416 -244.42382812 10.2651416 -244.42382812 4.1451416 C-243.10382813 4.4751416 -241.78382813 4.8051416 -240.42382812 5.1451416 C-237.86563643 5.31738188 -235.35823753 5.42149175 -232.79882812 5.4576416 C-232.13753906 5.48664551 -231.47625 5.51564941 -230.79492188 5.54553223 C-226.72052337 5.59636445 -224.00276694 5.02123393 -220.37988281 3.15264893 C-212.23670858 -0.17986242 -203.44060977 0.57406835 -194.79101562 0.59924316 C-192.80218705 0.59049782 -190.81336549 0.5800087 -188.82455444 0.56791687 C-183.43921889 0.54010561 -178.05411336 0.53665173 -172.66871643 0.53763676 C-167.0033768 0.53449272 -161.33813829 0.50882907 -155.67285156 0.48565674 C-144.92353962 0.44510083 -134.17428813 0.42476651 -123.4249115 0.41168284 C-111.29135262 0.39592359 -99.15790064 0.35745039 -87.02440262 0.31708956 C-72.18995444 0.26818915 -57.35549687 0.22426924 -42.52099609 0.19500732 C-41.472931 0.19287019 -40.42486591 0.19073306 -39.34504128 0.18853116 C-34.31332247 0.1789058 -29.28163697 0.17254342 -24.24990845 0.17313004 C-16.16468743 0.17243262 -8.08383892 0.15714746 0 0 Z " fill="#DB97F0" transform="translate(357.423828125,273.8548583984375)"/>
<path d="M0 0 C6.22394443 -0.00030349 12.44784497 -0.00844002 18.67177653 -0.02069998 C55.94821342 -0.09223731 93.21112237 0.02185562 130.47786212 0.95055032 C132.88060192 1.00887506 135.28340648 1.06226624 137.68628764 1.11441088 C141.41496277 1.19650697 145.14293659 1.29369622 148.87089992 1.40337253 C150.87278914 1.459451 152.87503031 1.50249445 154.87725139 1.54510927 C156.66967769 1.60391866 156.66967769 1.60391866 158.49831462 1.66391611 C160.0458052 1.70636973 160.0458052 1.70636973 161.62455821 1.749681 C166.10153567 2.41477942 169.5175393 3.88484015 172.36074138 7.44634104 C173.77138266 10.67980526 174.25883041 13.50106728 174.6727531 17.00542307 C174.75089244 17.66180765 174.82903178 18.31819223 174.90953898 18.99446726 C175.74825711 26.33175259 176.27401831 33.68797766 176.6805656 41.06011057 C176.7465948 42.18517511 176.7465948 42.18517511 176.81395793 43.33296824 C177.45307324 54.53649622 177.59805886 65.70268166 177.50478435 76.92339182 C177.49584147 78.19658274 177.4868986 79.46977365 177.47768474 80.78154612 C177.42820202 87.15998951 177.34630445 93.5357932 177.21816325 99.91313791 C177.19054514 102.28894297 177.16365753 104.66475667 177.13759685 107.04057932 C177.10542567 108.11842188 177.0732545 109.19626444 177.04010844 110.30676889 C176.99679387 116.87411798 178.06707636 121.33482464 181.37885356 127.03394175 C185.00815271 133.66873 184.31564926 142.21332502 182.4305656 149.31011057 C179.2598829 158.64436335 173.49174201 165.74885531 165.00478435 170.66167307 C156.1477632 174.95235449 146.13690135 176.13771879 136.60634685 173.31011057 C134.48625648 172.38150416 132.53135813 171.38504311 130.5555656 170.18511057 C127.16449116 168.48957335 123.30433615 169.05882657 119.57473063 169.07590342 C118.16167463 169.07651371 118.16167463 169.07651371 116.72007203 169.07713634 C113.54346495 169.07984725 110.36692302 169.08986994 107.19033122 169.09990549 C104.92057674 169.10349946 102.65082162 169.10670485 100.38106608 169.10954905 C94.19887217 169.1189448 88.01671632 169.13528496 81.83454394 169.15391946 C77.97268787 169.16554659 74.11083018 169.17621713 70.24897075 169.18666124 C59.55339687 169.21611119 48.85783608 169.24778343 38.1622932 169.28688192 C35.38583198 169.29700222 32.60937072 169.30711363 29.83290935 169.31719065 C29.14284083 169.31969752 28.45277231 169.3222044 27.74179262 169.32478724 C16.57452608 169.36489581 5.4072923 169.38810282 -5.76003212 169.40416928 C-17.2298427 169.42094002 -28.69950879 169.45300639 -40.16924453 169.4990533 C-46.60712789 169.52453314 -53.0448738 169.54348222 -59.48281026 169.54642916 C-65.54363259 169.54958643 -71.60409824 169.57161934 -77.66480947 169.60798502 C-79.88591914 169.61807954 -82.10707153 169.62143715 -84.32820058 169.61745501 C-87.36845083 169.61304997 -90.40761057 169.63326095 -93.4477303 169.65939951 C-94.75604133 169.64878206 -94.75604133 169.64878206 -96.09078288 169.63795012 C-101.74301321 169.72042241 -106.06069425 170.93017836 -111.205549 173.27671272 C-118.16201374 176.09920538 -127.86087613 175.12932531 -134.8194344 172.74761057 C-144.22723745 168.25788331 -151.81597092 160.20337255 -155.46347737 150.4641633 C-157.21850725 144.59761122 -157.241676 138.52058164 -157.5694344 132.43511057 C-157.61112752 131.68969004 -157.65282063 130.9442695 -157.69577718 130.17626047 C-159.29700126 100.68486286 -159.16689515 70.98580992 -157.5694344 41.49761057 C-157.51076192 40.3944047 -157.51076192 40.3944047 -157.45090413 39.26891184 C-157.03960082 31.81789657 -156.44572387 24.38834422 -155.5616219 16.97807932 C-155.42095296 15.79109446 -155.28028401 14.60410959 -155.13535237 13.38115549 C-154.20818553 9.0922717 -152.70455001 6.26047238 -149.3663094 3.41167307 C-145.13037993 1.63348877 -141.24849495 1.67095225 -136.6944344 1.56011057 C-135.65275105 1.53419336 -134.61106771 1.50827616 -133.53781819 1.48157358 C-131.69276234 1.43657436 -129.84770588 1.3915996 -128.00264287 1.34689474 C-124.30527952 1.25685884 -120.60804958 1.16344507 -116.9109261 1.06401682 C-77.94309296 0.02620822 -38.97856077 -0.00278497 0 0 Z " fill="#DA438F" transform="translate(246.44443440437317,105.81488943099976)"/>
<path d="M0 0 C1.28217148 -0.00445784 2.56434295 -0.00891569 3.88536811 -0.01350862 C5.32168183 -0.01341931 6.75799554 -0.01322944 8.19430923 -0.01294994 C9.70968669 -0.01624752 11.22506326 -0.01997286 12.7404387 -0.02409142 C16.92011681 -0.03413164 21.09978055 -0.03783146 25.27946901 -0.04048073 C29.78130106 -0.0443778 34.28312167 -0.05395654 38.78494644 -0.0626936 C49.66447074 -0.08247485 60.543996 -0.09252628 71.4235338 -0.10142139 C76.54321439 -0.10580153 81.66289393 -0.11116905 86.7825737 -0.11641026 C103.79524267 -0.13342413 120.80791099 -0.14791919 137.82058716 -0.155159 C142.23749925 -0.15706898 146.65441133 -0.1589893 151.07132339 -0.16094494 C152.71808545 -0.16167055 152.71808545 -0.16167055 154.39811543 -0.16241082 C172.18984786 -0.17071442 189.98151313 -0.1960562 207.77321622 -0.22852562 C226.02753019 -0.26156848 244.28180999 -0.27960524 262.53615403 -0.28280324 C272.79018583 -0.2849709 283.0441197 -0.29375692 293.29812241 -0.31926441 C302.02943861 -0.34093356 310.76063309 -0.34904053 319.49197313 -0.33929763 C323.9484119 -0.33474192 328.40459932 -0.33671262 332.86100388 -0.35605907 C336.93971412 -0.37361325 341.01798823 -0.37275652 345.09670261 -0.35716178 C346.57319191 -0.35477387 348.04971081 -0.3591703 349.52615473 -0.37099043 C351.53190918 -0.38605505 353.53781228 -0.37407876 355.5435791 -0.36076355 C357.21538038 -0.36222876 357.21538038 -0.36222876 358.92095542 -0.36372358 C364.15168485 0.47579293 367.20077076 3.04469804 370.33597183 7.19672108 C372.83794393 11.55200584 373.159032 14.63420915 373.20047379 19.59003162 C373.20704498 20.24086216 373.21361618 20.8916927 373.22038651 21.56224537 C373.24008731 23.71514478 373.25177693 25.86797442 373.26175308 28.02093983 C373.26582861 28.75841764 373.26990414 29.49589546 373.27410316 30.25572109 C373.29495359 34.16175142 373.30925781 38.06774677 373.31863785 41.97382069 C373.32967988 45.99423464 373.36405649 50.01409171 373.40380955 54.03430939 C373.43005004 57.13743027 373.43833638 60.24042018 373.44191933 63.34364223 C373.4467688 64.82471749 373.45833581 66.30578753 373.47695732 67.78675365 C373.6716946 84.30540122 373.6716946 84.30540122 367.5405159 90.6747942 C363.08886736 94.61177046 359.74521343 95.25909037 353.97074795 95.26844215 C352.69703561 95.2729 351.42332327 95.27735784 350.11101359 95.28195077 C348.68943289 95.28186147 347.26785219 95.28167161 345.84627151 95.2813921 C344.3424054 95.28469063 342.83854018 95.28841617 341.33467609 95.29253358 C337.19146204 95.30256271 333.04826247 95.30627183 328.905038 95.30892289 C324.44071531 95.31282316 319.97640413 95.32240159 315.51208878 95.33113575 C304.72642015 95.3509066 293.94075058 95.36096654 283.15506837 95.36986354 C278.07872453 95.37424487 273.00238175 95.37961203 267.92603874 95.38485241 C251.05658783 95.40186427 234.18713758 95.41635964 217.31767941 95.42360115 C212.93909263 95.42551111 208.56050586 95.42743143 204.1819191 95.42938709 C202.54946306 95.4301127 202.54946306 95.4301127 200.88402811 95.43085297 C183.24432236 95.43915775 165.60468433 95.4645024 147.96500816 95.49696777 C129.86434421 95.53001069 111.76371471 95.54804735 93.66302043 95.55124539 C83.49619365 95.55341291 73.32946566 95.562197 63.16266823 95.58770657 C54.50640148 95.60937567 45.85025751 95.61748266 37.19396671 95.60773978 C32.77600023 95.60318424 28.35828728 95.60515391 23.9403553 95.62450123 C19.89684175 95.64205629 15.85376811 95.64119797 11.81025038 95.62560394 C10.34657684 95.62321618 8.88287344 95.62761168 7.41924568 95.63943259 C5.43079099 95.65449898 3.44218633 95.64252006 1.45371914 95.6292057 C-0.2035991 95.63067092 -0.2035991 95.63067092 -1.89439851 95.63216573 C-6.80434895 94.83892085 -9.91116726 92.28836206 -13.22652817 88.69672108 C-16.46239293 83.95849053 -17.22990505 80.16642108 -17.26705551 74.45135975 C-17.27377274 73.80023716 -17.28048996 73.14911457 -17.28741074 72.47826099 C-17.30633167 70.33615856 -17.31031206 68.19437051 -17.31246567 66.05218983 C-17.31889841 64.55392296 -17.32562713 63.05565734 -17.33263779 61.55739307 C-17.34459628 58.41947997 -17.34832016 55.28167683 -17.34713364 52.14374256 C-17.34693069 48.13903787 -17.37421357 44.13504474 -17.40867805 40.13050842 C-17.43100832 37.03594751 -17.4349693 33.94155608 -17.43391418 30.84692287 C-17.43626167 29.371443 -17.44503688 27.89595785 -17.46057892 26.42055798 C-17.53666176 18.45111141 -17.54226081 11.94418932 -12.97652817 5.13422108 C-8.51771038 0.99389028 -6.00026237 0.00963465 0 0 Z " fill="#EC55A8" transform="translate(77.97652816772461,-0.13422107696533203)"/>
<path d="M0 0 C1.21520325 -0.01824451 2.43040649 -0.03648903 3.68243408 -0.05528641 C5.80123367 -0.08976013 7.91988657 -0.13954776 10.03778076 -0.21043015 C15.47000088 -0.28562386 19.182527 0.42693812 23.9039917 3.18144608 C27.06121985 5.00099081 29.68808795 5.26544787 33.24414062 5.24279785 C34.13681641 5.2395752 35.02949219 5.23635254 35.94921875 5.23303223 C36.87798828 5.22465332 37.80675781 5.21627441 38.76367188 5.2076416 C39.70404297 5.20312988 40.64441406 5.19861816 41.61328125 5.19396973 C43.934309 5.18218786 46.25520832 5.16573718 48.57617188 5.1451416 C48.65231848 11.46220162 48.70481219 17.77914299 48.7409668 24.09655762 C48.75604102 26.24504011 48.77650377 28.3934919 48.80249023 30.54187012 C48.83893301 33.63236068 48.85591206 36.72244391 48.86914062 39.81311035 C48.88462448 40.77162399 48.90010834 41.73013763 48.9160614 42.71769714 C48.91730568 47.66285982 48.8879952 51.17793001 45.57617188 55.1451416 C41.2551294 58.23160051 37.79231976 58.56685882 32.69726562 57.7935791 C29.35039523 56.77041062 27.65734721 54.87668423 25.57617188 52.1451416 C24.57611884 49.14498248 24.46041602 47.17090404 24.47851562 44.03967285 C24.48101318 43.15384521 24.48351074 42.26801758 24.48608398 41.35534668 C24.49973999 39.67348267 24.49973999 39.67348267 24.51367188 37.9576416 C24.53429687 34.3895166 24.55492187 30.8213916 24.57617188 27.1451416 C16.65617187 27.1451416 8.73617188 27.1451416 0.57617188 27.1451416 C0.45242188 29.7438916 0.32867187 32.3426416 0.20117188 35.0201416 C-0.24807192 43.97485626 -0.91246267 52.90670454 -1.67529297 61.83996582 C-2.5834964 72.94716884 -2.93825207 83.97689223 -3.42382812 95.1451416 C25.94617188 95.1451416 55.31617188 95.1451416 85.57617188 95.1451416 C85.30310934 78.61676989 85.30310934 78.61676989 80.61132812 64.25061035 C80.02127235 62.91961052 80.02127235 62.91961052 79.41929626 61.5617218 C78.1894123 58.80372679 76.91650363 56.06869629 75.63867188 53.3326416 C74.37497499 50.54631932 73.1206078 47.75597261 71.86875916 44.96430969 C71.09536273 43.24837125 70.31347756 41.53622299 69.52149963 39.82878113 C69.16450485 39.0529921 68.80751007 38.27720306 68.43969727 37.47790527 C68.12738663 36.80764816 67.81507599 36.13739105 67.49330139 35.44682312 C66.29048906 32.42817541 65.46886724 29.26957539 64.57617188 26.1451416 C59.62617188 26.1451416 54.67617188 26.1451416 49.57617188 26.1451416 C49.57617188 24.8251416 49.57617188 23.5051416 49.57617188 22.1451416 C55.65866393 21.7720178 61.7344125 21.50122585 67.82568359 21.32116699 C69.89261911 21.24609083 71.95876711 21.14397619 74.02294922 21.0135498 C90.59396973 19.99336385 90.59396973 19.99336385 95.40737915 23.46643066 C98.61682207 26.9145387 100.6507361 30.91089133 102.61877441 35.15744019 C104.03974609 38.10759155 105.84638217 40.76366353 107.66601562 43.4810791 C108.94987871 45.49326406 110.23242501 47.50628977 111.51367188 49.5201416 C112.89098824 51.67787742 114.26859373 53.83542871 115.64648438 55.99279785 C116.31067383 57.03323242 116.97486328 58.07366699 117.65917969 59.14562988 C120.39260301 63.42260886 123.1361384 67.69294007 125.88867188 71.9576416 C126.5450061 72.9783374 126.5450061 72.9783374 127.21459961 74.01965332 C128.85449803 76.55680532 130.44802039 78.99756505 132.43164062 81.28186035 C133.57617188 83.1451416 133.57617188 83.1451416 133.37036133 85.27331543 C132.32504483 89.05322872 130.71643618 92.43409963 129.01367188 95.9576416 C128.51963867 96.99694824 128.51963867 96.99694824 128.015625 98.05725098 C127.20744937 99.75559108 126.39248811 101.45069929 125.57617188 103.1451416 C68.18952864 103.19088311 10.80288716 103.22614657 -46.58377071 103.24727226 C-53.35321045 103.249767 -60.12265016 103.2523601 -66.89208984 103.25500488 C-67.90256637 103.25539716 -67.90256637 103.25539716 -68.93345657 103.25579736 C-90.77981903 103.26432446 -112.62617117 103.27935037 -134.47252737 103.29773604 C-157.55288749 103.31712503 -180.63324265 103.32913091 -203.71361136 103.33331859 C-217.54515586 103.33606779 -231.37667071 103.34476217 -245.20820609 103.36097454 C-254.6829402 103.37151689 -264.1576589 103.37474849 -273.63239846 103.37214436 C-279.10518447 103.37085877 -284.57791856 103.37287949 -290.05069542 103.38355255 C-295.0557096 103.3932425 -300.06063664 103.39380436 -305.06565472 103.38693939 C-306.88132801 103.38609018 -308.69700661 103.3886632 -310.51266935 103.39490797 C-312.97128861 103.40287598 -315.42958883 103.3986435 -317.88820267 103.39123726 C-318.60125441 103.39649129 -319.31430615 103.40174531 -320.04896551 103.40715855 C-323.6491319 103.38247169 -326.45344134 103.29128834 -329.42382812 101.1451416 C-330.86937451 98.68107651 -332.07631035 96.35994872 -333.23632812 93.7701416 C-333.56052734 93.09725098 -333.88472656 92.42436035 -334.21875 91.7310791 C-335.90164912 88.06978251 -336.77776663 85.95697752 -335.42382812 82.1451416 C-333.95347906 79.69850443 -332.44472022 77.32922107 -330.86132812 74.9576416 C-329.85780124 73.43220656 -328.85525827 71.90612394 -327.85351562 70.3795166 C-327.3053418 69.5461377 -326.75716797 68.71275879 -326.19238281 67.85412598 C-322.27707602 61.85685318 -318.451517 55.80113186 -314.61108398 49.7557373 C-313.31150016 47.71853832 -311.98376673 45.69909558 -310.63232422 43.69592285 C-308.88235325 41.02426211 -307.53003166 38.28774837 -306.18798828 35.39123535 C-300.19933628 23.41562089 -300.19933628 23.41562089 -293.6723938 21.2192688 C-285.68985063 19.89742016 -277.70650949 20.50444994 -269.67382812 21.0201416 C-267.22360178 21.11054271 -264.7730547 21.19265281 -262.32226562 21.26623535 C-256.34813581 21.46356395 -250.38953602 21.7733177 -244.42382812 22.1451416 C-244.42382812 16.2051416 -244.42382812 10.2651416 -244.42382812 4.1451416 C-243.10382813 4.4751416 -241.78382813 4.8051416 -240.42382812 5.1451416 C-237.86563643 5.31738188 -235.35823753 5.42149175 -232.79882812 5.4576416 C-232.13753906 5.48664551 -231.47625 5.51564941 -230.79492188 5.54553223 C-226.72052337 5.59636445 -224.00276694 5.02123393 -220.37988281 3.15264893 C-212.23670858 -0.17986242 -203.44060977 0.57406835 -194.79101562 0.59924316 C-192.80218705 0.59049782 -190.81336549 0.5800087 -188.82455444 0.56791687 C-183.43921889 0.54010561 -178.05411336 0.53665173 -172.66871643 0.53763676 C-167.0033768 0.53449272 -161.33813829 0.50882907 -155.67285156 0.48565674 C-144.92353962 0.44510083 -134.17428813 0.42476651 -123.4249115 0.41168284 C-111.29135262 0.39592359 -99.15790064 0.35745039 -87.02440262 0.31708956 C-72.18995444 0.26818915 -57.35549687 0.22426924 -42.52099609 0.19500732 C-41.472931 0.19287019 -40.42486591 0.19073306 -39.34504128 0.18853116 C-34.31332247 0.1789058 -29.28163697 0.17254342 -24.24990845 0.17313004 C-16.16468743 0.17243262 -8.08383892 0.15714746 0 0 Z " fill="#E5BCF8" transform="translate(357.423828125,273.8548583984375)"/>
<path d="M0 0 C29.04 0 58.08 0 88 0 C88 9.57 88 19.14 88 29 C97.57 29 107.14 29 117 29 C117 48.47 117 67.94 117 88 C126.57 88 136.14 88 146 88 C146 107.14 146 126.28 146 146 C136.43 146 126.86 146 117 146 C117 136.43 117 126.86 117 117 C107.43 117 97.86 117 88 117 C88 126.57 88 136.14 88 146 C78.43 146 68.86 146 59 146 C59 136.1 59 126.2 59 116 C49.1 116 39.2 116 29 116 C29 125.9 29 135.8 29 146 C19.43 146 9.86 146 0 146 C0 136.43 0 126.86 0 117 C-9.57 117 -19.14 117 -29 117 C-29 126.57 -29 136.14 -29 146 C-38.24 146 -47.48 146 -57 146 C-55.68 142.7 -54.36 139.4 -53 136 C-50.92222585 125.61112923 -51.97069306 116.04396041 -58 107 C-58.22705078 104.9152832 -58.22705078 104.9152832 -58.1953125 102.55078125 C-58.19031738 101.78677002 -58.18532227 101.02275879 -58.18017578 100.2355957 C-58.16196777 99.27097412 -58.14375977 98.30635254 -58.125 97.3125 C-58.08375 94.239375 -58.0425 91.16625 -58 88 C-48.43 88 -38.86 88 -29 88 C-29 68.53 -29 49.06 -29 29 C-19.43 29 -9.86 29 0 29 C0 19.43 0 9.86 0 0 Z " fill="#D6DEE7" transform="translate(212,118)"/>
<path d="M0 0 C0.33 0 0.66 0 1 0 C1.23399601 26.73016604 1.41013659 53.46017773 1.51812172 80.19116306 C1.5696025 92.60394673 1.6397415 105.01609261 1.75439453 117.4284668 C1.85432284 128.25193267 1.9186426 139.07493647 1.94088495 149.89885086 C1.95387935 155.62598047 1.98423883 161.35178866 2.05730057 167.07849312 C2.12563544 172.47891166 2.14602531 177.87747612 2.13107681 183.27828598 C2.13380776 185.25069603 2.15343007 187.22317388 2.19205475 189.1952076 C2.43374122 202.1817006 0.53899458 210.27029392 -7.75080323 220.41629493 C-9.73622151 222.93336596 -11.39044245 225.61870069 -13.08984375 228.3359375 C-13.72365967 229.32948242 -14.35747559 230.32302734 -15.01049805 231.34667969 C-15.64640869 232.34602539 -16.28231934 233.34537109 -16.9375 234.375 C-18.31758109 236.53393551 -19.69778998 238.69278933 -21.078125 240.8515625 C-23.49276385 244.63277921 -25.89904052 248.41904758 -28.296875 252.2109375 C-29.26028751 253.72404058 -30.22381969 255.23706747 -31.1875 256.75 C-31.60829834 257.42208496 -32.02909668 258.09416992 -32.46264648 258.78662109 C-34.95913161 262.69139285 -37.60440706 265.83962576 -41 269 C-50.2455921 246.28981274 -56.81807997 223.34568141 -60 199 C-60.08588379 198.34863068 -60.17176758 197.69726135 -60.26025391 197.02615356 C-60.96337679 191.29461525 -61.17448315 185.63838925 -61.203125 179.8671875 C-61.21018463 178.92083939 -61.21724426 177.97449127 -61.22451782 176.99946594 C-61.45241099 137.48347888 -61.45241099 137.48347888 -58 121 C-57.80132324 120.02514648 -57.60264648 119.05029297 -57.39794922 118.04589844 C-48.65348168 76.24275847 -30.81306518 30.81306518 0 0 Z " fill="#574D70" transform="translate(61,89)"/>
<path d="M0 0 C5.51606597 4.35008591 5.51606597 4.35008591 7.69140625 7.22265625 C8.15498535 7.83343018 8.61856445 8.4442041 9.09619141 9.07348633 C9.58007324 9.72986084 10.06395508 10.38623535 10.5625 11.0625 C11.07989746 11.76076904 11.59729492 12.45903809 12.13037109 13.1784668 C45.02149957 58.2111829 62.52456096 110.93405039 62.3125 166.625 C62.31034485 167.64290619 62.3081897 168.66081238 62.30596924 169.70956421 C62.25629854 184.31863523 62.00540191 198.65075853 59 213 C58.80132324 213.97485352 58.60264648 214.94970703 58.39794922 215.95410156 C54.62072705 234.0112041 49.54799178 252.12801838 42 269 C36.58387469 264.27396015 33.16034949 258.29990402 29.375 252.25 C28.66072261 251.11949343 27.9457091 249.98945163 27.22998047 248.85986328 C25.80640062 246.61223925 24.38577478 244.36284828 22.96679688 242.11230469 C20.37846548 238.01646945 17.75884645 233.94166674 15.125 229.875 C14.55724854 228.99376465 14.55724854 228.99376465 13.97802734 228.09472656 C13.59598145 227.50401367 13.21393555 226.91330078 12.8203125 226.3046875 C12.43638021 225.69104119 12.05244793 225.07739489 11.65688133 224.44515324 C9.95232399 221.85237874 9.95232399 221.85237874 7.57699013 219.02627468 C-0.78088248 208.40822415 -1.3933936 199.47482695 -1.13525391 186.29516602 C-1.13242717 184.25357198 -1.1340282 182.21196781 -1.13967896 180.17037964 C-1.14252786 174.67259949 -1.08407395 169.1770371 -1.01393938 163.6797688 C-0.95108141 157.9183789 -0.94552513 152.15692832 -0.9336853 146.39524841 C-0.90270445 135.50485192 -0.82078083 124.61546901 -0.72019041 113.72551721 C-0.60810138 101.31926136 -0.55335513 88.91295503 -0.50323606 76.50631821 C-0.39893806 51.00365198 -0.22324362 25.50188299 0 0 Z " fill="#574D70" transform="translate(450,89)"/>
<path d="M0 0 C1.28217148 -0.00445784 2.56434295 -0.00891569 3.88536811 -0.01350862 C5.32168183 -0.01341931 6.75799554 -0.01322944 8.19430923 -0.01294994 C9.70968669 -0.01624752 11.22506326 -0.01997286 12.7404387 -0.02409142 C16.92011681 -0.03413164 21.09978055 -0.03783146 25.27946901 -0.04048073 C29.78130106 -0.0443778 34.28312167 -0.05395654 38.78494644 -0.0626936 C49.66447074 -0.08247485 60.543996 -0.09252628 71.4235338 -0.10142139 C76.54321439 -0.10580153 81.66289393 -0.11116905 86.7825737 -0.11641026 C103.79524267 -0.13342413 120.80791099 -0.14791919 137.82058716 -0.155159 C142.23749925 -0.15706898 146.65441133 -0.1589893 151.07132339 -0.16094494 C152.71808545 -0.16167055 152.71808545 -0.16167055 154.39811543 -0.16241082 C172.18984786 -0.17071442 189.98151313 -0.1960562 207.77321622 -0.22852562 C226.02753019 -0.26156848 244.28180999 -0.27960524 262.53615403 -0.28280324 C272.79018583 -0.2849709 283.0441197 -0.29375692 293.29812241 -0.31926441 C302.02943861 -0.34093356 310.76063309 -0.34904053 319.49197313 -0.33929763 C323.9484119 -0.33474192 328.40459932 -0.33671262 332.86100388 -0.35605907 C336.93971412 -0.37361325 341.01798823 -0.37275652 345.09670261 -0.35716178 C346.57319191 -0.35477387 348.04971081 -0.3591703 349.52615473 -0.37099043 C351.53190918 -0.38605505 353.53781228 -0.37407876 355.5435791 -0.36076355 C357.21538038 -0.36222876 357.21538038 -0.36222876 358.92095542 -0.36372358 C364.15168485 0.47579293 367.20077076 3.04469804 370.33597183 7.19672108 C372.83794393 11.55200584 373.159032 14.63420915 373.20047379 19.59003162 C373.20704498 20.24086216 373.21361618 20.8916927 373.22038651 21.56224537 C373.24008731 23.71514478 373.25177693 25.86797442 373.26175308 28.02093983 C373.26582861 28.75841764 373.26990414 29.49589546 373.27410316 30.25572109 C373.29495359 34.16175142 373.30925781 38.06774677 373.31863785 41.97382069 C373.32967988 45.99423464 373.36405649 50.01409171 373.40380955 54.03430939 C373.43005004 57.13743027 373.43833638 60.24042018 373.44191933 63.34364223 C373.4467688 64.82471749 373.45833581 66.30578753 373.47695732 67.78675365 C373.6716946 84.30540122 373.6716946 84.30540122 367.5405159 90.6747942 C363.08886736 94.61177046 359.74521343 95.25909037 353.97074795 95.26844215 C352.69703561 95.2729 351.42332327 95.27735784 350.11101359 95.28195077 C348.68943289 95.28186147 347.26785219 95.28167161 345.84627151 95.2813921 C344.3424054 95.28469063 342.83854018 95.28841617 341.33467609 95.29253358 C337.19146204 95.30256271 333.04826247 95.30627183 328.905038 95.30892289 C324.44071531 95.31282316 319.97640413 95.32240159 315.51208878 95.33113575 C304.72642015 95.3509066 293.94075058 95.36096654 283.15506837 95.36986354 C278.07872453 95.37424487 273.00238175 95.37961203 267.92603874 95.38485241 C251.05658783 95.40186427 234.18713758 95.41635964 217.31767941 95.42360115 C212.93909263 95.42551111 208.56050586 95.42743143 204.1819191 95.42938709 C202.54946306 95.4301127 202.54946306 95.4301127 200.88402811 95.43085297 C183.24432236 95.43915775 165.60468433 95.4645024 147.96500816 95.49696777 C129.86434421 95.53001069 111.76371471 95.54804735 93.66302043 95.55124539 C83.49619365 95.55341291 73.32946566 95.562197 63.16266823 95.58770657 C54.50640148 95.60937567 45.85025751 95.61748266 37.19396671 95.60773978 C32.77600023 95.60318424 28.35828728 95.60515391 23.9403553 95.62450123 C19.89684175 95.64205629 15.85376811 95.64119797 11.81025038 95.62560394 C10.34657684 95.62321618 8.88287344 95.62761168 7.41924568 95.63943259 C5.43079099 95.65449898 3.44218633 95.64252006 1.45371914 95.6292057 C-0.2035991 95.63067092 -0.2035991 95.63067092 -1.89439851 95.63216573 C-6.80434895 94.83892085 -9.91116726 92.28836206 -13.22652817 88.69672108 C-16.46239293 83.95849053 -17.22990505 80.16642108 -17.26705551 74.45135975 C-17.27377274 73.80023716 -17.28048996 73.14911457 -17.28741074 72.47826099 C-17.30633167 70.33615856 -17.31031206 68.19437051 -17.31246567 66.05218983 C-17.31889841 64.55392296 -17.32562713 63.05565734 -17.33263779 61.55739307 C-17.34459628 58.41947997 -17.34832016 55.28167683 -17.34713364 52.14374256 C-17.34693069 48.13903787 -17.37421357 44.13504474 -17.40867805 40.13050842 C-17.43100832 37.03594751 -17.4349693 33.94155608 -17.43391418 30.84692287 C-17.43626167 29.371443 -17.44503688 27.89595785 -17.46057892 26.42055798 C-17.53666176 18.45111141 -17.54226081 11.94418932 -12.97652817 5.13422108 C-8.51771038 0.99389028 -6.00026237 0.00963465 0 0 Z M-4.97652817 14.13422108 C-5.57922821 17.11492107 -5.57922821 17.11492107 -5.47823715 20.57758045 C-5.48364014 21.22668888 -5.48904312 21.87579731 -5.49460983 22.54457569 C-5.50711394 24.68950517 -5.49059731 26.83309662 -5.47262192 28.97797108 C-5.47277687 30.46865376 -5.47426521 31.95933685 -5.47703171 33.45001698 C-5.47841644 36.57393679 -5.46584605 39.69739788 -5.4430809 42.8212328 C-5.41469545 46.82642973 -5.4174323 50.8308644 -5.43017101 54.83611774 C-5.43712457 57.91421493 -5.42934274 60.99213578 -5.41691399 64.07021046 C-5.41239629 65.54700005 -5.41206547 67.02380855 -5.41597939 68.50059986 C-5.41888859 70.56441545 -5.40240094 72.62717903 -5.3805809 74.6908617 C-5.37517792 75.86539906 -5.36977493 77.03993641 -5.36420822 78.2500658 C-5.20837088 81.06897109 -5.20837088 81.06897109 -3.82623672 82.79088557 C-1.18233514 84.71099718 0.75574731 84.51029304 4.0064888 84.5117445 C5.89370698 84.52347936 5.89370698 84.52347936 7.81905079 84.53545129 C9.22304854 84.52896451 10.62704501 84.52219451 12.03104019 84.515172 C13.51642292 84.51862653 15.00180308 84.52338971 16.48717785 84.52935374 C20.57924383 84.54192173 24.67110095 84.53566716 28.76316786 84.52639508 C33.17222633 84.51962856 37.58124799 84.53007387 41.99029922 84.53833485 C50.63170999 84.55170007 59.27304274 84.54878205 67.91445661 84.54009692 C74.93524775 84.53333173 81.95601699 84.5323986 88.97681046 84.53566837 C89.97466786 84.53612807 90.97252527 84.53658777 92.00062078 84.5370614 C94.02751899 84.53802054 96.0544172 84.53899318 98.0813154 84.53997917 C117.1037445 84.54854124 136.1261303 84.53868614 155.1485523 84.52257808 C171.48350812 84.50917416 187.81839998 84.51150202 204.15335464 84.52533436 C223.10603165 84.54137577 242.05867065 84.54771719 261.01135349 84.53849757 C263.03094673 84.53754188 265.05053996 84.53659877 267.07013321 84.53566837 C268.06390581 84.53520555 269.0576784 84.53474272 270.08156532 84.53426587 C277.09686787 84.53167166 284.11214639 84.53605624 291.12744522 84.54310703 C299.67253827 84.55150627 308.2175486 84.54927521 316.76263213 84.5332648 C321.12549503 84.52536077 325.48821986 84.52232659 329.85108185 84.53221226 C333.84072795 84.54111579 337.83010726 84.53629861 341.81972897 84.5202796 C343.2671905 84.51691327 344.71467432 84.51866712 346.16212165 84.52590697 C348.12155083 84.53495997 350.08104265 84.52392827 352.04045486 84.5117445 C353.13128404 84.51125744 354.22211321 84.51077039 355.34599781 84.51026857 C358.03615931 84.34602856 358.03615931 84.34602856 359.87318039 82.79088557 C361.68871689 80.17612662 361.4130553 77.83628815 361.42752457 74.6908617 C361.43438782 74.04175327 361.44125107 73.39264484 361.4483223 72.72386646 C361.46661739 70.57917857 361.46274978 68.43522022 361.45706558 66.29047108 C361.46162578 64.79978668 361.46693087 63.3091044 361.47294998 61.81842518 C361.4818861 58.69459967 361.47945207 55.57102975 361.46951675 52.44720936 C361.45801986 48.44191558 361.4782459 44.43750247 361.50743389 40.43232441 C361.52576932 37.35423642 361.52550895 34.27636058 361.51979637 31.1982317 C361.51964286 29.72142265 361.5257117 28.24459949 361.53808784 26.76784229 C361.55294921 24.7038574 361.54236038 22.64151357 361.52518082 20.57758045 C361.52501465 19.4030431 361.52484848 18.22850574 361.52467728 17.01837635 C361.30120423 14.09556866 361.30120423 14.09556866 359.37164879 12.47755659 C356.38103406 10.76669789 354.3912264 10.75824344 350.95143509 10.75669765 C349.07260557 10.74496279 349.07260557 10.74496279 347.15581989 10.73299086 C345.7633139 10.73947723 344.37080921 10.74624721 342.97830582 10.75327015 C341.50102231 10.7498146 340.02374139 10.74505073 338.54646587 10.73908842 C334.48139242 10.7265345 330.41652954 10.73276866 326.35145521 10.74204707 C321.96966194 10.7488193 317.58790554 10.73836542 313.20611954 10.73010731 C304.61998976 10.71674823 296.03393853 10.71965738 287.44780564 10.72834523 C280.47138336 10.73511283 273.49498313 10.73604251 266.5185585 10.73277378 C265.52667603 10.73231408 264.53479356 10.73185438 263.51285404 10.73138075 C261.49803709 10.7304216 259.48322015 10.72944896 257.46840322 10.72846298 C238.56325496 10.71990271 219.65815031 10.72975319 200.7530092 10.74586408 C184.52185251 10.75926783 168.29076018 10.75693992 152.05960464 10.7431078 C133.22337312 10.72706322 114.38717983 10.72072675 95.55094242 10.72994459 C93.54342334 10.73090026 91.53590425 10.73184337 89.52838516 10.73277378 C88.54057649 10.73323661 87.55276781 10.73369943 86.53502554 10.73417629 C79.56476484 10.73676954 72.59452834 10.73238795 65.62427139 10.72533512 C57.13302976 10.71693238 48.64187136 10.71917439 40.1506393 10.73517735 C35.81599899 10.74307662 31.48149758 10.74612359 27.14685822 10.7362299 C23.1818715 10.72731662 19.21715296 10.73215988 15.25219071 10.74816255 C13.81483544 10.7515247 12.37745769 10.74978426 10.94011676 10.74253519 C8.99192945 10.73346042 7.04367903 10.7445297 5.09550858 10.75669765 C3.46976079 10.75742824 3.46976079 10.75742824 1.81116962 10.75817358 C-1.35095655 11.18472973 -2.73624726 11.88737397 -4.97652817 14.13422108 Z " fill="#574D70" transform="translate(77.97652816772461,-0.13422107696533203)"/>
<path d="M0 0 C1.25255301 -0.00782324 2.50510603 -0.01564648 3.7956152 -0.02370679 C5.18812119 -0.01722042 6.58062588 -0.01045044 7.97312927 -0.00342751 C9.45041278 -0.00688305 10.9276937 -0.01164692 12.40496922 -0.01760924 C16.47004267 -0.03016315 20.53490555 -0.023929 24.59997988 -0.01465058 C28.98177315 -0.00787835 33.36352955 -0.01833223 37.74531555 -0.02659035 C46.33144533 -0.03994943 54.91749656 -0.03704027 63.50362945 -0.02835242 C70.48005173 -0.02158483 77.45645196 -0.02065515 84.43287659 -0.02392387 C85.42475906 -0.02438357 86.41664153 -0.02484327 87.43858105 -0.0253169 C89.453398 -0.02627605 91.46821494 -0.02724869 93.48303187 -0.02823468 C112.38818013 -0.03679494 131.29328478 -0.02694446 150.19842589 -0.01083358 C166.42958258 0.00257018 182.66067491 0.00024227 198.89183044 -0.01358986 C217.72806197 -0.02963444 236.56425526 -0.03597091 255.40049267 -0.02675307 C257.40801175 -0.02579739 259.41553083 -0.02485428 261.42304993 -0.02392387 C262.4108586 -0.02346105 263.39866728 -0.02299822 264.41640955 -0.02252137 C271.38667025 -0.01992811 278.35690675 -0.0243097 285.3271637 -0.03136253 C293.81840533 -0.03976528 302.30956373 -0.03752327 310.80079579 -0.0215203 C315.1354361 -0.01362103 319.46993751 -0.01057407 323.80457687 -0.02046776 C327.76956359 -0.02938104 331.73428213 -0.02453778 335.69924438 -0.0085351 C337.13659965 -0.00517295 338.5739774 -0.0069134 340.01131833 -0.01416247 C341.95950564 -0.02323724 343.90775606 -0.01216796 345.85592651 0 C347.48167429 0.00073059 347.48167429 0.00073059 349.14026546 0.00147593 C352.32035358 0.43045505 353.71284435 1.07008692 355.92796326 3.37752342 C356.22357402 6.24790394 356.30739342 8.71507087 356.17796326 11.56502342 C356.15991638 12.31461327 356.14186951 13.06420311 356.12327576 13.8365078 C356.07620435 15.68406052 356.00446091 17.53095501 355.92796326 19.37752342 C354.93796326 18.71752342 353.94796326 18.05752342 352.92796326 17.37752342 C349.85741293 17.05696275 349.85741293 17.05696275 346.36155701 17.06892967 C345.07184998 17.04379295 343.78214294 17.01865623 342.45335388 16.9927578 C340.40364186 16.96394411 338.35401359 16.939919 336.30418396 16.92122459 C334.32313252 16.89963211 332.34230954 16.85955541 330.36155701 16.81892967 C328.5834967 16.79874779 328.5834967 16.79874779 326.76951599 16.77815819 C325.83180359 16.64594872 324.89409119 16.51373924 323.92796326 16.37752342 C323.26796326 15.38752342 322.60796326 14.39752342 321.92796326 13.37752342 C319.0526977 12.90998924 319.0526977 12.90998924 315.67796326 12.97908592 C314.43015076 12.97521873 313.18233826 12.97135155 311.89671326 12.96736717 C310.58702576 12.97896873 309.27733826 12.9905703 307.92796326 13.00252342 C305.96343201 12.98512108 305.96343201 12.98512108 303.95921326 12.96736717 C302.08749451 12.97316795 302.08749451 12.97316795 300.17796326 12.97908592 C298.45319763 12.98416161 298.45319763 12.98416161 296.69358826 12.98933983 C295.78093201 13.11744041 294.86827576 13.245541 293.92796326 13.37752342 C293.26796326 14.36752342 292.60796326 15.35752342 291.92796326 16.37752342 C289.39353943 16.76570702 289.39353943 16.76570702 286.22093201 16.77596092 C285.07688904 16.77982811 283.93284607 16.7836953 282.75413513 16.78767967 C281.55337341 16.77607811 280.35261169 16.76447655 279.11546326 16.75252342 C277.9263031 16.76412498 276.73714294 16.77572655 275.51194763 16.78767967 C274.36403748 16.78381248 273.21612732 16.7799453 272.03343201 16.77596092 C270.98308777 16.77257713 269.93274353 16.76919334 268.85057068 16.76570702 C265.52636432 16.32418266 263.75278102 15.12006161 260.92796326 13.37752342 C258.46049611 12.9249119 258.46049611 12.9249119 255.91624451 12.97908592 C254.53275818 12.97328514 254.53275818 12.97328514 253.12132263 12.96736717 C252.17063904 12.97896873 251.21995544 12.9905703 250.24046326 13.00252342 C249.2781781 12.99092186 248.31589294 12.9793203 247.32444763 12.96736717 C246.4059906 12.97123436 245.48753357 12.97510155 244.54124451 12.97908592 C243.70375671 12.98246971 242.86626892 12.9858535 242.00340271 12.98933983 C241.31850769 13.11744041 240.63361267 13.245541 239.92796326 13.37752342 C239.26796326 14.36752342 238.60796326 15.35752342 237.92796326 16.37752342 C234.94700623 16.71809959 234.94700623 16.71809959 231.17015076 16.67049217 C230.5070993 16.66624733 229.84404785 16.66200249 229.16090393 16.65762901 C227.04117884 16.64082314 224.92240138 16.60317043 222.80296326 16.56502342 C221.36677906 16.54997892 219.93057998 16.5362901 218.49436951 16.5240078 C214.97192562 16.49091432 211.4500369 16.43912023 207.92796326 16.37752342 C207.59796326 15.38752342 207.26796326 14.39752342 206.92796326 13.37752342 C205.13703134 13.29666195 203.34506698 13.2383964 201.55296326 13.19002342 C200.55522888 13.15521873 199.55749451 13.12041405 198.52952576 13.08455467 C197.24175232 13.2295742 197.24175232 13.2295742 195.92796326 13.37752342 C195.26796326 14.36752342 194.60796326 15.35752342 193.92796326 16.37752342 C191.37261759 16.68246185 189.06344332 16.79769451 186.50608826 16.77596092 C185.76848267 16.7788311 185.03087708 16.78170128 184.2709198 16.78465843 C182.70737442 16.78670188 181.14380363 16.78115238 179.58030701 16.7686367 C177.20080833 16.75267665 174.82303178 16.76842691 172.44358826 16.78767967 C170.9227512 16.7856955 169.40191521 16.78184823 167.88108826 16.77596092 C167.17462158 16.78203362 166.46815491 16.78810631 165.74028015 16.79436302 C161.05183419 16.72856248 157.98287565 15.66336448 153.92796326 13.37752342 C151.43021483 12.91238184 151.43021483 12.91238184 148.99046326 13.00252342 C148.19768982 12.99478905 147.40491638 12.98705467 146.58811951 12.97908592 C143.78357057 13.25507314 143.78357057 13.25507314 140.99046326 14.87752342 C135.31231368 17.45703225 128.97109902 16.80920287 122.86546326 16.75252342 C121.61184998 16.76412498 120.35823669 16.77572655 119.06663513 16.78767967 C117.85427185 16.78381248 116.64190857 16.7799453 115.39280701 16.77596092 C114.29573425 16.77257713 113.1986615 16.76919334 112.06834412 16.76570702 C108.48291865 16.3225113 106.12370714 15.01415345 102.92796326 13.37752342 C100.26993389 12.92728328 100.26993389 12.92728328 97.59983826 12.97908592 C96.63561951 12.97521873 95.67140076 12.97135155 94.67796326 12.96736717 C93.68796326 12.97896873 92.69796326 12.9905703 91.67796326 13.00252342 C90.16976013 12.98512108 90.16976013 12.98512108 88.63108826 12.96736717 C87.19249451 12.97316795 87.19249451 12.97316795 85.72483826 12.97908592 C84.85182068 12.98246971 83.9788031 12.9858535 83.07933044 12.98933983 C82.36937927 13.11744041 81.6594281 13.245541 80.92796326 13.37752342 C80.26796326 14.36752342 79.60796326 15.35752342 78.92796326 16.37752342 C75.94700623 16.71809959 75.94700623 16.71809959 72.17015076 16.67049217 C71.5070993 16.66624733 70.84404785 16.66200249 70.16090393 16.65762901 C68.04117884 16.64082314 65.92240138 16.60317043 63.80296326 16.56502342 C62.36677906 16.54997892 60.93057998 16.5362901 59.49436951 16.5240078 C55.97192562 16.49091432 52.4500369 16.43912023 48.92796326 16.37752342 C48.43296326 14.89252342 48.43296326 14.89252342 47.92796326 13.37752342 C46.13703134 13.29666195 44.34506698 13.2383964 42.55296326 13.19002342 C41.55522888 13.15521873 40.55749451 13.12041405 39.52952576 13.08455467 C38.24175232 13.2295742 38.24175232 13.2295742 36.92796326 13.37752342 C36.26796326 14.36752342 35.60796326 15.35752342 34.92796326 16.37752342 C33.11315918 16.76279259 33.11315918 16.76279259 30.89305115 16.77815819 C29.64649498 16.79816635 29.64649498 16.79816635 28.37475586 16.81857872 C27.47579086 16.81869453 26.57682587 16.81881035 25.65061951 16.81892967 C24.26718605 16.83874146 24.26718605 16.83874146 22.85580444 16.85895348 C19.90066028 16.89995571 16.94582809 16.92154789 13.99046326 16.94002342 C11.03876433 16.96379066 8.08736034 16.99189657 5.13583374 17.03180504 C3.29736595 17.05620083 1.4587416 17.07102781 -0.37988281 17.07541466 C-1.21407242 17.08560127 -2.04826202 17.09578789 -2.9077301 17.10628319 C-3.64116135 17.11055824 -4.37459259 17.1148333 -5.13024902 17.1192379 C-7.39606625 17.27565774 -7.39606625 17.27565774 -10.07203674 19.37752342 C-10.17996512 16.77225237 -10.25928552 14.17144031 -10.32203674 11.56502342 C-10.37231018 10.458041 -10.37231018 10.458041 -10.42359924 9.3286953 C-10.52281387 3.8470872 -10.52281387 3.8470872 -8.42712498 1.66405809 C-5.43666972 0.03043592 -3.40417285 0.00152978 0 0 Z " fill="#D6428D" transform="translate(83.07203674316406,10.622476577758789)"/>
<path d="M0 0 C1.21989718 -0.01830525 2.43979437 -0.03661051 3.69665813 -0.05547047 C5.82785273 -0.0898753 7.95889978 -0.13954953 10.08920765 -0.20999432 C10.99303527 -0.22228478 11.89686289 -0.23457525 12.82807922 -0.24723816 C13.95487107 -0.27757755 13.95487107 -0.27757755 15.10442638 -0.30852985 C17.53433228 0.14736938 17.53433228 0.14736938 24.53433228 4.14736938 C24.53433228 10.08736938 24.53433228 16.02736938 24.53433228 22.14736938 C-56.31566772 22.14736938 -137.16566772 22.14736938 -220.46566772 22.14736938 C-220.79566772 16.20736938 -221.12566772 10.26736938 -221.46566772 4.14736938 C-213.59066649 0.77236886 -213.59066649 0.77236886 -210.45978069 0.76260853 C-209.38655671 0.74842372 -209.38655671 0.74842372 -208.29165143 0.73395234 C-207.14653591 0.74122371 -207.14653591 0.74122371 -205.97828674 0.74864197 C-205.14943869 0.74199514 -204.32059065 0.73534831 -203.46662599 0.72850007 C-200.70210125 0.70991889 -197.93801127 0.71247231 -195.1734314 0.71499634 C-193.18504733 0.70597442 -191.19666882 0.69564614 -189.20829773 0.68411255 C-183.81042976 0.65651909 -178.41266722 0.64725113 -173.01473784 0.64125848 C-167.34138225 0.63184874 -161.66810422 0.60562798 -155.99479675 0.58125305 C-145.22414949 0.53754163 -134.45351722 0.50904002 -123.68280822 0.48592967 C-111.52756323 0.45909354 -99.37240054 0.41505207 -87.21721303 0.36964095 C-72.35809037 0.31451624 -57.49895551 0.26351681 -42.63978577 0.22288513 C-41.58923553 0.21993472 -40.53868529 0.21698431 -39.4563002 0.21394449 C-34.41336327 0.20036509 -29.3704569 0.1899512 -24.32750225 0.18654346 C-16.21647907 0.17953946 -8.10962001 0.15789257 0 0 Z " fill="#DC98F0" transform="translate(357.4656677246094,273.8526306152344)"/>
<path d="M0 0 C9.9 0 19.8 0 30 0 C30 9.9 30 19.8 30 30 C39.57 30 49.14 30 59 30 C59 20.43 59 10.86 59 1 C68.57 1 78.14 1 88 1 C88 10.57 88 20.14 88 30 C97.9 30 107.8 30 118 30 C118 25.71 118 21.42 118 17 C119.12489586 19.24979172 120.22977627 21.51077203 121.26171875 23.8046875 C124.35306371 30.46166596 127.09848146 34.63287628 133 39 C133 39.33 133 39.66 133 40 C110.03415672 41.29911613 87.06346852 41.13140804 64.0696876 41.10139394 C58.39098784 41.0950672 52.71228734 41.09454933 47.03358459 41.09336853 C36.32108207 41.09028233 25.60858997 41.08210615 14.896092 41.07201904 C2.68292861 41.06077286 -9.53023531 41.05532619 -21.7434026 41.05032361 C-46.8289408 41.03992073 -71.91446981 41.02237478 -97 41 C-96.20171783 40.37932144 -95.40343567 39.75864288 -94.58096313 39.11915588 C-92.23914969 37.19635905 -91.13635323 35.79448531 -89.5859375 33.27734375 C-87.40003505 30.65524104 -86.31080691 30.05633681 -82.89941406 29.43798828 C-79.11226977 29.31045259 -75.41154984 29.39101478 -71.625 29.5625 C-64.880625 29.7790625 -64.880625 29.7790625 -58 30 C-58 20.43 -58 10.86 -58 1 C-48.43 1 -38.86 1 -29 1 C-29 10.57 -29 20.14 -29 30 C-19.43 30 -9.86 30 0 30 C0 20.1 0 10.2 0 0 Z " fill="#DA4390" transform="translate(241,234)"/>
<path d="M0 0 C5.28 0 10.56 0 16 0 C16.04898438 1.60230469 16.09796875 3.20460938 16.1484375 4.85546875 C16.2234844 6.96616274 16.2990314 9.07683899 16.375 11.1875 C16.4059375 12.24259766 16.436875 13.29769531 16.46875 14.38476562 C16.52675781 15.91713867 16.52675781 15.91713867 16.5859375 17.48046875 C16.6173584 18.41785889 16.6487793 19.35524902 16.68115234 20.32104492 C17.02489413 23.20916029 17.70809075 25.39829352 19 28 C22.88375648 30.33025389 26.55293627 30.46811197 31 30 C35.01818782 27.8771838 37.34118577 26.22398113 39 22 C39.36254806 19.49034037 39.36254806 19.49034037 39.4140625 16.796875 C39.44967285 15.91354492 39.4852832 15.03021484 39.52197266 14.12011719 C39.55597168 13.00797852 39.5899707 11.89583984 39.625 10.75 C39.74875 7.2025 39.8725 3.655 40 0 C47.92 0 55.84 0 64 0 C64.48127741 4.24977032 64.96007382 8.4997967 65.4375 12.75 C65.57220703 13.93722656 65.70691406 15.12445313 65.84570312 16.34765625 C65.97783203 17.52714844 66.10996094 18.70664062 66.24609375 19.921875 C66.36654053 20.99018555 66.4869873 22.05849609 66.61108398 23.15917969 C68.16340381 38.48943423 68 52.16418044 68 68 C38.96 68 9.92 68 -20 68 C-20 43.84813025 -20 43.84813025 -13.9375 31.1875 C-13.3352964 29.85573071 -12.73677899 28.52228882 -12.1418457 27.18725586 C-10.98362029 24.60243644 -9.80654912 22.02800957 -8.60742188 19.46191406 C-6.8909151 15.7650632 -5.25516757 12.04034753 -3.64941406 8.29443359 C-2.45390697 5.52049302 -1.22413715 2.76142567 0 0 Z " fill="#40C0DD" transform="translate(97,301)"/>
<path d="M0 0 C7.92 0 15.84 0 24 0 C24.3125 10.6875 24.3125 10.6875 24.38793945 14.0300293 C24.60645647 21.01561227 24.60645647 21.01561227 28 27 C30.3699327 29.09111708 32.00922987 29.95569007 35.18359375 30.09765625 C38.93192759 29.84530537 41.35128943 29.46574092 44.4375 27.25 C48.32048917 21.6584956 48.40084908 16.29528247 48.625 9.6875 C48.66367187 8.75615234 48.70234375 7.82480469 48.7421875 6.86523438 C48.83605826 4.57713461 48.91910082 2.28859511 49 0 C53.95 0 58.9 0 64 0 C68.09287766 8.0963311 71.8992091 16.29674429 75.56494141 24.59472656 C76.34819893 26.34971395 77.14520864 28.09863499 77.95654297 29.84082031 C79.14817055 32.40508219 80.28829254 34.98776214 81.421875 37.578125 C81.78118103 38.32475403 82.14048706 39.07138306 82.51068115 39.84063721 C86.60053122 49.5018608 85 56.40798704 85 68 C55.63 68 26.26 68 -4 68 C-4 53.4672644 -3.8197531 39.405236 -2.5625 25 C-2.42562393 23.33339953 -2.28955612 21.66673247 -2.15429688 20 C-2.02154651 18.39577416 -1.88811047 16.79160487 -1.75390625 15.1875 C-1.6934462 14.46457764 -1.63298615 13.74165527 -1.57069397 12.99682617 C-1.18842157 8.62506495 -0.62214064 4.35498449 0 0 Z " fill="#EC56A9" transform="translate(358,301)"/>
<path d="M0 0 C10.80624733 5.43197781 16.31457821 13.2488181 20.34545898 24.33374023 C22.67485192 35.39835667 19.90953339 45.11898556 13.88452148 54.57202148 C8.74700329 61.24630822 1.31307406 66.04700329 -6.90454102 67.89624023 C-17.48735781 68.94052633 -26.78983753 68.48001648 -35.55688477 61.90795898 C-43.62522941 55.04808887 -49.18410266 47.78196838 -50.31079102 37.01342773 C-50.74776104 24.9201404 -48.03086002 16.20540718 -39.90454102 6.89624023 C-37.79125977 5.20092773 -37.79125977 5.20092773 -35.59204102 3.77124023 C-34.8740332 3.29428711 -34.15602539 2.81733398 -33.41625977 2.32592773 C-23.21692806 -3.47960167 -10.96388015 -4.78817799 0 0 Z " fill="#574D70" transform="translate(139.904541015625,212.103759765625)"/>
<path d="M0 0 C1.03125 0.5775 2.0625 1.155 3.125 1.75 C10.82676136 7.77746541 16.05099746 15.32853457 18 25 C18.96082812 36.5668924 16.33350933 45.96344822 9 55 C3.11032773 61.64475845 -5.17470656 65.69845569 -14.015625 66.44921875 C-21.65975992 66.79370271 -28.43643299 66.23540797 -35 62 C-36.04220703 61.34644531 -36.04220703 61.34644531 -37.10546875 60.6796875 C-45.56684061 54.86943966 -50.72432452 47.01041519 -53 37 C-54.11403853 26.91681449 -53.12012014 18.63894243 -47.08203125 10.375 C-35.60824178 -3.27170181 -16.24294585 -10.08182846 0 0 Z " fill="#574D70" transform="translate(412,214)"/>
<path d="M0 0 C25.08 0 50.16 0 76 0 C76 12.54 76 25.08 76 38 C50.92 38 25.84 38 0 38 C0 25.46 0 12.92 0 0 Z " fill="#584D71" transform="translate(308,403)"/>
<path d="M0 0 C25.08 0 50.16 0 76 0 C76 12.54 76 25.08 76 38 C50.92 38 25.84 38 0 38 C0 25.46 0 12.92 0 0 Z " fill="#584D71" transform="translate(129,403)"/>
<path d="M0 0 C1.02744407 0.97178119 2.03621913 1.96504762 3 3 C2.31035156 3.01417969 1.62070312 3.02835938 0.91015625 3.04296875 C-8.2478246 3.50777711 -14.46530379 6.06325329 -20.875 12.6875 C-26.00263666 19.02863767 -27.63810904 26.49777958 -27.34765625 34.5546875 C-26.32848931 41.72321004 -22.4783108 48.30430503 -17 53 C-11.57357171 56.46215094 -6.42677251 58.58086266 0 59 C0 59.99 0 60.98 0 62 C-8.84444821 66.76239519 -19.0036868 67.77147048 -28.74609375 65.3046875 C-31.00224568 64.37407371 -32.95071273 63.32238578 -35 62 C-36.04220703 61.34644531 -36.04220703 61.34644531 -37.10546875 60.6796875 C-45.56684061 54.86943966 -50.72432452 47.01041519 -53 37 C-54.11403853 26.91681449 -53.12012014 18.63894243 -47.08203125 10.375 C-36.05838037 -2.73631573 -15.68609699 -10.78193793 0 0 Z " fill="#473F5B" transform="translate(412,214)"/>
<path d="M0 0 C1.18215088 0.0009668 1.18215088 0.0009668 2.38818359 0.00195312 C8.867783 0.16724223 13.83442947 1.73402074 19.1875 5.5 C19.1875 5.83 19.1875 6.16 19.1875 6.5 C18.49785156 6.65855469 17.80820313 6.81710938 17.09765625 6.98046875 C7.11662983 9.45861111 -0.01162277 12.18749181 -5.62109375 21.12109375 C-9.43835953 28.74310969 -10.42666621 37.07940465 -7.97265625 45.3203125 C-4.62641713 52.68879864 0.64307009 58.2771889 8.1875 61.375 C12.13890137 62.65293338 16.06005839 63.13147843 20.1875 63.5 C16.86671578 67.51261427 13.22450354 69.47339664 8.1875 70.5 C-2.41859899 71.42275285 -11.66928589 71.10514872 -20.46484375 64.51171875 C-28.5331884 57.65184863 -34.09206164 50.38572815 -35.21875 39.6171875 C-35.65572003 27.52390016 -32.938819 18.80916695 -24.8125 9.5 C-22.69921875 7.8046875 -22.69921875 7.8046875 -20.5 6.375 C-19.78199219 5.89804688 -19.06398438 5.42109375 -18.32421875 4.9296875 C-12.09544622 1.38422755 -7.06775671 -0.05396378 0 0 Z " fill="#473F5B" transform="translate(124.8125,209.5)"/>
<path d="M0 0 C29.04 0 58.08 0 88 0 C88 6.27 88 12.54 88 19 C58.96 19 29.92 19 0 19 C0 12.73 0 6.46 0 0 Z " fill="#149BBD" transform="translate(77,350)"/>
<path d="M0 0 C28.71 0 57.42 0 87 0 C87 5.94 87 11.88 87 18 C58.29 18 29.58 18 0 18 C0 12.06 0 6.12 0 0 Z " fill="#DB428F" transform="translate(355,350)"/>
<path d="M0 0 C0.93392578 -0.02449219 1.86785156 -0.04898437 2.83007812 -0.07421875 C9.03894919 -0.10043495 12.82441066 0.58379331 17.8125 4.375 C22.00971043 9.93858625 21.2989689 16.0247372 21.25854492 22.66723633 C21.25003693 24.80322748 21.27881719 26.93653838 21.31054688 29.07226562 C21.31215936 30.44270754 21.31158045 31.81315414 21.30859375 33.18359375 C21.31137329 35.03682251 21.31137329 35.03682251 21.31420898 36.92749023 C20.62561574 41.65918136 18.74858459 44.82915624 14.99926758 47.82275391 C9.73787533 50.38661781 5.31419793 50.93304849 -0.5 50.75 C-1.29728516 50.74871094 -2.09457031 50.74742188 -2.91601562 50.74609375 C-6.82104644 50.68697638 -8.87606343 50.58262438 -12.1875 48.375 C-12.5617218 46.40161133 -12.5617218 46.40161133 -12.55981445 43.95703125 C-12.56604324 43.04268311 -12.57227203 42.12833496 -12.57868958 41.1862793 C-12.56947983 40.19668213 -12.56027008 39.20708496 -12.55078125 38.1875 C-12.55127975 37.17405518 -12.55177826 36.16061035 -12.55229187 35.11645508 C-12.54994864 32.97117149 -12.54020556 30.82588529 -12.52368164 28.68066406 C-12.50009616 25.388423 -12.50311799 22.0969915 -12.50976562 18.8046875 C-12.50418894 16.72395348 -12.49707912 14.64322289 -12.48828125 12.5625 C-12.48919266 11.57290283 -12.49010406 10.58330566 -12.49104309 9.5637207 C-12.48151108 8.64937256 -12.47197906 7.73502441 -12.4621582 6.79296875 C-12.45755081 5.98625732 -12.45294342 5.1795459 -12.44819641 4.34838867 C-11.65786356 -1.63417887 -4.53385624 0.00613098 0 0 Z " fill="#FEE084" transform="translate(333.1875,22.625)"/>
<path d="M0 0 C0.97324219 -0.03287109 1.94648438 -0.06574219 2.94921875 -0.09960938 C9.50726492 -0.1481548 14.49512606 0.79892157 19.375 5.4375 C22.05453029 9.97347985 21.90440366 14.29006753 21.375 19.4375 C19.7685067 23.7750319 17.64910733 26.25809826 14.375 29.4375 C14.8803125 30.31792969 15.385625 31.19835937 15.90625 32.10546875 C16.56305516 33.27833511 17.21927443 34.45152972 17.875 35.625 C18.5246875 36.77355469 19.174375 37.92210937 19.84375 39.10546875 C21.31230833 42.30108164 21.8836826 43.99929594 21.375 47.4375 C19.6875 49.3125 19.6875 49.3125 17.375 50.4375 C15.03125 50.53515625 15.03125 50.53515625 12.375 49.4375 C10.39190115 46.81665767 9.00091869 43.94624527 7.5625 41 C6.95245117 39.81567383 6.95245117 39.81567383 6.33007812 38.60742188 C3.375 32.78169643 3.375 32.78169643 3.375 30.4375 C1.725 30.4375 0.075 30.4375 -1.625 30.4375 C-1.61339844 31.72527344 -1.60179687 33.01304688 -1.58984375 34.33984375 C-1.5804673 36.01822772 -1.57136695 37.69661326 -1.5625 39.375 C-1.55412109 40.22513672 -1.54574219 41.07527344 -1.53710938 41.95117188 C-1.53388672 42.76005859 -1.53066406 43.56894531 -1.52734375 44.40234375 C-1.52210693 45.1512085 -1.51687012 45.90007324 -1.51147461 46.67163086 C-1.625 48.4375 -1.625 48.4375 -2.625 49.4375 C-4.12238124 49.5354057 -5.62442892 49.56724864 -7.125 49.5625 C-7.9396875 49.56507812 -8.754375 49.56765625 -9.59375 49.5703125 C-11.625 49.4375 -11.625 49.4375 -12.625 48.4375 C-12.72831927 47.00559139 -12.76349886 45.56867197 -12.77026367 44.13305664 C-12.77664352 43.21863297 -12.78302338 42.30420929 -12.78959656 41.36207581 C-12.79070938 40.36731735 -12.7918222 39.3725589 -12.79296875 38.34765625 C-12.79629715 37.33279648 -12.79962555 36.31793671 -12.80305481 35.27232361 C-12.8081285 33.1210882 -12.810463 30.9698449 -12.81030273 28.81860352 C-12.81248834 25.51760964 -12.83063707 22.21695025 -12.84960938 18.91601562 C-12.85254331 16.83073032 -12.8545281 14.74544341 -12.85546875 12.66015625 C-12.86265427 11.66742203 -12.86983978 10.67468781 -12.87724304 9.65187073 C-12.8726281 8.27550697 -12.8726281 8.27550697 -12.86791992 6.87133789 C-12.86934494 6.06161026 -12.87076996 5.25188263 -12.87223816 4.4176178 C-12.11395137 -1.65546237 -4.57367273 0.02662552 0 0 Z " fill="#FEE184" transform="translate(174.625,22.5625)"/>
<path d="M0 0 C0.84256348 0.24447876 0.84256348 0.24447876 1.70214844 0.49389648 C4.13553181 1.02985098 6.27622228 1.11361396 8.765625 1.09765625 C9.65507812 1.09443359 10.54453125 1.09121094 11.4609375 1.08789062 C12.38132812 1.07951172 13.30171875 1.07113281 14.25 1.0625 C15.65378906 1.05573242 15.65378906 1.05573242 17.0859375 1.04882812 C19.39069041 1.03706918 21.69531227 1.02063426 24 1 C24.0761466 7.31706001 24.12864032 13.63400139 24.16479492 19.95141602 C24.17986915 22.09989851 24.20033189 24.2483503 24.22631836 26.39672852 C24.26276114 29.48721908 24.27974019 32.57730231 24.29296875 35.66796875 C24.30845261 36.62648239 24.32393646 37.58499603 24.33988953 38.57255554 C24.3411338 43.51771822 24.31182332 47.03278841 21 51 C16.67895752 54.08645891 13.21614788 54.42171722 8.12109375 53.6484375 C4.77422335 52.62526902 3.08117534 50.73154263 1 48 C0.05662624 45.16987873 -0.12172829 43.45700082 -0.11352539 40.52856445 C-0.11344986 39.62785721 -0.11337433 38.72714996 -0.11329651 37.79914856 C-0.10813522 36.83031235 -0.10297394 35.86147614 -0.09765625 34.86328125 C-0.0962413 33.86870407 -0.09482635 32.87412689 -0.09336853 31.84941101 C-0.08776761 28.67041018 -0.07521496 25.49147957 -0.0625 22.3125 C-0.05748512 20.15820414 -0.05292219 18.00390718 -0.04882812 15.84960938 C-0.03779788 10.56638226 -0.02105886 5.28319615 0 0 Z " fill="#B6C4D2" transform="translate(382,278)"/>
<path d="M0 0 C1.17369141 -0.02513672 1.17369141 -0.02513672 2.37109375 -0.05078125 C5.17778522 0.41449915 5.7831867 1.1071376 7.5625 3.3125 C8.68164062 6.06469727 8.68164062 6.06469727 9.71875 9.37890625 C10.10160156 10.58740234 10.48445313 11.79589844 10.87890625 13.04101562 C11.27360148 14.31895978 11.66813179 15.59695489 12.0625 16.875 C12.64837891 18.7322168 12.64837891 18.7322168 13.24609375 20.62695312 C14.36487628 24.18483224 15.46695112 27.74740671 16.5625 31.3125 C17.02474976 32.80317993 17.02474976 32.80317993 17.49633789 34.32397461 C17.76696045 35.20706299 18.03758301 36.09015137 18.31640625 37 C18.5491626 37.75796875 18.78191895 38.5159375 19.02172852 39.296875 C19.77949548 42.12131023 20.05590431 44.42256044 19.5625 47.3125 C17.875 49.25 17.875 49.25 15.5625 50.3125 C13 50.4375 13 50.4375 10.5625 49.3125 C8.68207103 45.81101158 7.5625 43.3044694 7.5625 39.3125 C2.6125 39.3125 -2.3375 39.3125 -7.4375 39.3125 C-7.7675 41.6225 -8.0975 43.9325 -8.4375 46.3125 C-8.7675 47.3025 -9.0975 48.2925 -9.4375 49.3125 C-15.4921875 49.5078125 -15.4921875 49.5078125 -17.4375 49.3125 C-18.0975 48.6525 -18.7575 47.9925 -19.4375 47.3125 C-19.07285559 41.08039561 -17.03942178 35.24011366 -15.1875 29.3125 C-14.87466064 28.30098877 -14.56182129 27.28947754 -14.23950195 26.24731445 C-13.31334754 23.26651408 -12.37756283 20.2889401 -11.4375 17.3125 C-11.1782373 16.4879834 -10.91897461 15.6634668 -10.65185547 14.81396484 C-5.97586335 0.02943775 -5.97586335 0.02943775 0 0 Z " fill="#FEE184" transform="translate(283.4375,22.6875)"/>
<path d="M0 0 C1.17369141 -0.02513672 1.17369141 -0.02513672 2.37109375 -0.05078125 C5.18799544 0.41619176 5.8947725 0.999663 7.5625 3.3125 C8.7734375 6.25390625 8.7734375 6.25390625 9.9375 9.875 C10.14737549 10.5232373 10.35725098 11.17147461 10.57348633 11.83935547 C12.51005092 17.92035541 14.21671039 24.06739816 15.86279297 30.23266602 C16.88873461 34.048981 18.07814694 37.64449865 19.5625 41.3125 C19.9375 44.4375 19.9375 44.4375 19.5625 47.3125 C17.875 49.25 17.875 49.25 15.5625 50.3125 C13 50.4375 13 50.4375 10.5625 49.3125 C8.68207103 45.81101158 7.5625 43.3044694 7.5625 39.3125 C2.6125 39.3125 -2.3375 39.3125 -7.4375 39.3125 C-7.6540625 41.5090625 -7.6540625 41.5090625 -7.875 43.75 C-8.3125 48.1875 -8.3125 48.1875 -9.4375 49.3125 C-15.89903846 49.67147436 -15.89903846 49.67147436 -19.4375 47.3125 C-18.77730421 41.05801355 -17.05930761 35.30376403 -15.1875 29.3125 C-14.87466064 28.30098877 -14.56182129 27.28947754 -14.23950195 26.24731445 C-13.31334754 23.26651408 -12.37756283 20.2889401 -11.4375 17.3125 C-11.1782373 16.4879834 -10.91897461 15.6634668 -10.65185547 14.81396484 C-5.97586335 0.02943775 -5.97586335 0.02943775 0 0 Z " fill="#FEE184" transform="translate(124.4375,22.6875)"/>
<path d="M0 0 C0.91201172 -0.02449219 1.82402344 -0.04898437 2.76367188 -0.07421875 C9.92762999 -0.10503147 15.34802945 1.24713946 20.66015625 6.22265625 C22.06663466 9.16930874 22.12123582 11.55648409 22.125 14.8125 C22.14433594 15.92496094 22.16367187 17.03742188 22.18359375 18.18359375 C21.5692623 22.13563151 20.58663967 23.63561843 17.6875 26.375 C11.9478665 29.68270809 6.78162379 29.86356458 0.25 29.8125 C-0.65298828 29.83248047 -1.55597656 29.85246094 -2.48632812 29.87304688 C-9.58521339 29.86790648 -14.98986738 28.44661862 -20.27734375 23.55859375 C-22.64466675 18.56488221 -22.09699946 12.72098423 -21.3125 7.375 C-16.89991585 0.00598446 -7.58132604 0.01058106 0 0 Z " fill="#EC56A9" transform="translate(301.3125,335.625)"/>
<path d="M0 0 C0.90298828 -0.01998047 1.80597656 -0.03996094 2.73632812 -0.06054688 C9.64200212 -0.05554639 14.92980591 1.35630921 20.25585938 5.8737793 C22.40920018 8.45078749 21.9965418 11.04104479 22 14.3125 C22.01933594 15.52679688 22.03867188 16.74109375 22.05859375 17.9921875 C21.46495426 22.11494367 20.59919262 23.61244074 17.5625 26.4375 C11.8228665 29.74520809 6.65662379 29.92606458 0.125 29.875 C-0.77798828 29.89498047 -1.68097656 29.91496094 -2.61132812 29.93554688 C-9.71230294 29.93040497 -15.14787946 28.51866933 -20.41015625 23.58984375 C-21.81663466 20.64319126 -21.87123582 18.25601591 -21.875 15 C-21.89433594 13.88753906 -21.91367188 12.77507812 -21.93359375 11.62890625 C-21.3192623 7.67686849 -20.33663967 6.17688157 -17.4375 3.4375 C-11.6978665 0.12979191 -6.53162379 -0.05106458 0 0 Z " fill="#EC56A9" transform="translate(210.4375,335.5625)"/>
<path d="M0 0 C1.87171875 -0.00386719 1.87171875 -0.00386719 3.78125 -0.0078125 C5.74578125 0.00378906 5.74578125 0.00378906 7.75 0.015625 C9.0596875 0.00789063 10.369375 0.00015625 11.71875 -0.0078125 C12.9665625 -0.00523438 14.214375 -0.00265625 15.5 0 C16.64984375 0.00225586 17.7996875 0.00451172 18.984375 0.00683594 C21.75 0.265625 21.75 0.265625 23.75 2.265625 C24 4.765625 24 4.765625 23.75 7.265625 C21.75 9.265625 21.75 9.265625 19.68701172 9.49267578 C18.44588623 9.47696533 18.44588623 9.47696533 17.1796875 9.4609375 C15.83583984 9.45126953 15.83583984 9.45126953 14.46484375 9.44140625 C13.52769531 9.42464844 12.59054687 9.40789063 11.625 9.390625 C10.20767578 9.37708984 10.20767578 9.37708984 8.76171875 9.36328125 C6.42437173 9.33967168 4.08715451 9.30379994 1.75 9.265625 C1.75 13.225625 1.75 17.185625 1.75 21.265625 C6.04 21.265625 10.33 21.265625 14.75 21.265625 C15.08 23.245625 15.41 25.225625 15.75 27.265625 C13.75 29.265625 13.75 29.265625 11.1484375 29.4609375 C8.34895833 29.39583333 5.54947917 29.33072917 2.75 29.265625 C2.75 32.895625 2.75 36.525625 2.75 40.265625 C4.09835937 40.24242187 5.44671875 40.21921875 6.8359375 40.1953125 C8.59895281 40.17655702 10.36197409 40.15835658 12.125 40.140625 C13.01445312 40.12386719 13.90390625 40.10710938 14.8203125 40.08984375 C16.09648437 40.08017578 16.09648437 40.08017578 17.3984375 40.0703125 C18.57672119 40.05460205 18.57672119 40.05460205 19.77880859 40.03857422 C21.75 40.265625 21.75 40.265625 23.75 42.265625 C23.17307692 48.84254808 23.17307692 48.84254808 21.75 50.265625 C17.10984675 50.5197805 12.45878694 50.45085298 7.8125 50.453125 C6.49830078 50.46537109 5.18410156 50.47761719 3.83007812 50.49023438 C2.57775391 50.49216797 1.32542969 50.49410156 0.03515625 50.49609375 C-1.69915649 50.50225708 -1.69915649 50.50225708 -3.46850586 50.50854492 C-6.25 50.265625 -6.25 50.265625 -8.25 48.265625 C-8.50396729 46.29223633 -8.50396729 46.29223633 -8.50878906 43.84765625 C-8.51509338 42.93330811 -8.52139771 42.01895996 -8.52789307 41.0769043 C-8.5238446 40.08730713 -8.51979614 39.09770996 -8.515625 38.078125 C-8.51753845 37.06468018 -8.5194519 36.05123535 -8.52142334 35.00708008 C-8.52278591 32.86181388 -8.51908447 30.71653947 -8.51074219 28.57128906 C-8.50004382 25.27910928 -8.51063519 21.98747522 -8.5234375 18.6953125 C-8.52211592 16.61458212 -8.51955355 14.53385209 -8.515625 12.453125 C-8.51967346 11.46352783 -8.52372192 10.47393066 -8.52789307 9.4543457 C-8.52158875 8.53999756 -8.51528442 7.62564941 -8.50878906 6.68359375 C-8.50719788 5.87688232 -8.50560669 5.0701709 -8.50396729 4.23901367 C-7.86852862 -0.69850203 -4.03754692 0.0079212 0 0 Z " fill="#FEE085" transform="translate(383.25,22.734375)"/>
<path d="M0 0 C2.29981204 1.58284426 3.50257835 2.51646048 4.62890625 5.12109375 C4.90570271 8.14456279 4.94757346 11.09988344 4.62890625 14.12109375 C3.62890625 15.12109375 3.62890625 15.12109375 1.78125 15.21875 C-0.26953125 15.18619792 -2.3203125 15.15364583 -4.37109375 15.12109375 C-4.72171875 13.98671875 -5.07234375 12.85234375 -5.43359375 11.68359375 C-6.17634902 9.73668607 -6.17634902 9.73668607 -7.37109375 8.12109375 C-10.86321122 6.88356067 -10.86321122 6.88356067 -14.37109375 7.12109375 C-17.0559654 9.8059654 -16.62878824 11.18586356 -16.63671875 14.93359375 C-16.63929688 16.09117188 -16.641875 17.24875 -16.64453125 18.44140625 C-16.63679687 19.65570313 -16.6290625 20.87 -16.62109375 22.12109375 C-16.62882813 23.33539063 -16.6365625 24.5496875 -16.64453125 25.80078125 C-16.64195312 26.95835938 -16.639375 28.1159375 -16.63671875 29.30859375 C-16.63446289 30.37464844 -16.63220703 31.44070312 -16.62988281 32.5390625 C-16.62990173 35.28432836 -16.62990173 35.28432836 -14.37109375 37.12109375 C-10.77430309 36.79782822 -10.77430309 36.79782822 -7.37109375 36.12109375 C-6.38109375 33.48109375 -5.39109375 30.84109375 -4.37109375 28.12109375 C1.78125 28.0234375 1.78125 28.0234375 3.62890625 28.12109375 C5.16862453 29.66081203 4.94670332 31.10595046 5.06640625 33.24609375 C5.01344511 37.98989913 3.63249053 40.41862077 0.328125 43.74609375 C-3.98642996 47.23741178 -8.77753374 47.51523846 -14.12890625 47.37109375 C-19.02747309 46.82491208 -22.37914701 45.16524821 -25.74609375 41.62109375 C-29.33241116 36.10368235 -28.62827443 30.20878779 -28.66625977 23.83422852 C-28.68344393 21.82610183 -28.72734799 19.81826201 -28.77148438 17.81054688 C-28.77986328 16.53501953 -28.78824219 15.25949219 -28.796875 13.9453125 C-28.81145752 12.78088623 -28.82604004 11.61645996 -28.84106445 10.41674805 C-28.15828621 5.62878778 -25.91630456 2.52144105 -22.37109375 -0.69140625 C-15.55466373 -4.73866158 -6.63615926 -3.8744445 0 0 Z " fill="#FEE084" transform="translate(243.37109375,25.87890625)"/>
<path d="M0 0 C9.57 0 19.14 0 29 0 C29 9.57 29 19.14 29 29 C19.43 29 9.86 29 0 29 C0 19.43 0 9.86 0 0 Z " fill="#DA4390" transform="translate(271,176)"/>
<path d="M0 0 C9.57 0 19.14 0 29 0 C29 9.57 29 19.14 29 29 C19.43 29 9.86 29 0 29 C0 19.43 0 9.86 0 0 Z " fill="#DA4390" transform="translate(212,176)"/>
<path d="M0 0 C24.42 0 48.84 0 74 0 C74 3.3 74 6.6 74 10 C49.58 10 25.16 10 0 10 C0 6.7 0 3.4 0 0 Z " fill="#463F5C" transform="translate(309,403)"/>
<path d="M0 0 C24.42 0 48.84 0 74 0 C74 3.3 74 6.6 74 10 C49.58 10 25.16 10 0 10 C0 6.7 0 3.4 0 0 Z " fill="#463F5C" transform="translate(130,403)"/>
<path d="M0 0 C7.425 0.99 7.425 0.99 15 2 C14.01 2.33 13.02 2.66 12 3 C12 19.5 12 36 12 53 C13.485 53.495 13.485 53.495 15 54 C10.01530948 54.29321709 6.95179356 54.18338925 3 51 C0.40243361 47.36809792 -0.36745842 44.9250191 -0.29296875 40.48046875 C-0.28330078 39.45888672 -0.27363281 38.43730469 -0.26367188 37.38476562 C-0.23853516 36.32966797 -0.21339844 35.27457031 -0.1875 34.1875 C-0.16719727 32.57584961 -0.16719727 32.57584961 -0.14648438 30.93164062 C-0.11122976 28.28754459 -0.05742566 25.64370744 0 23 C-5.28 23 -10.56 23 -16 23 C-16 22.67 -16 22.34 -16 22 C-10.72 22 -5.44 22 0 22 C0 14.74 0 7.48 0 0 Z " fill="#B5C5D4" transform="translate(113,278)"/>
<path d="M0 0 C0.0761466 6.31706001 0.12864032 12.63400139 0.16479492 18.95141602 C0.17986915 21.09989851 0.20033189 23.2483503 0.22631836 25.39672852 C0.26276114 28.48721908 0.27974019 31.57730231 0.29296875 34.66796875 C0.30845261 35.62648239 0.32393646 36.58499603 0.33988953 37.57255554 C0.34113155 42.50878654 0.32767026 46.05420172 -3 50 C-6 52 -6 52 -12 52 C-12 35.5 -12 19 -12 2 C-4 0 -4 0 0 0 Z " fill="#D5DEE7" transform="translate(406,279)"/>
<path d="M0 0 C0.07423798 6.17469663 0.12864413 12.34913261 0.16479492 18.52416992 C0.17986772 20.62415086 0.20032941 22.7241004 0.22631836 24.82397461 C0.26276754 27.84496824 0.27974159 30.86554511 0.29296875 33.88671875 C0.30845261 34.82335861 0.32393646 35.75999847 0.33988953 36.72502136 C0.34115782 41.65358016 0.2251189 45.00368913 -3 49 C-6.31427153 52.20379581 -6.99733338 52 -12 52 C-12 35.5 -12 19 -12 2 C-4 0 -4 0 0 0 Z " fill="#D5DEE7" transform="translate(137,279)"/>
<path d="M0 0 C0.53109375 0.27714844 1.0621875 0.55429687 1.609375 0.83984375 C2.31578125 1.20207031 3.0221875 1.56429688 3.75 1.9375 C4.79414063 2.47697266 4.79414063 2.47697266 5.859375 3.02734375 C13.27461507 6.39667728 23.85544525 6.12377508 31.75390625 4.3984375 C34.04417415 3.58174265 34.04417415 3.58174265 37 2 C38.33285951 1.33238653 39.66608847 0.66550901 41 0 C41.29031348 3.38053914 41.42424581 6.62724584 41 10 C37.76343938 13.69892643 33.67456724 15.73315504 28.75854492 16.22363281 C26.06529451 16.34181417 23.38327179 16.37123758 20.6875 16.375 C19.77548828 16.39949219 18.86347656 16.42398437 17.92382812 16.44921875 C11.74527131 16.47579319 7.16711862 15.48010945 2 12 C0 10 0 10 -0.1953125 7.6171875 C-0.17210937 6.71226562 -0.14890625 5.80734375 -0.125 4.875 C-0.10695312 3.96492188 -0.08890625 3.05484375 -0.0703125 2.1171875 C-0.04710937 1.41851562 -0.02390625 0.71984375 0 0 Z " fill="#DB4490" transform="translate(190,349)"/>
<path d="M0 0 C0.53109375 0.27714844 1.0621875 0.55429687 1.609375 0.83984375 C2.31578125 1.20207031 3.0221875 1.56429688 3.75 1.9375 C4.79414063 2.47697266 4.79414063 2.47697266 5.859375 3.02734375 C13.27461507 6.39667728 23.85544525 6.12377508 31.75390625 4.3984375 C34.04417415 3.58174265 34.04417415 3.58174265 37 2 C38.33285951 1.33238653 39.66608847 0.66550901 41 0 C41.29031348 3.38053914 41.42424581 6.62724584 41 10 C37.76343938 13.69892643 33.67456724 15.73315504 28.75854492 16.22363281 C26.06529451 16.34181417 23.38327179 16.37123758 20.6875 16.375 C19.77548828 16.39949219 18.86347656 16.42398437 17.92382812 16.44921875 C11.74527131 16.47579319 7.16711862 15.48010945 2 12 C0 10 0 10 -0.1953125 7.6171875 C-0.17210937 6.71226562 -0.14890625 5.80734375 -0.125 4.875 C-0.10695313 3.96492188 -0.08890625 3.05484375 -0.0703125 2.1171875 C-0.04710937 1.41851562 -0.02390625 0.71984375 0 0 Z " fill="#DB4490" transform="translate(281,349)"/>
<path d="M0 0 C17.16 0 34.32 0 52 0 C52 2.31 52 4.62 52 7 C34.84 7 17.68 7 0 7 C0 4.69 0 2.38 0 0 Z " fill="#47405C" transform="translate(320,423)"/>
<path d="M0 0 C17.16 0 34.32 0 52 0 C52 2.31 52 4.62 52 7 C34.84 7 17.68 7 0 7 C0 4.69 0 2.38 0 0 Z " fill="#47405C" transform="translate(141,423)"/>
<path d="M0 0 C8 0 8 0 10.46899414 1.66992188 C12.29330835 4.44639371 12.50276796 5.97780378 12.49609375 9.28125 C12.49673828 10.28800781 12.49738281 11.29476562 12.49804688 12.33203125 C12.47806641 13.37746094 12.45808594 14.42289063 12.4375 15.5 C12.44458984 16.54542969 12.45167969 17.59085938 12.45898438 18.66796875 C12.39763377 26.03947944 12.39763377 26.03947944 11.03540039 29.33007812 C9 31 9 31 0 31 C0 20.77 0 10.54 0 0 Z " fill="#ED57A8" transform="translate(332,32)"/>
<path d="M0 0 C8.19057816 -0.48179872 8.19057816 -0.48179872 11.625 1.5625 C13.5994537 5.06266793 13.05489746 7.20236913 12 11 C7.7975546 13.80163026 4.99895065 13.14489712 0 13 C0 8.71 0 4.42 0 0 Z " fill="#ED5CA7" transform="translate(173,32)"/>
<path d="M0 0 C2.86632944 2.86632944 3.2315668 6.29316426 4.125 10.125 C4.30675781 10.87910156 4.48851562 11.63320313 4.67578125 12.41015625 C5.12354709 14.27191946 5.56260722 16.13577253 6 18 C2.7 18 -0.6 18 -4 18 C-2.66666667 12 -1.33333333 6 0 0 Z " fill="#EE5FA6" transform="translate(283,36)"/>
<path d="M0 0 C2.40118527 2.40118527 2.75220861 4.05496042 3.625 7.3125 C3.88539062 8.25738281 4.14578125 9.20226563 4.4140625 10.17578125 C4.97479648 12.87851902 5.1101876 15.25031848 5 18 C2.03 18 -0.94 18 -4 18 C-2.66666667 12 -1.33333333 6 0 0 Z " fill="#EE5EA6" transform="translate(124,36)"/>
<path d="M0 0 C1.12781025 1.69171538 2.25263933 3.38545543 3.3671875 5.0859375 C6.08374563 9.21003871 8.82149753 13.21024706 12 17 C8.70402357 16.70036578 6.49281602 16.34223335 3.75 14.4375 C0.57272088 10.01200408 0 5.36294528 0 0 Z " fill="#D24792" transform="translate(91,256)"/>
</svg>
