<?xml version="1.0" encoding="UTF-8"?>
<svg version="1.1" xmlns="http://www.w3.org/2000/svg" width="512" height="512">
<path d="M0 0 C0.6796582 0.1556543 1.35931641 0.31130859 2.05957031 0.47167969 C19.50250878 4.58798311 35.60787261 12.72760682 50.1640625 23.06640625 C55.73956991 26.86788858 61.45957909 26.57092249 68 26 C72.16645066 24.83872938 75.49137753 22.33477311 79.07421875 19.9765625 C80.23643418 19.21271181 81.39921636 18.4497229 82.5625 17.6875 C83.15683838 17.29755859 83.75117676 16.90761719 84.36352539 16.50585938 C106.19187957 2.43837591 106.19187957 2.43837591 116.8125 4.5625 C122.16017933 8.07668927 123.95359255 13.01542067 125.65625 18.93359375 C125.88526001 19.68915054 126.11427002 20.44470734 126.35021973 21.22315979 C127.07760222 23.62485788 127.79037077 26.03050134 128.5 28.4375 C129.21009383 30.84076452 129.9236814 33.24264774 130.64978027 35.64112854 C131.1000774 37.12864372 131.54146642 38.61889581 131.97229004 40.11216736 C134.27391109 47.71845614 137.99952364 52.66011564 144.63208008 57.09008789 C148.15533298 58.44395567 151.66354866 58.29840904 155.38671875 58.30859375 C157.06445637 58.33376897 158.74219066 58.35916676 160.41992188 58.38476562 C163.04841121 58.41339201 165.67684236 58.43742347 168.30541992 58.45629883 C170.85366647 58.47814849 173.40121797 58.51761414 175.94921875 58.55859375 C177.10752449 58.55876747 177.10752449 58.55876747 178.28923035 58.5589447 C185.07749281 58.68012691 191.46109196 59.86500915 196.75 64.3125 C197.4925 65.199375 198.235 66.08625 199 67 C199.83144531 67.97582031 200.66289062 68.95164062 201.51953125 69.95703125 C202.33808594 70.96121094 203.15664063 71.96539062 204 73 C204.78761719 73.95261719 205.57523437 74.90523438 206.38671875 75.88671875 C207.89429079 77.72191256 209.39334017 79.56414846 210.8828125 81.4140625 C213.42064642 84.51377847 216.07827449 87.48900234 218.78515625 90.44140625 C220 92 220 92 220 94 C230.39172829 98.49372034 242.97369892 95.4378361 253.796875 94.06640625 C259.53928607 93.37652849 265.25630099 92.83864068 271.0390625 92.65625 C272.06467285 92.62337891 273.0902832 92.59050781 274.14697266 92.55664062 C277.78081563 93.12133845 279.40940027 94.43770337 282 97 C283.84800404 102.54401211 283.24426269 108.57011255 283.25 114.375 C283.25100708 115.07295685 283.25201416 115.7709137 283.25305176 116.49002075 C283.24130239 128.53501992 282.37759954 140.17668128 280 152 C279.86609863 152.69512695 279.73219727 153.39025391 279.59423828 154.10644531 C274.99704328 177.23172928 263.44594582 197.95978148 251.5 218 C231.78631196 251.08681735 221.5245118 282.23206866 220.71020508 320.99609375 C219.96218026 355.04944132 216.08843369 391.17098208 193 418 C192.46246094 418.66 191.92492187 419.32 191.37109375 420 C184.59057497 427.61321407 172.9148727 434.24272341 162.75195312 435.21508789 C152.65575218 435.71847422 143.12957501 435.81295552 134 431 C133.16597656 430.5875 132.33195312 430.175 131.47265625 429.75 C98.04121598 411.61769341 87.86451112 363.08668505 77 330 C76.0925 330.474375 75.185 330.94875 74.25 331.4375 C67.03014517 334.90858405 59.54986801 335.05536812 51.9375 332.5625 C48.20441989 331.20441989 48.20441989 331.20441989 47 330 C46.42668945 331.71376831 46.42668945 331.71376831 45.84179688 333.4621582 C44.38788026 337.80172644 42.92424046 342.13796789 41.45800781 346.47338867 C40.83110452 348.33125267 40.20665659 350.18994744 39.58496094 352.04956055 C23.53078448 400.04323531 23.53078448 400.04323531 8 417 C7.36449219 417.71542969 6.72898438 418.43085938 6.07421875 419.16796875 C1.31227439 424.25437425 -3.79866425 427.84804288 -10 431 C-10.78503906 431.41507812 -11.57007813 431.83015625 -12.37890625 432.2578125 C-22.49801948 436.78686787 -36.56487074 436.92664009 -47.0625 433.4375 C-66.6337309 424.69486551 -78.4614356 408.6212079 -86 389 C-92.86975383 369.5143363 -95.85263758 349.94292469 -96.29003906 329.33105469 C-96.7740793 307.14865889 -98.20232869 285.26069627 -105 264 C-105.19899902 263.35546875 -105.39799805 262.7109375 -105.60302734 262.046875 C-111.43020936 243.56788339 -121.73578084 226.49654565 -131.75146484 210.03173828 C-143.96885615 189.92691298 -152.88772406 169.28422181 -157 146 C-157.22429687 144.82953125 -157.44859375 143.6590625 -157.6796875 142.453125 C-160.82440776 122.72323627 -161.4883039 99.08496596 -155 80 C-154.77505859 79.33774414 -154.55011719 78.67548828 -154.31835938 77.99316406 C-143.42210371 47.00037075 -120.69523861 23.60358631 -91.50390625 9.28515625 C-62.91669859 -3.46713956 -30.63569719 -7.36023731 0 0 Z " fill="#FAF0CE" transform="translate(165,77)"/>
<path d="M0 0 C-1.2375 1.423125 -1.2375 1.423125 -2.5 2.875 C-3.66946957 4.24761686 -4.83586641 5.62285473 -6 7 C-6.62648438 7.73734375 -7.25296875 8.4746875 -7.8984375 9.234375 C-34.20969969 41.05748263 -41.54959286 79.97101383 -38.78173828 120.16992188 C-38.17006405 126.50381392 -37.16192197 132.74615978 -36 139 C-35.83902832 139.90169922 -35.67805664 140.80339844 -35.51220703 141.73242188 C-29.75408206 173.26106005 -17.55132307 203.08441513 -2 231 C-1.93522461 230.11574341 -1.93522461 230.11574341 -1.86914062 229.21362305 C-1.17150022 221.38356959 1.082937 215.39245635 7.1875 210.10546875 C11.97882318 206.77906026 16.86577935 203.59118861 22.875 204.375 C23.57625 204.58125 24.2775 204.7875 25 205 C25 205.66 25 206.32 25 207 C25.57234375 207.27714844 26.1446875 207.55429687 26.734375 207.83984375 C29 209 29 209 31.015625 210.25390625 C36.64820426 213.55270704 40.99717779 214.26558302 47.375 214.3125 C54.29968026 214.44689033 54.29968026 214.44689033 56.9140625 216.51171875 C58.12277027 218.72478442 58.62957805 220.50807049 59 223 C59.1134375 223.7425 59.226875 224.485 59.34375 225.25 C59.7380302 230.92763489 58.31862829 235.40641847 55 240 C48.99670149 246.77791767 41.96341553 250.71899571 32.8984375 251.37890625 C24.85255533 251.70952242 17.98933938 251.39036234 11 247 C10.09765625 246.45988281 9.1953125 245.91976562 8.265625 245.36328125 C7.51796875 244.91339844 6.7703125 244.46351563 6 244 C16.86388774 260.69545691 29.01904978 276.1455525 42.69726562 290.61816406 C43.74974622 291.7345509 44.79076776 292.86173409 45.828125 293.9921875 C57.05526813 305.8430608 71.61417781 315.53359418 86 323 C85.78830925 322.39206163 85.5766185 321.78412327 85.35851288 321.15776253 C83.35151134 315.0230342 82.55788024 309.61109342 82.58007812 303.17919922 C82.57160858 302.25424652 82.56313904 301.32929382 82.55441284 300.37631226 C82.53122213 297.35229333 82.53001601 294.32878818 82.53125 291.3046875 C82.52414025 289.18579916 82.51644007 287.06691273 82.50817871 284.94802856 C82.49477706 280.52177565 82.49314689 276.09570104 82.49902344 271.66943359 C82.50493128 266.0091047 82.47426236 260.34963004 82.43390656 254.68946648 C82.40801652 250.31929955 82.40515305 245.94933841 82.40879822 241.57910538 C82.40710983 239.49238046 82.39749455 237.40564576 82.37965393 235.31899643 C82.35742641 232.39942302 82.36718382 229.48158107 82.38476562 226.56201172 C82.37150238 225.70881348 82.35823914 224.85561523 82.34457397 223.9765625 C82.43026142 217.82792988 84.16338109 213.80315995 88 209 C90.02734375 207.1953125 90.02734375 207.1953125 91.9375 206.125 C92.56527344 205.75632812 93.19304687 205.38765625 93.83984375 205.0078125 C103.1024808 200.6863652 112.86843749 200.70637592 122.5625 203.75 C128.97722102 206.19492023 132.74755677 208.82639758 136.14537048 214.93071365 C137.71070472 218.72080597 137.5553586 222.50736779 137.51757812 226.55615234 C137.5245874 227.48881424 137.53159668 228.42147614 137.53881836 229.38240051 C137.55635273 232.45055349 137.54478963 235.51777592 137.53125 238.5859375 C137.53394667 240.72913794 137.53783055 242.87233718 137.54284668 245.01553345 C137.54873596 249.50266187 137.5401986 253.98947124 137.52148438 258.4765625 C137.49872306 264.2119056 137.51180407 269.94649874 137.53577423 275.68181419 C137.55027101 280.10693955 137.54560793 284.53188897 137.53526306 288.95701981 C137.53260507 291.07080805 137.5358327 293.18461256 137.54518127 295.29838181 C137.5554076 298.26103371 137.53975947 301.22249474 137.51757812 304.18505859 C137.52567505 305.04872543 137.53377197 305.91239227 137.54211426 306.80223083 C137.43351671 314.68209784 134.91624686 321.54022498 129.5 327.375 C128.9328125 328.00148438 128.365625 328.62796875 127.78125 329.2734375 C122.56706409 334.32753875 117.3748309 336.06483497 110.125 336.3125 C105.35791481 336.2248966 98.55923184 335.55923184 95 332 C94.42668945 333.71376831 94.42668945 333.71376831 93.84179688 335.4621582 C92.38788026 339.80172644 90.92424046 344.13796789 89.45800781 348.47338867 C88.83110452 350.33125267 88.20665659 352.18994744 87.58496094 354.04956055 C71.53078448 402.04323531 71.53078448 402.04323531 56 419 C55.36449219 419.71542969 54.72898438 420.43085938 54.07421875 421.16796875 C49.31227439 426.25437425 44.20133575 429.84804288 38 433 C37.21496094 433.41507812 36.42992187 433.83015625 35.62109375 434.2578125 C25.50198052 438.78686787 11.43512926 438.92664009 0.9375 435.4375 C-18.6337309 426.69486551 -30.4614356 410.6212079 -38 391 C-44.86975383 371.5143363 -47.85263758 351.94292469 -48.29003906 331.33105469 C-48.7740793 309.14865889 -50.20232869 287.26069627 -57 266 C-57.19899902 265.35546875 -57.39799805 264.7109375 -57.60302734 264.046875 C-63.43020936 245.56788339 -73.73578084 228.49654565 -83.75146484 212.03173828 C-95.96885615 191.92691298 -104.88772406 171.28422181 -109 148 C-109.22429687 146.82953125 -109.44859375 145.6590625 -109.6796875 144.453125 C-112.82440776 124.72323627 -113.4883039 101.08496596 -107 82 C-106.77505859 81.33774414 -106.55011719 80.67548828 -106.31835938 79.99316406 C-95.42210371 49.00037075 -72.69523861 25.60358631 -43.50390625 11.28515625 C-30.32111636 5.40452466 -14.65023877 -0.7919048 0 0 Z " fill="#F9DFBC" transform="translate(117,75)"/>
<path d="M0 0 C21.2362517 5.11432896 40.58724972 15.33383233 57.0859375 29.60449219 C58.29443359 30.61382813 58.29443359 30.61382813 59.52734375 31.64355469 C82.30449655 51.24830279 98.61941829 80.38963184 101.0859375 110.60449219 C101.23928005 114.16832493 101.27091679 117.72519027 101.2734375 121.29199219 C101.28568359 122.21560547 101.29792969 123.13921875 101.31054688 124.09082031 C101.32343497 130.05800666 101.15915673 134.34834184 96.9609375 138.91699219 C92.15399836 141.73845647 87.10247017 140.99572437 81.87646484 139.65820312 C80.38818199 139.2301396 78.90337697 138.78983961 77.421875 138.33886719 C76.22831894 137.98686249 76.22831894 137.98686249 75.01065063 137.62774658 C73.34014105 137.13201101 71.671233 136.63084912 70.00390625 136.12451172 C67.4653808 135.35583763 64.92092535 134.60995889 62.375 133.86621094 C60.74438785 133.37927993 59.11416516 132.89104241 57.484375 132.40136719 C56.73110931 132.18140076 55.97784363 131.96143433 55.20175171 131.73480225 C49.11086977 129.85998471 43.36153237 127.37287027 40.0859375 121.60449219 C39.02346285 118.80349675 38.18049801 115.9524702 37.34375 113.07714844 C36.82985045 111.38105656 36.31551397 109.68509702 35.80078125 107.98925781 C35.00282461 105.32702895 34.2099116 102.6635061 33.42529297 99.99731445 C32.66195235 97.41537089 31.87910353 94.83996755 31.09375 92.26464844 C30.86648224 91.47179947 30.63921448 90.6789505 30.40505981 89.86207581 C28.57799258 83.92896333 26.0231616 80.28543369 20.4921875 77.12011719 C19.533125 76.70246094 18.5740625 76.28480469 17.5859375 75.85449219 C16.46058594 75.355625 15.33523438 74.85675781 14.17578125 74.34277344 C11.05269519 73.00408179 7.91544618 71.70050045 4.77734375 70.39746094 C3.84921875 70.00848633 2.92109375 69.61951172 1.96484375 69.21875 C0.12150741 68.44856266 -1.72604765 67.68837695 -3.578125 66.93945312 C-11.1867361 63.7691985 -16.69739927 60.52373326 -20.20800781 52.7421875 C-21.4009917 49.13023491 -21.41903635 45.75236651 -21.2890625 41.97949219 C-21.27472168 41.17552002 -21.26038086 40.37154785 -21.24560547 39.54321289 C-21.07518 32.9452224 -20.59900178 26.36715341 -20.0390625 19.79199219 C-19.96091309 18.86757324 -19.88276367 17.9431543 -19.80224609 16.99072266 C-19.25441941 11.29353465 -18.49191267 6.21137507 -15.4765625 1.22949219 C-10.65814528 -1.82608946 -5.44502427 -1.12511981 0 0 Z " fill="#F9DFBC" transform="translate(360.9140625,0.3955078125)"/>
<path d="M0 0 C4.43379929 2.67875374 7.03263319 6.23647943 9 11 C9.55064894 14.19403788 9.54776851 17.32076785 9.51757812 20.55615234 C9.5245874 21.48881424 9.53159668 22.42147614 9.53881836 23.38240051 C9.55635273 26.45055349 9.54478963 29.51777592 9.53125 32.5859375 C9.53394667 34.72913794 9.53783055 36.87233718 9.54284668 39.01553345 C9.54873596 43.50266187 9.5401986 47.98947124 9.52148438 52.4765625 C9.49872306 58.2119056 9.51180407 63.94649874 9.53577423 69.68181419 C9.55027101 74.10693955 9.54560793 78.53188897 9.53526306 82.95701981 C9.53260507 85.07080805 9.5358327 87.18461256 9.54518127 89.29838181 C9.5554076 92.26103371 9.53975947 95.22249474 9.51757812 98.18505859 C9.52567505 99.04872543 9.53377197 99.91239227 9.54211426 100.80223083 C9.43351671 108.68209784 6.91624686 115.54022498 1.5 121.375 C0.9328125 122.00148438 0.365625 122.62796875 -0.21875 123.2734375 C-5.43293591 128.32753875 -10.6251691 130.06483497 -17.875 130.3125 C-25.33780458 130.09766169 -30.80727391 128.49209349 -36.3125 123.3125 C-41.70211855 117.48269348 -45.08944823 110.95379528 -45.15390015 102.92828369 C-45.16250061 102.12658752 -45.17110107 101.32489136 -45.17996216 100.49890137 C-45.18422211 99.62817993 -45.18848206 98.7574585 -45.19287109 97.86035156 C-45.20104858 96.93627502 -45.20922607 96.01219849 -45.21765137 95.06011963 C-45.24245274 92.00362794 -45.25900774 88.94718253 -45.2734375 85.890625 C-45.27876118 84.84515251 -45.28408485 83.79968002 -45.28956985 82.72252655 C-45.31627825 77.1890486 -45.33566079 71.65559304 -45.35009766 66.12207031 C-45.36343796 61.54764821 -45.39129607 56.97367206 -45.43212891 52.39941406 C-45.48148047 46.87045698 -45.50622174 41.34190445 -45.51332474 35.81273651 C-45.52003072 33.70924208 -45.53523571 31.60575644 -45.55921555 29.502388 C-45.59091739 26.55352466 -45.59089616 23.60621633 -45.58349609 20.65722656 C-45.59990143 19.79460205 -45.61630676 18.93197754 -45.63320923 18.04321289 C-45.56993098 11.85895157 -43.86734714 7.82719614 -40 3 C-37.97265625 1.1953125 -37.97265625 1.1953125 -36.0625 0.125 C-35.12083984 -0.42800781 -35.12083984 -0.42800781 -34.16015625 -0.9921875 C-22.9550393 -6.21989125 -11.0797189 -5.01101528 0 0 Z " fill="#4E5660" transform="translate(245,281)"/>
<path d="M0 0 C6.04897197 4.68013133 9.84005351 11.16933324 11 18.71484375 C11.8867109 27.36390904 10.03683909 35.02004177 4.75 42.02734375 C-1.74036725 48.37020266 -8.6414111 51.72968271 -17.75 52.08984375 C-25.71407561 51.95133809 -33.34557889 49.52633211 -39 43.71484375 C-45.33646806 35.40914753 -48.14501603 28.24899124 -47 17.71484375 C-45.04567601 10.07521361 -41.37039424 3.64110772 -34.75390625 -0.7890625 C-23.38469672 -7.34175962 -11.15075711 -7.1652326 0 0 Z " fill="#FEFEFE" transform="translate(309,238.28515625)"/>
<path d="M0 0 C7.12259692 7.44635133 10.15299203 14.97248138 10.03125 25.18359375 C9.26693865 32.49762879 5.95294316 38.79030555 0.75 43.875 C-7.63831239 50.1097912 -15.83605843 52.07284774 -26.25 50.875 C-35.32033611 47.90875495 -41.33189048 41.86244064 -46.25 33.875 C-49.17087975 27.75506147 -49.22782271 20.69739788 -47.5625 14.1875 C-44.34343412 5.38871994 -39.6297319 0.18145445 -31.3984375 -4.1796875 C-20.65604762 -8.90633905 -9.44048439 -6.17262441 0 0 Z " fill="#FEFEFE" transform="translate(182.25,239.125)"/>
<path d="M0 0 C0 0.66 0 1.32 0 2 C0.57234375 2.27714844 1.1446875 2.55429687 1.734375 2.83984375 C4 4 4 4 6.015625 5.25390625 C11.64820426 8.55270704 15.99717779 9.26558302 22.375 9.3125 C29.29968026 9.44689033 29.29968026 9.44689033 31.9140625 11.51171875 C33.12277027 13.72478442 33.62957805 15.50807049 34 18 C34.1134375 18.7425 34.226875 19.485 34.34375 20.25 C34.7380302 25.92763489 33.31862829 30.40641847 30 35 C23.99670149 41.77791767 16.96341553 45.71899571 7.8984375 46.37890625 C-2.7114805 46.8197161 -10.0385898 45.44191598 -18.375 38.5625 C-23.59943805 33.70159144 -26.00475962 28.98243296 -26.4375 21.875 C-26.33890726 15.89042042 -23.76279282 11.53228011 -20 7 C-14.31086348 2.0815843 -7.66384731 -2.25407274 0 0 Z " fill="#EDA1AB" transform="translate(142,280)"/>
<path d="M0 0 C7.27929679 0.74659454 14.85026511 3.70721692 20 9 C23.84533367 14.1874723 25.8614418 18.93665584 25.4765625 25.44921875 C24.25588007 31.98287144 21.39813061 37.27516194 16.1875 41.4375 C6.56020427 47.71926597 -3.55071786 48.43817568 -14.75390625 46.53125 C-22.32941451 44.31788411 -29.2181232 39.38478705 -33.15234375 32.4765625 C-35.23407887 26.39444237 -35.4615271 18.12688609 -32.875 12.125 C-28.61845923 8.97886117 -24.77967516 9.81360941 -19.62109375 10.0390625 C-12.44564426 9.96165744 -6.14778819 6.9817305 -1 2 C-0.67 1.34 -0.34 0.68 0 0 Z " fill="#EDA1AB" transform="translate(313,279)"/>
<path d="M0 0 C2.33092033 1.15794107 4.63916948 2.33998377 6.9375 3.5625 C9.72481386 4.870831 11.99914383 5.46685296 15 6 C15.12439375 10.83795988 15.2147079 15.67497181 15.2746582 20.51416016 C15.29967054 22.15722894 15.33369226 23.80018794 15.37719727 25.44287109 C15.81216064 42.29898106 15.81216064 42.29898106 11.65478516 47.47998047 C8.37840724 50.48953032 4.8346912 52.76450346 1 55 C0.09233887 55.55526367 -0.81532227 56.11052734 -1.75048828 56.68261719 C-4.66649421 58.4525017 -7.60948268 60.16769633 -10.5625 61.875 C-11.55185547 62.46796875 -12.54121094 63.0609375 -13.56054688 63.671875 C-19.35733057 67.01069932 -23.2843802 68.87695379 -30 68 C-32 67 -32 67 -33 65 C-33.70779977 59.42607683 -33.70779977 59.42607683 -33 57 C-29.45370622 53.71631971 -26.19402116 52.17941244 -21.640625 50.6640625 C-9.96259005 46.29654237 -9.96259005 46.29654237 -1 38 C3.39811453 26.48004338 1.24175411 11.98801482 0 0 Z " fill="#515862" transform="translate(302,130)"/>
<path d="M0 0 C0.99 0 1.98 0 3 0 C3 0.66 3 1.32 3 2 C6.63 2.99 10.26 3.98 14 5 C11.93244152 11.74871651 8.56396202 17.55550154 5.125 23.6875 C4.49980469 24.82767578 3.87460937 25.96785156 3.23046875 27.14257812 C2.62074219 28.23376953 2.01101563 29.32496094 1.3828125 30.44921875 C0.82996582 31.44268311 0.27711914 32.43614746 -0.29248047 33.4597168 C-2.01101701 36.01639004 -3.33502179 37.47729395 -6 39 C-9.75245951 38.93416738 -12.06312483 38.81598805 -14.9375 36.3125 C-16.31536885 33.31360896 -16.2443913 31.28760304 -16 28 C-14.85424805 25.28686523 -14.85424805 25.28686523 -13.26171875 22.55859375 C-12.68873047 21.56279297 -12.11574219 20.56699219 -11.52539062 19.54101562 C-10.91888672 18.51685547 -10.31238281 17.49269531 -9.6875 16.4375 C-9.09259766 15.40947266 -8.49769531 14.38144531 -7.88476562 13.32226562 C-6.27064199 10.53948041 -4.6422845 7.76624175 -3 5 C-2.25327026 3.59826538 -2.25327026 3.59826538 -1.49145508 2.16821289 C-0.75318481 1.09494751 -0.75318481 1.09494751 0 0 Z " fill="#535A63" transform="translate(382,169)"/>
<path d="M0 0 C2.61234096 2.19099564 2.95512553 3.81302305 3.75 7.125 C2.55356096 13.30660169 -1.60087888 16.70382244 -6 21 C-6.69222656 21.72445312 -7.38445312 22.44890625 -8.09765625 23.1953125 C-11.28366184 26.32431203 -13.67698996 28.42546061 -18.25 28.6875 C-22 28 -22 28 -24.5 26.4375 C-26.74912822 22.78266663 -26.89255033 21.2567785 -26 17 C-19.88119659 8.44742534 -11.16181469 -2.54567704 0 0 Z " fill="#E68D99" transform="translate(503,40)"/>
<path d="M0 0 C4.30802181 1.56408548 7.26467713 5.12788379 10.38964844 8.35644531 C11.1128125 9.05640625 11.83597656 9.75636719 12.58105469 10.47753906 C15.89305187 13.82681952 17.8020556 15.97074947 19.08886719 20.57519531 C19.01464844 23.73144531 19.01464844 23.73144531 17.45214844 26.60644531 C14.49562648 29.18392599 12.92496956 29.73144531 9.01464844 29.73144531 C4.16597836 27.39596025 0.55842814 23.71225772 -3.23535156 19.98144531 C-3.87214844 19.38589844 -4.50894531 18.79035156 -5.16503906 18.17675781 C-8.30029047 15.09487238 -9.83289433 13.28719508 -11.02050781 8.95800781 C-10.98535156 5.73144531 -10.98535156 5.73144531 -9.17285156 2.85644531 C-6.0878137 -0.14044861 -4.30129491 -0.70238875 0 0 Z " fill="#E58895" transform="translate(272.9853515625,22.2685546875)"/>
<path d="M0 0 C4.36514473 1.16297652 7.10275725 4.38639342 10.140625 7.5703125 C10.8934375 8.30378906 11.64625 9.03726563 12.421875 9.79296875 C15.85645597 13.31825169 17.94035117 15.45970306 18.828125 20.3828125 C17.74989141 25.38189551 17.74989141 25.38189551 15.140625 27.5703125 C11.20453803 28.75856517 9.08530121 29.0111614 5.328125 27.2578125 C-0.32734513 22.90509294 -5.90506322 17.50178017 -9.859375 11.5703125 C-10.27794982 7.73337663 -10.40581769 5.45828186 -8.359375 2.1328125 C-5.54394727 0.37317017 -3.33061499 -0.18503417 0 0 Z " fill="#EEA3AC" transform="translate(476.859375,157.4296875)"/>
<path d="M0 0 C2.36497439 1.86708505 3.66030715 3.32061431 5 6 C5.14851844 7.93359586 5.22130833 9.87342097 5.25 11.8125 C5.27578125 12.85019531 5.3015625 13.88789063 5.328125 14.95703125 C4.95701851 18.39860214 4.04491005 20.23540073 2 23 C-1.09173752 24.54586876 -3.59429552 24.29359521 -7 24 C-9.1953125 22.48046875 -9.1953125 22.48046875 -11 20 C-11.40100915 17.16934716 -11.56122899 14.81653341 -11.5 12 C-11.51546875 11.2884375 -11.5309375 10.576875 -11.546875 9.84375 C-11.52099433 6.37574073 -11.25988236 4.35397769 -9.1875 1.53125 C-5.98117211 -0.71317952 -3.81673845 -0.54524835 0 0 Z " fill="#EDA0AA" transform="translate(313,4)"/>
<path d="M0 0 C4.91511194 1.34048507 4.91511194 1.34048507 6.4375 3.9375 C6.9375 6.8125 6.9375 6.8125 6.4375 9.9375 C4.3125 12.875 4.3125 12.875 1.4375 14.9375 C-1.79671175 14.9375 -3.67627619 14.46923428 -6.4375 12.8125 C-8.26349685 9.76917192 -7.98710581 7.39500445 -7.5625 3.9375 C-5.29401339 0.30792142 -4.30870043 -0.07559124 0 0 Z " fill="#545C66" transform="translate(163.5625,254.0625)"/>
<path d="M0 0 C1.875 1.125 1.875 1.125 3 3 C3.49891602 6.92005446 3.55253414 9.11594538 1.4375 12.5 C-1 14 -1 14 -4.5625 14 C-8 13 -8 13 -10 11.375 C-11.46981805 7.88418213 -10.98413921 5.60851044 -10 2 C-6.93558602 -1.63189805 -4.37003477 -1.30171248 0 0 Z " fill="#545C65" transform="translate(295,255)"/>
</svg>
