<?xml version="1.0" encoding="UTF-8"?>
<svg version="1.1" xmlns="http://www.w3.org/2000/svg" width="512" height="512">
<path d="M0 0 C9.27501417 6.68049596 14.31625326 14.6400681 17.58203125 25.4921875 C18.68160156 25.51796875 19.78117187 25.54375 20.9140625 25.5703125 C35.40407766 26.05966251 46.21850429 28.73118599 56.5546875 39.55859375 C65.19730322 49.8159657 66.5731556 60.51397707 65.78857422 73.48974609 C65.37706732 77.47932007 64.13058539 80.81437141 62.58203125 84.4921875 C62.58203125 85.4821875 62.58203125 86.4721875 62.58203125 87.4921875 C64.11955952 88.86772088 64.11955952 88.86772088 66.14453125 90.1171875 C74.19254767 95.91460818 79.61703316 103.7137059 81.58203125 113.4921875 C82.92007691 125.90936834 81.85729499 136.88109459 74.39453125 147.2421875 C69.85459075 152.69207297 64.1792733 157.7108655 57.58203125 160.4921875 C56.59203125 160.4921875 55.60203125 160.4921875 54.58203125 160.4921875 C55.07703125 161.6059375 55.57203125 162.7196875 56.08203125 163.8671875 C59.36362901 173.79048789 59.09359552 186.53593237 54.90234375 196.10546875 C50.09213083 204.80085365 42.89350685 212.56657559 33.58203125 216.4921875 C32.59203125 216.4921875 31.60203125 216.4921875 30.58203125 216.4921875 C31.07703125 217.6059375 31.57203125 218.7196875 32.08203125 219.8671875 C35.47468286 230.04514233 34.91248738 242.74866121 30.58203125 252.4921875 C31.30519531 252.59273438 32.02835937 252.69328125 32.7734375 252.796875 C40.36162411 254.67545249 47.29459257 261.08654995 51.58203125 267.4921875 C55.1137684 273.69192174 57.75060584 279.02911571 57.64453125 286.2421875 C57.63550781 287.04140625 57.62648438 287.840625 57.6171875 288.6640625 C57.60558594 289.26734375 57.59398437 289.870625 57.58203125 290.4921875 C58.84015625 290.4096875 60.09828125 290.3271875 61.39453125 290.2421875 C71.25616181 290.2886316 79.59954462 294.73974403 86.58203125 301.4921875 C88.75440305 304.05504762 90.72731425 306.6919285 92.58203125 309.4921875 C95.38343277 308.98284177 98.00487628 308.35527628 100.71875 307.4765625 C111.31510746 304.77658062 123.9165314 305.14531524 133.58203125 310.4921875 C142.5947817 316.11241638 149.61170118 324.01857416 152.921875 334.20703125 C155.32905305 346.18594685 154.62608736 358.40340322 148.07421875 368.91015625 C141.73378049 377.71304379 133.34772971 384.32880695 122.58203125 386.4921875 C110.11929342 387.83514227 99.1514659 386.75362035 88.76953125 379.2421875 C84.65126985 375.82758587 81.52702107 371.93854469 78.58203125 367.4921875 C75.78062973 368.00153323 73.15918622 368.62909872 70.4453125 369.5078125 C59.84895504 372.20779438 47.2475311 371.83905976 37.58203125 366.4921875 C27.40575592 360.1464003 20.35591651 351.24337413 17.58203125 339.4921875 C17.30885309 336.39766115 17.3778785 333.605517 17.58203125 330.4921875 C16.32390625 330.5746875 15.06578125 330.6571875 13.76953125 330.7421875 C3.86042981 330.69551983 -4.37431959 326.21627602 -11.41796875 319.4921875 C-20.31957202 310.16753774 -22.94978029 300.61323605 -22.83374023 288.0065918 C-22.64709543 282.36343709 -21.72784302 277.68940462 -19.41796875 272.4921875 C-20.38734375 272.3065625 -21.35671875 272.1209375 -22.35546875 271.9296875 C-31.95992222 269.13566467 -39.064313 260.55456521 -43.73828125 252.10546875 C-48.0330167 242.2996567 -48.15314413 229.57967535 -44.85546875 219.4296875 C-40.5235135 209.53889457 -32.49161336 200.73912117 -22.41796875 196.4921875 C-21.42796875 196.4921875 -20.43796875 196.4921875 -19.41796875 196.4921875 C-19.91296875 195.3784375 -20.40796875 194.2646875 -20.91796875 193.1171875 C-24.19956651 183.19388711 -23.92953302 170.44844263 -19.73828125 160.87890625 C-14.92806833 152.18352135 -7.72944435 144.41779941 1.58203125 140.4921875 C2.57203125 140.4921875 3.56203125 140.4921875 4.58203125 140.4921875 C4.08703125 139.3784375 3.59203125 138.2646875 3.08203125 137.1171875 C-0.35864177 126.79516845 0.40482542 114.41305134 4.58203125 104.4921875 C4.58203125 103.5021875 4.58203125 102.5121875 4.58203125 101.4921875 C3.04450298 100.11665412 3.04450298 100.11665412 1.01953125 98.8671875 C-7.42013402 92.78764101 -11.4601868 85.3208418 -14.41796875 75.4921875 C-15.51753906 75.46640625 -16.61710937 75.440625 -17.75 75.4140625 C-32.24001516 74.92471249 -43.05444179 72.25318901 -53.390625 61.42578125 C-61.97068219 51.24265604 -63.53667924 40.47429812 -62.64111328 27.56298828 C-61.48100892 16.79711826 -55.25320055 8.49211 -47.16796875 1.6796875 C-33.50164795 -8.16372614 -14.35564267 -8.95198396 0 0 Z " fill="#FFE56D" transform="translate(86.41796875,29.5078125)"/>
<path d="M0 0 C7.99097892 5.92879082 14.24228682 12.92632122 17.42578125 22.45703125 C17.42578125 23.11703125 17.42578125 23.77703125 17.42578125 24.45703125 C18.66328125 24.10640625 19.90078125 23.75578125 21.17578125 23.39453125 C31.75325729 21.09003412 42.74527581 23.30542377 51.90234375 28.99609375 C60.67803626 35.42377489 67.40923475 44.58688536 69.42578125 55.45703125 C69.94827156 64.56042004 69.89247177 72.87284521 66.42578125 81.45703125 C66.98265625 81.73675781 67.53953125 82.01648438 68.11328125 82.3046875 C78.77148205 87.90384367 86.08266743 94.73970428 90.4609375 106.15625 C94.03422648 117.80683407 92.46169324 127.12404623 88.42578125 138.45703125 C89.32425781 138.72386719 90.22273437 138.99070312 91.1484375 139.265625 C100.36992168 142.61789279 107.09692587 150.43948498 111.74609375 158.84375 C116.0408292 168.64956205 116.16095663 181.3695434 112.86328125 191.51953125 C108.24349363 202.06750788 100.03625788 210.27474363 89.48828125 214.89453125 C79.3382934 218.19220663 66.61831205 218.0720792 56.8125 213.77734375 C46.68818376 208.17665817 38.71876435 199.87575109 35.08203125 188.74609375 C33.02895776 178.45628497 33.31779693 167.18904173 37.42578125 157.45703125 C36.60078125 157.25078125 35.77578125 157.04453125 34.92578125 156.83203125 C24.16887426 152.6061035 17.90155666 144.29319051 13.40625 134.0078125 C9.40071005 123.5870253 10.81605485 111.79202172 14.42578125 101.45703125 C13.31203125 100.98265625 12.19828125 100.50828125 11.05078125 100.01953125 C-0.28915018 94.21910615 -5.72949407 85.73465194 -10.57421875 74.45703125 C-11.09757812 74.616875 -11.6209375 74.77671875 -12.16015625 74.94140625 C-24.08468977 77.48839399 -34.83268346 74.36077562 -45.57421875 69.45703125 C-45.82042969 70.03453125 -46.06664062 70.61203125 -46.3203125 71.20703125 C-50.69999774 79.06590569 -59.10461346 83.32924995 -67.33203125 86.03515625 C-79.23794098 88.27529257 -90.56112629 86.61293789 -100.94921875 80.45703125 C-101.81546875 79.79703125 -102.68171875 79.13703125 -103.57421875 78.45703125 C-104.39921875 77.90015625 -105.22421875 77.34328125 -106.07421875 76.76953125 C-114.02820527 69.41209371 -118.57413511 59.3155534 -119.046875 48.53759766 C-119.20838998 36.24803808 -115.38900864 25.80762772 -106.984375 16.7421875 C-98.77374051 9.14976549 -88.73998376 5.64361459 -77.66796875 5.390625 C-69.66008335 5.73833581 -62.8698048 8.26815412 -55.57421875 11.45703125 C-54.95546875 10.61140625 -54.33671875 9.76578125 -53.69921875 8.89453125 C-40.56618649 -6.62299011 -17.44796828 -10.4581904 0 0 Z " fill="#FFDB4F" transform="translate(373.57421875,271.54296875)"/>
<path d="M0 0 C0.77601563 0.42410156 1.55203125 0.84820313 2.3515625 1.28515625 C11.79790384 6.95612037 17.13300235 15.49331617 20.59375 25.76171875 C21.21098294 29.16243485 21.14371463 32.55650893 21.125 36 C21.12886719 36.7115625 21.13273437 37.423125 21.13671875 38.15625 C21.13033978 41.57538017 21.07200732 44.73293006 20 48 C20.54527344 48.13535156 21.09054687 48.27070312 21.65234375 48.41015625 C31.92966927 51.34402524 39.38713097 57.99905199 45 67 C50.35239876 76.67549006 50.56100231 88.62470259 48.3046875 99.28515625 C46.22942982 105.48477059 42.87538425 110.76823126 39 116 C39.721875 116.7425 40.44375 117.485 41.1875 118.25 C49.03456268 127.95793754 50.2681515 138.75407139 49.27783203 150.80419922 C47.87934923 161.85688318 41.07852509 169.88408832 32.8046875 176.84765625 C24.01584033 183.25815948 13.71159028 185.19465105 3 184 C-5.16395967 182.32364169 -11.92797952 179.77487905 -18 174 C-18.68835938 173.35160156 -19.37671875 172.70320312 -20.0859375 172.03515625 C-28.92592623 162.94869944 -31.73932175 153.4371983 -31.59643555 141.01708984 C-31.14571099 130.85289497 -27.27014016 122.88246192 -21 115 C-21.47050781 114.38253906 -21.94101562 113.76507813 -22.42578125 113.12890625 C-30.97153745 101.50455465 -31.73215032 92.10797349 -31 78 C-30.505 76.515 -30.505 76.515 -30 75 C-30.556875 74.85304688 -31.11375 74.70609375 -31.6875 74.5546875 C-41.92756241 71.54493943 -49.53951314 65.01727684 -55.25390625 56.02734375 C-60.38481037 46.50393131 -61.36518041 35.96170469 -58.875 25.5 C-55.86440573 15.53971614 -50.1278953 6.55917178 -41.02734375 1.2734375 C-28.4600787 -5.17053073 -12.75246771 -7.38906523 0 0 Z " fill="#FFE56D" transform="translate(359,28)"/>
<path d="M0 0 C0.77601563 0.42410156 1.55203125 0.84820313 2.3515625 1.28515625 C11.7585425 6.9324904 17.22899483 15.50101099 20.58203125 25.78515625 C23.00688181 38.63459798 20.53663092 49.06389757 13.25 59.75 C6.54694897 68.48241511 -1.2780852 73.25500212 -12 76 C-23.79809446 77.27873007 -34.11055857 75.74815812 -43.83203125 68.796875 C-52.82898915 61.33993692 -58.43270898 52.6095631 -60 41 C-61.16221476 28.43992468 -57.10401341 17.88826349 -49.4765625 8.03125 C-37.75279163 -5.00787077 -15.22364718 -8.82092192 0 0 Z " fill="#FFBE31" transform="translate(359,28)"/>
<path d="M0 0 C9.5141521 6.33802049 16.71230322 15.09853118 19.171875 26.48828125 C20.00092138 40.20152387 19.36597855 51.47752459 10.14453125 62.421875 C2.01294607 70.93991175 -6.63614993 75.49077653 -18.46337891 75.95898438 C-30.97768176 76.11402426 -40.60099323 73.29679078 -49.828125 64.48828125 C-58.70671681 55.18773656 -61.43415895 45.57895114 -61.22631836 32.98071289 C-60.76593041 21.09718422 -56.36912142 14.12881457 -48.03125 5.6640625 C-35.08532661 -6.12385398 -15.50374893 -8.28722491 0 0 Z " fill="#FFBE31" transform="translate(468.828125,412.51171875)"/>
<path d="M0 0 C9.01275045 5.62022888 16.02966993 13.52638666 19.33984375 23.71484375 C21.7470218 35.69375935 21.04405611 47.91121572 14.4921875 58.41796875 C8.15174924 67.22085629 -0.23430154 73.83661945 -11 76 C-23.41718084 77.33804566 -34.38890709 76.27526374 -44.75 68.8125 C-54.96479568 60.13266467 -58.82545713 50.73984131 -60.4140625 37.56640625 C-60.89580418 27.00612157 -57.21797767 17.931848 -50.6171875 9.7578125 C-47.99010932 6.90229274 -45.21554194 4.18789452 -42 2 C-41.34 2 -40.68 2 -40 2 C-40 1.34 -40 0.68 -40 0 C-27.88253739 -5.97865997 -12.01492349 -6.64655342 0 0 Z " fill="#FFBE31" transform="translate(220,340)"/>
<path d="M0 0 C5.27070314 3.83147055 10.93985288 8.58354746 12.125 15.25 C12.785 15.25 13.445 15.25 14.125 15.25 C18.5618956 25.23301511 18.96918724 37.90154631 15.5625 48.3125 C11.43133578 57.74484348 4.19018903 65.95212937 -5.2265625 70.34765625 C-7.08380944 71.05314758 -8.97687577 71.66330706 -10.875 72.25 C-11.51115234 71.27160156 -11.51115234 71.27160156 -12.16015625 70.2734375 C-19.32723129 59.5937081 -26.63286507 53.86743448 -39.3359375 50.62109375 C-42.37531932 50.17687641 -45.30358302 50.11782379 -48.375 50.125 C-50.03015625 50.12113281 -50.03015625 50.12113281 -51.71875 50.1171875 C-54.55992244 50.23674179 -57.11307642 50.60074185 -59.875 51.25 C-64.3118956 41.26698489 -64.71918724 28.59845369 -61.3125 18.1875 C-57.19010149 8.77517054 -49.99969727 0.67388278 -40.6640625 -3.8125 C-27.02620577 -9.08512863 -12.48815882 -7.74689174 0 0 Z " fill="#FFBE31" transform="translate(126.875,174.75)"/>
<path d="M0 0 C0.72123047 -0.01224609 1.44246094 -0.02449219 2.18554688 -0.03710938 C12.61136803 -0.06516091 21.07265067 3.23898532 28.92578125 10.16015625 C37.40203222 18.95566337 41.03761242 29.99753098 40.98828125 42.05078125 C40.44945723 47.66994604 38.572994 52.89296552 36.6875 58.1875 C35.470625 58.0225 34.25375 57.8575 33 57.6875 C19.10138633 56.24971238 7.8453268 57.34478569 -3.421875 66.36328125 C-7.13976833 69.95058742 -10.23692828 74.04856572 -13.3125 78.1875 C-27.28548811 71.92374671 -33.33331103 65.0544891 -39.3125 51.1875 C-41.99612231 43.36797983 -41.20766654 32.23129228 -38.48046875 24.5234375 C-33.43217148 14.42684297 -23.97624344 5.14649457 -13.3125 1.1875 C-8.91095115 0.01736994 -4.52520504 0.00397995 0 0 Z " fill="#FFE56D" transform="translate(425.3125,351.8125)"/>
<path d="M0 0 C9.10459934 5.07857709 16.12598425 13.82283464 19.33984375 23.71484375 C21.7470218 35.69375935 21.04405611 47.91121572 14.4921875 58.41796875 C9.86388095 64.8437804 3.47603798 71.04103277 -4 74 C-6.5703125 74.3828125 -6.5703125 74.3828125 -9 74 C-10.5546875 72.2421875 -10.5546875 72.2421875 -11.875 69.875 C-17.70315077 60.48520153 -25.77538912 56.10518657 -36.45703125 53.37109375 C-39.51783406 52.92443282 -42.46962407 52.86783227 -45.5625 52.875 C-46.67753906 52.87242187 -47.79257813 52.86984375 -48.94140625 52.8671875 C-51.49193728 52.97793853 -53.57590829 53.2532138 -56 54 C-61.65156914 45.15406569 -61.09705128 33.92830079 -59.4921875 23.79296875 C-56.45399739 13.7197462 -48.20658192 5.43899272 -39.1875 0.375 C-26.20886498 -6.10450009 -13.41797943 -5.1304039 0 0 Z " fill="#FFE56D" transform="translate(148,116)"/>
<path d="M0 0 C1 3 1 3 0.00390625 5.3203125 C-0.70958984 6.70863281 -0.70958984 6.70863281 -1.4375 8.125 C-5.63614806 17.83951904 -5.73623035 28.60563259 -1.9375 38.5 C1.72053894 46.05442035 6.91416294 52.28300155 13 58 C12.34 58 11.68 58 11 58 C10.75378906 58.5775 10.50757813 59.155 10.25390625 59.75 C5.87422101 67.60887444 -2.53039471 71.8722187 -10.7578125 74.578125 C-22.66372223 76.81826132 -33.98690754 75.15590664 -44.375 69 C-45.24125 68.34 -46.1075 67.68 -47 67 C-47.825 66.443125 -48.65 65.88625 -49.5 65.3125 C-57.45398652 57.95506246 -61.99991636 47.85852215 -62.47265625 37.08056641 C-62.63417123 24.79100683 -58.81478989 14.35059647 -50.41015625 5.28515625 C-36.57330317 -7.50986319 -16.22845077 -9.53318161 0 0 Z " fill="#FFBE31" transform="translate(317,283)"/>
<path d="M0 0 C6.60656835 4.11312158 11.83068761 9.41758076 16 16 C16 16.66 16 17.32 16 18 C14.4609375 19.2265625 14.4609375 19.2265625 12.375 20.625 C4.37454887 26.49481953 -0.29168525 34.48617641 -3 44 C-3.96267992 51.61062048 -3.01471774 58.39913289 -0.65625 65.66015625 C0 68 0 68 0 72 C-10.68259232 77.27070634 -23.68434914 78.1341988 -35.0625 74.4375 C-45.63227545 69.80816497 -53.84903639 61.58876218 -58.4375 51 C-61.88055941 40.32651582 -61.39365741 28.66260833 -56.484375 18.58203125 C-45.17312461 -1.09359114 -21.18069744 -11.54689635 0 0 Z " fill="#FFE56D" transform="translate(164,324)"/>
<path d="M0 0 C9.01419478 5.6120632 16.03129582 13.53139104 19.33984375 23.71484375 C21.55256831 34.72609439 21.0119295 45.84189288 16 56 C13.32474818 55.5884228 10.67439403 55.17740084 8.0546875 54.48828125 C-3.50276249 51.48163836 -13.46360527 52.26250919 -24 58 C-30.07298175 61.69162418 -34.54371155 66.51319485 -39 72 C-49.190336 65.81786283 -55.89162457 58.63791879 -59.62109375 47.07421875 C-61.81748195 35.0506916 -59.43008299 22.53282579 -52.796875 12.3203125 C-47.78880728 5.85337288 -41.62297413 0.97841542 -34 -2 C-33.10023437 -2.35578125 -32.20046875 -2.7115625 -31.2734375 -3.078125 C-21.23791052 -5.90435933 -9.15531308 -4.99112229 0 0 Z " fill="#FFD232" transform="translate(132,60)"/>
<path d="M0 0 C0.71285156 0.47050781 1.42570312 0.94101563 2.16015625 1.42578125 C13.33135202 8.68781026 22.43717541 12.31445877 36 11 C44.19812694 8.82880656 51.24789456 5.07716456 58 0 C66.08987297 8.27800955 69.48349138 16.98572662 69.625 28.5 C69.44220963 40.522889 65.82573142 49.12882727 57.3828125 57.80859375 C48.30607299 66.15621812 38.49317545 69.71732862 26.1171875 69.34765625 C16.88846744 68.31838797 8.76153185 65.43064838 2 59 C0.96746094 58.02740234 0.96746094 58.02740234 -0.0859375 57.03515625 C-8.92232261 47.95240353 -11.74809182 38.43526872 -11.59423828 26.01708984 C-11.11863741 15.45875042 -7.35054106 7.52148388 0 0 Z " fill="#FFBE31" transform="translate(339,143)"/>
<path d="M0 0 C8.10980965 6.14651712 14.79613787 14.46823351 16.6875 24.75 C16.75298492 26.33211573 16.77328381 27.91670081 16.75 29.5 C16.74097656 30.29921875 16.73195313 31.0984375 16.72265625 31.921875 C16.71105469 32.52515625 16.69945312 33.1284375 16.6875 33.75 C16.08164063 33.84796875 15.47578125 33.9459375 14.8515625 34.046875 C2.35752714 36.27657977 -8.4478786 40.74328587 -15.9296875 51.4140625 C-20.0835537 58.43104551 -22.84212723 65.59687194 -23.3125 73.75 C-33.76129297 74.43516675 -42.21556965 71.48898336 -50.24609375 64.72265625 C-58.80115201 56.55572918 -63.35449348 47.89581904 -63.73071289 36.01098633 C-63.78968925 28.71508843 -63.31583228 22.50749762 -60.3125 15.75 C-59.6525 15.75 -58.9925 15.75 -58.3125 15.75 C-58.126875 15.09 -57.94125 14.43 -57.75 13.75 C-53.44118774 4.75769615 -45.65653481 -1.00244756 -36.390625 -4.28515625 C-23.7251539 -7.81245714 -11.17313536 -7.44318149 0 0 Z " fill="#FFD232" transform="translate(127.3125,286.25)"/>
</svg>
