<?xml version="1.0" encoding="UTF-8"?>
<svg version="1.1" xmlns="http://www.w3.org/2000/svg" width="512" height="512">
<path d="M0 0 C2.8100346 1.79363911 4.50940468 3.01880935 6 6 C6.57588326 12.63705454 5.19576855 16.62045732 2 22.375 C-0.82306344 26.95422023 -0.82306344 26.95422023 -2 32 C-1.20078125 32.40089844 -0.4015625 32.80179688 0.421875 33.21484375 C8.57870819 37.43686656 15.81030328 42.23766954 23 48 C23.6909375 48.54785156 24.381875 49.09570312 25.09375 49.66015625 C29.21564058 53.0498689 32.65038916 56.85286277 36 61 C39.98732979 59.81457763 43.54440109 58.23042754 47.25 56.375 C52.5694948 53.93991791 57.19454894 52.74702495 63 54 C66.125 55.875 66.125 55.875 68 59 C68.95520694 63.85563527 68.8978727 67.60674926 66.1875 71.8125 C61.1704288 75.25558808 55.21442521 79 49 79 C49.22139648 79.51159668 49.44279297 80.02319336 49.67089844 80.55029297 C61.63441963 108.49214866 61.63441963 108.49214866 61 122 C62.09699219 121.95359375 63.19398438 121.9071875 64.32421875 121.859375 C65.7786185 121.8218421 67.23304783 121.78544357 68.6875 121.75 C69.40873047 121.71648437 70.12996094 121.68296875 70.87304688 121.6484375 C74.61943304 121.58001036 76.63093072 121.79710851 79.984375 123.640625 C82.5181614 126.60653001 82.6445742 128.13768482 82.5625 132 C82.56378906 133.03125 82.56507813 134.0625 82.56640625 135.125 C81.86992714 138.66023192 80.84074397 139.83562364 78 142 C74.55003302 143.40799934 70.93207683 143.09932077 67.25 143.0625 C66.07953125 143.05347656 64.9090625 143.04445312 63.703125 143.03515625 C62.81109375 143.02355469 61.9190625 143.01195312 61 143 C60.99613281 144.05960937 60.99613281 144.05960937 60.9921875 145.140625 C60.45764278 159.32387832 56.05432052 173.70165062 49 186 C49.59014893 186.25168945 50.18029785 186.50337891 50.78833008 186.76269531 C53.46824415 187.91345247 56.14028658 189.08147898 58.8125 190.25 C59.74126953 190.64574219 60.67003906 191.04148438 61.62695312 191.44921875 C62.51962891 191.84238281 63.41230469 192.23554688 64.33203125 192.640625 C65.15421143 192.99672852 65.9763916 193.35283203 66.82348633 193.71972656 C70.34502374 195.79117269 71.7354728 198.04363243 72.8125 201.9375 C73.02397609 205.39160952 72.72835041 207.01466747 71 210 C68.34433597 212.80741626 66.82272362 213.90271135 62.9609375 214.359375 C57.73293274 213.88503926 53.58356774 212.03733069 48.8125 209.9375 C47.05268359 209.16542681 45.28848267 208.403251 43.51953125 207.65234375 C42.36094604 207.14175415 42.36094604 207.14175415 41.17895508 206.62084961 C38.63751064 205.89671592 37.4374617 206.02495178 35 207 C33.13697219 208.74896489 31.41525693 210.50176605 29.6875 212.375 C23.13234545 219.21731701 15.78991105 224.64863089 8 230 C7.43635742 230.39574219 6.87271484 230.79148438 6.29199219 231.19921875 C2.23577303 234 2.23577303 234 0 234 C2.68769038 236.74831497 5.41129236 239.39711482 8.296875 241.9375 C8.86277344 242.44023437 9.42867188 242.94296875 10.01171875 243.4609375 C11.17935746 244.49475695 12.35398973 245.52072637 13.53515625 246.5390625 C16.12505998 248.86104515 17.7745387 250.35191668 18.93359375 253.68359375 C19.0550746 257.9211316 17.78367381 260.96443104 15.25 264.3125 C12.35134048 266.48649464 10.62676665 266.92888693 7 267 C-0.82747914 264.89260177 -6.10452901 258.75997635 -11.796875 253.265625 C-13.43377121 251.70191775 -13.43377121 251.70191775 -16 250 C-19.87872716 250.30445756 -21.90442621 251.39383439 -24.671875 254.0625 C-25.33251953 254.6908374 -25.99316406 255.3191748 -26.67382812 255.96655273 C-27.35896484 256.63759033 -28.04410156 257.30862793 -28.75 258 C-29.45576172 258.67683838 -30.16152344 259.35367676 -30.88867188 260.05102539 C-32.93745701 262.0224402 -34.97178466 264.007449 -37 266 C-37.80147461 266.78673096 -37.80147461 266.78673096 -38.61914062 267.58935547 C-41.10301067 270.03669801 -43.56495732 272.50408125 -46 275 C-41.47557283 280.5026817 -36.53480336 285.34592944 -31.29296875 290.15625 C-28.5609147 293.54455554 -28.16668083 295.69660413 -28 300 C-28.96195217 303.52715796 -30.2120953 305.66279583 -33 308 C-35.05078125 308.65234375 -35.05078125 308.65234375 -37.3125 308.9375 C-38.05113281 309.04964844 -38.78976562 309.16179687 -39.55078125 309.27734375 C-45.74698168 308.57570064 -50.23443411 303.02347294 -54.375 298.75 C-54.92027344 298.19570313 -55.46554687 297.64140625 -56.02734375 297.0703125 C-57.35622977 295.71811269 -58.67878548 294.3596965 -60 293 C-68.90543111 304.0435192 -77.980781 316.06860093 -84 329 C-83.31292969 329.66386719 -82.62585938 330.32773437 -81.91796875 331.01171875 C-80.56638672 332.33623047 -80.56638672 332.33623047 -79.1875 333.6875 C-78.29417969 334.55761719 -77.40085937 335.42773438 -76.48046875 336.32421875 C-73.11129465 339.95868215 -71.15720883 342.53271754 -70.625 347.5 C-71.02664502 351.2486869 -71.6595378 353.07442224 -74 356 C-77.44942334 358.58706751 -80.81711016 358.55771865 -85 358 C-87.94754422 356.3173468 -90.4413365 354.218841 -93 352 C-94.0209375 351.14148438 -94.0209375 351.14148438 -95.0625 350.265625 C-96.72233467 348.86011984 -98.36316803 347.43222798 -100 346 C-100.7528125 346.61746094 -101.505625 347.23492187 -102.28125 347.87109375 C-119.30159248 361.56527775 -139.02010109 371.47771652 -161 374 C-161.02578125 374.86882812 -161.0515625 375.73765625 -161.078125 376.6328125 C-161.6501182 388.2546744 -161.6501182 388.2546744 -166 393 C-169.47263273 394.73631636 -173.21193013 394.60190402 -177 394 C-179.75569447 391.81840855 -181.43588747 390.12822506 -183 387 C-183.07092842 384.7927077 -183.08415025 382.58332548 -183.0625 380.375 C-183.05347656 379.18648438 -183.04445312 377.99796875 -183.03515625 376.7734375 C-183.01775391 375.40058594 -183.01775391 375.40058594 -183 374 C-183.845625 373.95101563 -184.69125 373.90203125 -185.5625 373.8515625 C-191.94709185 373.43075986 -197.85792595 372.80649237 -204 371 C-204.33 372.155 -204.66 373.31 -205 374.5 C-208.99462319 386.39009906 -215.22490304 397.20520012 -223 407 C-223.66 407.86238281 -224.32 408.72476562 -225 409.61328125 C-235.33035298 422.90957542 -247.53414589 432.51861403 -262 440.9375 C-270.47967765 445.88258799 -277.83215973 451.31143583 -285 458 C-285.69222656 458.62390625 -286.38445312 459.2478125 -287.09765625 459.890625 C-298.63544837 470.74375693 -306.61422365 485.95829563 -310.18994141 501.27758789 C-311.40613707 506.15578019 -313.01348732 508.91119091 -317 512 C-320.08544091 512.85060956 -322.87224998 512.62894973 -326 512 C-328.87029869 510.20606332 -330.49131638 509.01736724 -332 506 C-333.52918645 487.64976264 -322.16754558 467.12604821 -310.68945312 453.43701172 C-307.56547483 449.85407589 -304.2977433 446.42265781 -301 443 C-300.41734375 442.35417969 -299.8346875 441.70835937 -299.234375 441.04296875 C-291.31151413 432.49988392 -280.86986877 426.46197281 -270.9375 420.5625 C-248.03768185 406.83709503 -234.05543813 387.4787072 -224 363 C-224.86882812 362.74734375 -225.73765625 362.4946875 -226.6328125 362.234375 C-230.14197602 360.94795311 -232.79610158 359.35704454 -235.875 357.25 C-236.91527344 356.54617188 -237.95554688 355.84234375 -239.02734375 355.1171875 C-242.22020066 352.84316852 -245.24350635 350.42742393 -248.18359375 347.8359375 C-250.05386639 346.7420114 -250.05386639 346.7420114 -252.40234375 347.6328125 C-260.67340862 351.98600454 -267.64499699 358.29523124 -274.44140625 364.62890625 C-276.62429259 366.65182535 -278.848806 368.58439119 -281.125 370.5 C-301.77338735 388.65059856 -315.83438546 413.97003632 -327.1484375 438.671875 C-334.78614557 455.29591628 -343.62207986 469.49467917 -356 483 C-356.60199219 483.68449219 -357.20398438 484.36898438 -357.82421875 485.07421875 C-372.22356132 500.63421362 -394.08749083 511.27442458 -415.20458984 512.57055664 C-419.04671213 512.67604707 -422.57250437 512.7219205 -426.046875 510.96484375 C-429.2845607 507.69987418 -429.61430418 503.59870288 -429.76171875 499.24609375 C-428.56405048 495.71450784 -426.1300714 493.81090678 -423 492 C-420.32095909 491.15651504 -417.65937627 490.82058514 -414.875 490.5 C-407.31635255 489.38477639 -400.86143632 487.46873166 -394 484 C-392.54207031 483.27876953 -392.54207031 483.27876953 -391.0546875 482.54296875 C-368.11310382 470.23358116 -355.93815241 447.74072667 -345.30130005 424.98153687 C-338.85765373 411.25401072 -331.86569834 398.34665148 -323 386 C-322.59233398 385.4210498 -322.18466797 384.84209961 -321.76464844 384.24560547 C-306.24616427 362.27539405 -287.27708403 345.20305763 -266 329 C-267.10210905 327.24870343 -268.20677432 325.49901536 -269.3125 323.75 C-269.92738281 322.77546875 -270.54226563 321.8009375 -271.17578125 320.796875 C-272.70475759 318.45266287 -274.28820977 316.21215968 -276 314 C-303.32592737 324.84419194 -321.45897724 341.89042396 -336.77685547 366.85668945 C-340.76149203 373.29716089 -345.15013669 379.18634387 -350 385 C-350.76828125 385.93972656 -351.5365625 386.87945312 -352.328125 387.84765625 C-357.90239055 394.2716574 -366.86712009 404.30308183 -375.75 405.3125 C-379.83140958 404.92005677 -381.84684973 403.56651766 -385 401 C-386.24755826 397.25732523 -386.62959488 393.88126726 -386 390 C-383.42723858 385.93337711 -380.43841113 383.51276261 -376.625 380.625 C-365.40488457 372.10362733 -357.53222195 359.52365986 -350.5625 347.4375 C-346.16136045 339.87889398 -340.90675852 333.42683733 -335 327 C-334.15953125 326.06542969 -333.3190625 325.13085938 -332.453125 324.16796875 C-319.73648435 310.69989024 -303.4075109 300.33696341 -286 294 C-285.01 294 -284.02 294 -283 294 C-283.20496094 293.28714844 -283.40992188 292.57429688 -283.62109375 291.83984375 C-283.89050781 290.88207031 -284.15992188 289.92429687 -284.4375 288.9375 C-284.70433594 287.99777344 -284.97117187 287.05804688 -285.24609375 286.08984375 C-289.56542357 268.38730549 -289.29885145 244.94602901 -282 228 C-282.68964844 227.89042969 -283.37929688 227.78085938 -284.08984375 227.66796875 C-299.50797751 225.06655523 -299.50797751 225.06655523 -304.5625 220.875 C-306.58158934 216.83682131 -306.90568703 213.42424108 -306 209 C-303.46503663 205.19755495 -301.89843643 204.19604041 -297.4375 203.22265625 C-292.32427751 202.69002891 -287.8737284 204.00383028 -283 205.4375 C-281.69482422 205.80198242 -281.69482422 205.80198242 -280.36328125 206.17382812 C-278.23805131 206.76935959 -276.11766113 207.3781928 -274 208 C-273.58226318 207.33057373 -273.16452637 206.66114746 -272.73413086 205.97143555 C-270.80241627 202.87648066 -268.86996162 199.78198849 -266.9375 196.6875 C-266.28072266 195.63498047 -265.62394531 194.58246094 -264.94726562 193.49804688 C-260.66570434 186.64333053 -256.35088403 179.81092764 -252 173 C-252.47421387 172.5560791 -252.94842773 172.1121582 -253.43701172 171.65478516 C-255.58333399 169.64520481 -257.72917243 167.63510857 -259.875 165.625 C-260.99455078 164.57699219 -260.99455078 164.57699219 -262.13671875 163.5078125 C-262.85214844 162.8375 -263.56757813 162.1671875 -264.3046875 161.4765625 C-264.96452637 160.85861816 -265.62436523 160.24067383 -266.30419922 159.60400391 C-270.3202536 155.80534608 -270.3202536 155.80534608 -270.4375 151.75 C-270.34139774 148.44514996 -269.95745153 146.17537825 -268.0625 143.4375 C-264.50143784 140.60318522 -262.77931256 140.35120595 -258.37890625 140.3984375 C-252.63723451 141.85035449 -248.3602678 146.32462984 -244.125 150.25 C-242.67480469 151.58804688 -242.67480469 151.58804688 -241.1953125 152.953125 C-240.47085938 153.62859375 -239.74640625 154.3040625 -239 155 C-234.9280207 151.10049865 -231.43535442 146.91532443 -227.9375 142.5 C-223.1117529 136.45875565 -218.10592538 130.6876572 -212.69506836 125.16210938 C-209.11684284 121.64360484 -209.11684284 121.64360484 -208 117 C-209.31502877 115.19066394 -209.31502877 115.19066394 -211.25 113.625 C-214.42328497 110.64211213 -216.5929206 108.22123819 -218 104 C-218 99.66360584 -217.45927758 97.62137555 -214.875 94.125 C-211.34143097 91.51323159 -209.39278346 90.92426235 -205 91 C-199.54251164 93.39363525 -196.03702304 96.66758503 -192 101 C-188.02433915 99.37747493 -185.24185158 96.60799925 -182.1875 93.6875 C-176.53499197 88.36874661 -170.73853214 83.24610213 -164.8503418 78.19018555 C-161.34629123 75.18118832 -161.34629123 75.18118832 -158 72 C-158.56589844 71.09636719 -159.13179688 70.19273438 -159.71484375 69.26171875 C-160.4558918 68.07041365 -161.19676827 66.87900181 -161.9375 65.6875 C-162.31068359 65.09259766 -162.68386719 64.49769531 -163.06835938 63.88476562 C-166.27725491 58.71006021 -167.52910146 55.1375769 -167 49 C-165.20437595 46.24670979 -163.94745078 44.47372539 -161 43 C-156.49372863 42.38027702 -153.11313233 42.22339605 -149.3125 44.875 C-146.21042279 49.06699623 -143.56383158 53.46263484 -141 58 C-136.71114544 56.5306702 -133.3491944 54.24659222 -129.75 51.5625 C-121.72303647 45.6926872 -113.38526973 40.33977225 -105 35 C-106.10822602 31.4964155 -107.27725381 28.27322794 -109.0625 25.0625 C-111.56009114 20.1330438 -112.70543613 16.15780463 -110.9375 10.75 C-108.55932365 7.37452388 -106.91908675 6.2812399 -103 5 C-98.78210949 5 -96.75604208 5.35724499 -93.5234375 8.10546875 C-90.70924209 11.33351642 -88.98400593 14.46171134 -87.1875 18.3125 C-86.87619141 18.95767578 -86.56488281 19.60285156 -86.24414062 20.26757812 C-85.48676288 21.84059344 -84.74203942 23.41969126 -84 25 C-80.04321137 24.44399832 -76.09251912 23.86159469 -72.14453125 23.24609375 C-55.89385553 20.75170525 -40.09174554 19.78979659 -24 24 C-23.69296143 23.41508789 -23.38592285 22.83017578 -23.06958008 22.22753906 C-21.66205688 19.56209983 -20.2375151 16.90612572 -18.8125 14.25 C-18.32974609 13.32960938 -17.84699219 12.40921875 -17.34960938 11.4609375 C-13.23131544 3.83241987 -9.39601859 -1.93614929 0 0 Z " fill="#FDC46B" transform="translate(430,0)"/>
<path d="M0 0 C2.8100346 1.79363911 4.50940468 3.01880935 6 6 C6.57588326 12.63705454 5.19576855 16.62045732 2 22.375 C-0.82306344 26.95422023 -0.82306344 26.95422023 -2 32 C-1.20078125 32.40089844 -0.4015625 32.80179688 0.421875 33.21484375 C8.57870819 37.43686656 15.81030328 42.23766954 23 48 C23.6909375 48.54785156 24.381875 49.09570312 25.09375 49.66015625 C29.21564058 53.0498689 32.65038916 56.85286277 36 61 C39.98732979 59.81457763 43.54440109 58.23042754 47.25 56.375 C52.5694948 53.93991791 57.19454894 52.74702495 63 54 C66.125 55.875 66.125 55.875 68 59 C68.95520694 63.85563527 68.8978727 67.60674926 66.1875 71.8125 C61.1704288 75.25558808 55.21442521 79 49 79 C49.22139648 79.51159668 49.44279297 80.02319336 49.67089844 80.55029297 C61.63441963 108.49214866 61.63441963 108.49214866 61 122 C62.09699219 121.95359375 63.19398438 121.9071875 64.32421875 121.859375 C65.7786185 121.8218421 67.23304783 121.78544357 68.6875 121.75 C69.40873047 121.71648437 70.12996094 121.68296875 70.87304688 121.6484375 C74.61943304 121.58001036 76.63093072 121.79710851 79.984375 123.640625 C82.5181614 126.60653001 82.6445742 128.13768482 82.5625 132 C82.56378906 133.03125 82.56507813 134.0625 82.56640625 135.125 C81.86992714 138.66023192 80.84074397 139.83562364 78 142 C74.55003302 143.40799934 70.93207683 143.09932077 67.25 143.0625 C66.07953125 143.05347656 64.9090625 143.04445312 63.703125 143.03515625 C62.81109375 143.02355469 61.9190625 143.01195312 61 143 C60.99613281 144.05960937 60.99613281 144.05960937 60.9921875 145.140625 C60.45764278 159.32387832 56.05432052 173.70165062 49 186 C49.59014893 186.25168945 50.18029785 186.50337891 50.78833008 186.76269531 C53.46824415 187.91345247 56.14028658 189.08147898 58.8125 190.25 C59.74126953 190.64574219 60.67003906 191.04148438 61.62695312 191.44921875 C62.51962891 191.84238281 63.41230469 192.23554688 64.33203125 192.640625 C65.15421143 192.99672852 65.9763916 193.35283203 66.82348633 193.71972656 C70.34502374 195.79117269 71.7354728 198.04363243 72.8125 201.9375 C73.02397609 205.39160952 72.72835041 207.01466747 71 210 C68.34433597 212.80741626 66.82272362 213.90271135 62.9609375 214.359375 C57.73293274 213.88503926 53.58356774 212.03733069 48.8125 209.9375 C47.05268359 209.16542681 45.28848267 208.403251 43.51953125 207.65234375 C42.36094604 207.14175415 42.36094604 207.14175415 41.17895508 206.62084961 C38.63751064 205.89671592 37.4374617 206.02495178 35 207 C33.13697219 208.74896489 31.41525693 210.50176605 29.6875 212.375 C23.13234545 219.21731701 15.78991105 224.64863089 8 230 C7.43635742 230.39574219 6.87271484 230.79148438 6.29199219 231.19921875 C2.23577303 234 2.23577303 234 0 234 C2.68769038 236.74831497 5.41129236 239.39711482 8.296875 241.9375 C8.86277344 242.44023437 9.42867188 242.94296875 10.01171875 243.4609375 C11.17935746 244.49475695 12.35398973 245.52072637 13.53515625 246.5390625 C16.12505998 248.86104515 17.7745387 250.35191668 18.93359375 253.68359375 C19.0550746 257.9211316 17.78367381 260.96443104 15.25 264.3125 C12.35134048 266.48649464 10.62676665 266.92888693 7 267 C-0.82747914 264.89260177 -6.10452901 258.75997635 -11.796875 253.265625 C-13.43377121 251.70191775 -13.43377121 251.70191775 -16 250 C-19.87872716 250.30445756 -21.90442621 251.39383439 -24.671875 254.0625 C-25.33251953 254.6908374 -25.99316406 255.3191748 -26.67382812 255.96655273 C-27.35896484 256.63759033 -28.04410156 257.30862793 -28.75 258 C-29.45576172 258.67683838 -30.16152344 259.35367676 -30.88867188 260.05102539 C-32.93745701 262.0224402 -34.97178466 264.007449 -37 266 C-37.80147461 266.78673096 -37.80147461 266.78673096 -38.61914062 267.58935547 C-41.10301067 270.03669801 -43.56495732 272.50408125 -46 275 C-41.47557283 280.5026817 -36.53480336 285.34592944 -31.29296875 290.15625 C-28.5609147 293.54455554 -28.16668083 295.69660413 -28 300 C-28.96195217 303.52715796 -30.2120953 305.66279583 -33 308 C-35.05078125 308.65234375 -35.05078125 308.65234375 -37.3125 308.9375 C-38.05113281 309.04964844 -38.78976562 309.16179687 -39.55078125 309.27734375 C-45.74698168 308.57570064 -50.23443411 303.02347294 -54.375 298.75 C-54.92027344 298.19570313 -55.46554687 297.64140625 -56.02734375 297.0703125 C-57.35622977 295.71811269 -58.67878548 294.3596965 -60 293 C-68.90543111 304.0435192 -77.980781 316.06860093 -84 329 C-83.31292969 329.66386719 -82.62585938 330.32773437 -81.91796875 331.01171875 C-80.56638672 332.33623047 -80.56638672 332.33623047 -79.1875 333.6875 C-78.29417969 334.55761719 -77.40085937 335.42773438 -76.48046875 336.32421875 C-73.11129465 339.95868215 -71.15720883 342.53271754 -70.625 347.5 C-71.02664502 351.2486869 -71.6595378 353.07442224 -74 356 C-77.44942334 358.58706751 -80.81711016 358.55771865 -85 358 C-87.94754422 356.3173468 -90.4413365 354.218841 -93 352 C-94.0209375 351.14148438 -94.0209375 351.14148438 -95.0625 350.265625 C-96.72233467 348.86011984 -98.36316803 347.43222798 -100 346 C-100.7528125 346.61746094 -101.505625 347.23492187 -102.28125 347.87109375 C-119.30159248 361.56527775 -139.02010109 371.47771652 -161 374 C-161.02578125 374.86882812 -161.0515625 375.73765625 -161.078125 376.6328125 C-161.6501182 388.2546744 -161.6501182 388.2546744 -166 393 C-169.47263273 394.73631636 -173.21193013 394.60190402 -177 394 C-179.75569447 391.81840855 -181.43588747 390.12822506 -183 387 C-183.07092842 384.7927077 -183.08415025 382.58332548 -183.0625 380.375 C-183.05347656 379.18648438 -183.04445312 377.99796875 -183.03515625 376.7734375 C-183.01775391 375.40058594 -183.01775391 375.40058594 -183 374 C-183.845625 373.95101563 -184.69125 373.90203125 -185.5625 373.8515625 C-191.94709185 373.43075986 -197.85792595 372.80649237 -204 371 C-204.33 372.155 -204.66 373.31 -205 374.5 C-208.99462319 386.39009906 -215.22490304 397.20520012 -223 407 C-223.66 407.86238281 -224.32 408.72476562 -225 409.61328125 C-235.33035298 422.90957542 -247.53414589 432.51861403 -262 440.9375 C-270.47967765 445.88258799 -277.83215973 451.31143583 -285 458 C-285.69222656 458.62390625 -286.38445312 459.2478125 -287.09765625 459.890625 C-298.63544837 470.74375693 -306.61422365 485.95829563 -310.18994141 501.27758789 C-311.40613707 506.15578019 -313.01348732 508.91119091 -317 512 C-320.08544091 512.85060956 -322.87224998 512.62894973 -326 512 C-328.87029869 510.20606332 -330.49131638 509.01736724 -332 506 C-333.52918645 487.64976264 -322.16754558 467.12604821 -310.68945312 453.43701172 C-307.56547483 449.85407589 -304.2977433 446.42265781 -301 443 C-300.41734375 442.35417969 -299.8346875 441.70835937 -299.234375 441.04296875 C-291.31151413 432.49988392 -280.86986877 426.46197281 -270.9375 420.5625 C-248.03768185 406.83709503 -234.05543813 387.4787072 -224 363 C-224.86882812 362.74734375 -225.73765625 362.4946875 -226.6328125 362.234375 C-230.14197602 360.94795311 -232.79610158 359.35704454 -235.875 357.25 C-236.91527344 356.54617188 -237.95554688 355.84234375 -239.02734375 355.1171875 C-242.22020066 352.84316852 -245.24350635 350.42742393 -248.18359375 347.8359375 C-250.05386639 346.7420114 -250.05386639 346.7420114 -252.40234375 347.6328125 C-260.67340862 351.98600454 -267.64499699 358.29523124 -274.44140625 364.62890625 C-276.62429259 366.65182535 -278.848806 368.58439119 -281.125 370.5 C-301.77338735 388.65059856 -315.83438546 413.97003632 -327.1484375 438.671875 C-334.78614557 455.29591628 -343.62207986 469.49467917 -356 483 C-356.60199219 483.68449219 -357.20398438 484.36898438 -357.82421875 485.07421875 C-372.22356132 500.63421362 -394.08749083 511.27442458 -415.20458984 512.57055664 C-419.04671213 512.67604707 -422.57250437 512.7219205 -426.046875 510.96484375 C-429.2845607 507.69987418 -429.61430418 503.59870288 -429.76171875 499.24609375 C-428.56405048 495.71450784 -426.1300714 493.81090678 -423 492 C-420.32095909 491.15651504 -417.65937627 490.82058514 -414.875 490.5 C-407.31635255 489.38477639 -400.86143632 487.46873166 -394 484 C-392.54207031 483.27876953 -392.54207031 483.27876953 -391.0546875 482.54296875 C-368.11310382 470.23358116 -355.93815241 447.74072667 -345.30130005 424.98153687 C-338.85765373 411.25401072 -331.86569834 398.34665148 -323 386 C-322.59233398 385.4210498 -322.18466797 384.84209961 -321.76464844 384.24560547 C-306.24616427 362.27539405 -287.27708403 345.20305763 -266 329 C-267.10210905 327.24870343 -268.20677432 325.49901536 -269.3125 323.75 C-269.92738281 322.77546875 -270.54226563 321.8009375 -271.17578125 320.796875 C-272.70475759 318.45266287 -274.28820977 316.21215968 -276 314 C-303.32592737 324.84419194 -321.45897724 341.89042396 -336.77685547 366.85668945 C-340.76149203 373.29716089 -345.15013669 379.18634387 -350 385 C-350.76828125 385.93972656 -351.5365625 386.87945312 -352.328125 387.84765625 C-357.90239055 394.2716574 -366.86712009 404.30308183 -375.75 405.3125 C-379.83140958 404.92005677 -381.84684973 403.56651766 -385 401 C-386.24755826 397.25732523 -386.62959488 393.88126726 -386 390 C-383.42723858 385.93337711 -380.43841113 383.51276261 -376.625 380.625 C-365.40488457 372.10362733 -357.53222195 359.52365986 -350.5625 347.4375 C-346.16136045 339.87889398 -340.90675852 333.42683733 -335 327 C-334.15953125 326.06542969 -333.3190625 325.13085938 -332.453125 324.16796875 C-319.73648435 310.69989024 -303.4075109 300.33696341 -286 294 C-285.01 294 -284.02 294 -283 294 C-283.20496094 293.28714844 -283.40992188 292.57429688 -283.62109375 291.83984375 C-283.89050781 290.88207031 -284.15992188 289.92429687 -284.4375 288.9375 C-284.70433594 287.99777344 -284.97117187 287.05804688 -285.24609375 286.08984375 C-289.56542357 268.38730549 -289.29885145 244.94602901 -282 228 C-282.68964844 227.89042969 -283.37929688 227.78085938 -284.08984375 227.66796875 C-299.50797751 225.06655523 -299.50797751 225.06655523 -304.5625 220.875 C-306.58158934 216.83682131 -306.90568703 213.42424108 -306 209 C-303.46503663 205.19755495 -301.89843643 204.19604041 -297.4375 203.22265625 C-292.32427751 202.69002891 -287.8737284 204.00383028 -283 205.4375 C-281.69482422 205.80198242 -281.69482422 205.80198242 -280.36328125 206.17382812 C-278.23805131 206.76935959 -276.11766113 207.3781928 -274 208 C-273.58226318 207.33057373 -273.16452637 206.66114746 -272.73413086 205.97143555 C-270.80241627 202.87648066 -268.86996162 199.78198849 -266.9375 196.6875 C-266.28072266 195.63498047 -265.62394531 194.58246094 -264.94726562 193.49804688 C-260.66570434 186.64333053 -256.35088403 179.81092764 -252 173 C-252.47421387 172.5560791 -252.94842773 172.1121582 -253.43701172 171.65478516 C-255.58333399 169.64520481 -257.72917243 167.63510857 -259.875 165.625 C-260.99455078 164.57699219 -260.99455078 164.57699219 -262.13671875 163.5078125 C-262.85214844 162.8375 -263.56757813 162.1671875 -264.3046875 161.4765625 C-264.96452637 160.85861816 -265.62436523 160.24067383 -266.30419922 159.60400391 C-270.3202536 155.80534608 -270.3202536 155.80534608 -270.4375 151.75 C-270.34139774 148.44514996 -269.95745153 146.17537825 -268.0625 143.4375 C-264.50143784 140.60318522 -262.77931256 140.35120595 -258.37890625 140.3984375 C-252.63723451 141.85035449 -248.3602678 146.32462984 -244.125 150.25 C-242.67480469 151.58804688 -242.67480469 151.58804688 -241.1953125 152.953125 C-240.47085938 153.62859375 -239.74640625 154.3040625 -239 155 C-234.9280207 151.10049865 -231.43535442 146.91532443 -227.9375 142.5 C-223.1117529 136.45875565 -218.10592538 130.6876572 -212.69506836 125.16210938 C-209.11684284 121.64360484 -209.11684284 121.64360484 -208 117 C-209.31502877 115.19066394 -209.31502877 115.19066394 -211.25 113.625 C-214.42328497 110.64211213 -216.5929206 108.22123819 -218 104 C-218 99.66360584 -217.45927758 97.62137555 -214.875 94.125 C-211.34143097 91.51323159 -209.39278346 90.92426235 -205 91 C-199.54251164 93.39363525 -196.03702304 96.66758503 -192 101 C-188.02433915 99.37747493 -185.24185158 96.60799925 -182.1875 93.6875 C-176.53499197 88.36874661 -170.73853214 83.24610213 -164.8503418 78.19018555 C-161.34629123 75.18118832 -161.34629123 75.18118832 -158 72 C-158.56589844 71.09636719 -159.13179688 70.19273438 -159.71484375 69.26171875 C-160.4558918 68.07041365 -161.19676827 66.87900181 -161.9375 65.6875 C-162.31068359 65.09259766 -162.68386719 64.49769531 -163.06835938 63.88476562 C-166.27725491 58.71006021 -167.52910146 55.1375769 -167 49 C-165.20437595 46.24670979 -163.94745078 44.47372539 -161 43 C-156.49372863 42.38027702 -153.11313233 42.22339605 -149.3125 44.875 C-146.21042279 49.06699623 -143.56383158 53.46263484 -141 58 C-136.71114544 56.5306702 -133.3491944 54.24659222 -129.75 51.5625 C-121.72303647 45.6926872 -113.38526973 40.33977225 -105 35 C-106.10822602 31.4964155 -107.27725381 28.27322794 -109.0625 25.0625 C-111.56009114 20.1330438 -112.70543613 16.15780463 -110.9375 10.75 C-108.55932365 7.37452388 -106.91908675 6.2812399 -103 5 C-98.78210949 5 -96.75604208 5.35724499 -93.5234375 8.10546875 C-90.70924209 11.33351642 -88.98400593 14.46171134 -87.1875 18.3125 C-86.87619141 18.95767578 -86.56488281 19.60285156 -86.24414062 20.26757812 C-85.48676288 21.84059344 -84.74203942 23.41969126 -84 25 C-80.04321137 24.44399832 -76.09251912 23.86159469 -72.14453125 23.24609375 C-55.89385553 20.75170525 -40.09174554 19.78979659 -24 24 C-23.69296143 23.41508789 -23.38592285 22.83017578 -23.06958008 22.22753906 C-21.66205688 19.56209983 -20.2375151 16.90612572 -18.8125 14.25 C-18.32974609 13.32960938 -17.84699219 12.40921875 -17.34960938 11.4609375 C-13.23131544 3.83241987 -9.39601859 -1.93614929 0 0 Z M-79 46 C-79.88300781 46.27714844 -80.76601563 46.55429687 -81.67578125 46.83984375 C-109.81637383 56.83412949 -135.89979548 80.50495623 -158 100 C-159.23169922 101.08087891 -159.23169922 101.08087891 -160.48828125 102.18359375 C-163.01601241 104.43093792 -165.51159263 106.70914029 -168 109 C-168.60682617 109.5563916 -169.21365234 110.1127832 -169.83886719 110.68603516 C-183.00610646 122.79140029 -195.69484616 135.30098193 -206.84375 149.3203125 C-208.80200465 151.75394057 -210.82465544 154.11739913 -212.87451172 156.47387695 C-219.61095113 164.25414164 -225.60629885 172.51190969 -231.53222656 180.91943359 C-232.80211022 182.71949156 -234.08220369 184.5114998 -235.3671875 186.30078125 C-258.11699278 218.36818407 -258.11699278 218.36818407 -267 256 C-267.05027344 256.95519531 -267.10054687 257.91039062 -267.15234375 258.89453125 C-267.62366181 274.18408896 -263.9225498 288.03857594 -258 302 C-257.67128906 302.78890625 -257.34257812 303.5778125 -257.00390625 304.390625 C-254.22255268 310.47251813 -250.04290341 315.71250057 -246 321 C-245.55527344 321.59039062 -245.11054688 322.18078125 -244.65234375 322.7890625 C-235.77151728 334.04814419 -222.26081963 342.89240899 -209 348 C-208.04480469 348.36867188 -207.08960938 348.73734375 -206.10546875 349.1171875 C-183.98933561 357.05928512 -159.31966661 355.69338022 -138 346 C-137.11957031 345.608125 -136.23914063 345.21625 -135.33203125 344.8125 C-114.99103593 335.22542624 -102.2851469 319.05653236 -90.74047852 300.44091797 C-74.27670136 274.11660835 -52.92891215 248.67001266 -28 230 C-26.80532012 229.07768943 -25.61136544 228.15443906 -24.41796875 227.23046875 C-17.37670998 221.82567019 -10.19511204 216.76996188 -2.75 211.9375 C18.94901622 197.73983392 33.73458918 178.08559287 39.96875 152.75 C44.76481511 129.4222003 40.42339108 104.74016187 27.6875 84.6875 C13.57998015 63.3170551 -5.87787198 50.10593678 -30.33984375 43.54296875 C-46.52179757 40.24004426 -63.3418579 40.82866883 -79 46 Z " fill="#000000" transform="translate(430,0)"/>
<path d="M0 0 C0.85980469 0.36867188 1.71960938 0.73734375 2.60546875 1.1171875 C23.72768558 10.85557046 39.31516222 29.48653594 47.8203125 50.7734375 C56.44643142 74.36672965 55.37153918 99.87989491 44.9140625 122.69140625 C40.67531561 131.38276878 35.55986332 138.8782117 29 146 C28.19369141 146.92619141 28.19369141 146.92619141 27.37109375 147.87109375 C20.24085326 155.60892365 10.68176826 161.25939948 1.9375 167 C-4.63260383 171.35106214 -10.86358518 176.06556334 -17 181 C-17.53286621 181.42700195 -18.06573242 181.85400391 -18.61474609 182.29394531 C-33.72366084 194.5217101 -48.3162947 208.43667663 -60 224 C-60.87499273 225.11300976 -61.75139972 226.22490857 -62.62890625 227.3359375 C-68.95365846 235.45213072 -74.53692789 243.90763458 -80 252.625 C-91.08971702 270.22435469 -102.93369696 284.67142255 -122 294 C-122.84949219 294.44085938 -123.69898438 294.88171875 -124.57421875 295.3359375 C-144.7848888 305.30532631 -169.55151472 307.01657118 -191.05029297 300.36572266 C-203.03003263 296.2501447 -213.24270655 290.01872116 -223 282 C-223.66773438 281.47921875 -224.33546875 280.9584375 -225.0234375 280.421875 C-237.28156953 270.44094536 -244.37501038 256.44201488 -250 242 C-250.30035156 241.24976563 -250.60070312 240.49953125 -250.91015625 239.7265625 C-258.64646873 218.81130564 -256.12059648 194.03719306 -247 174 C-244.02404291 168.11807668 -240.53445075 162.55761028 -237 157 C-236.12236634 155.59507051 -235.24476213 154.19012262 -234.3671875 152.78515625 C-219.29070376 128.88894334 -201.83148182 106.56283337 -182.6328125 85.8515625 C-180.14289466 83.15476721 -177.69207228 80.42758788 -175.25 77.6875 C-169.80000312 71.62764557 -164.13339077 66.05645477 -157.95703125 60.7421875 C-156.1146332 59.10204871 -154.40011364 57.39892439 -152.6875 55.625 C-149.02090756 51.90033935 -145.02193985 48.6606695 -140.953125 45.38671875 C-137.05379831 42.23527879 -133.23330025 38.99319726 -129.41015625 35.75 C-120.32397501 28.30280935 -110.70351463 21.61580527 -100.93652344 15.10571289 C-98.99681688 13.81037431 -97.06480527 12.50407257 -95.1328125 11.19726562 C-85.19389098 4.52459622 -75.15530666 -1.48525942 -63.5625 -4.8125 C-62.56186523 -5.11704102 -62.56186523 -5.11704102 -61.54101562 -5.42773438 C-41.34685668 -11.47998973 -19.03218339 -8.41953543 0 0 Z M-127 60 C-129.0326419 64.0652838 -128.17904475 68.75169592 -127 73 C-129.06964176 75.03674283 -131.15359702 77.05363419 -133.25 79.0625 C-133.83652344 79.64322266 -134.42304688 80.22394531 -135.02734375 80.82226562 C-135.60097656 81.36689453 -136.17460937 81.91152344 -136.765625 82.47265625 C-137.28930664 82.98062744 -137.81298828 83.48859863 -138.35253906 84.01196289 C-140 85 -140 85 -142.06567383 84.67504883 C-143.02316528 84.34089966 -143.02316528 84.34089966 -144 84 C-148.74063834 83.40636014 -151.94932635 83.3352881 -156.0625 85.9375 C-158.6647119 90.05067365 -158.59363986 93.25936166 -158 98 C-157.72542969 98.63292969 -157.45085937 99.26585937 -157.16796875 99.91796875 C-157 102 -157 102 -159.08984375 104.796875 C-160.0264467 105.79326112 -160.97630459 106.7773162 -161.9375 107.75 C-162.41896484 108.25660156 -162.90042969 108.76320313 -163.39648438 109.28515625 C-164.58653954 110.53412504 -165.79186613 111.7685103 -167 113 C-168.485 112.505 -168.485 112.505 -170 112 C-173.21002649 111.25872882 -175.79712623 111.15472648 -179 112 C-182.59992344 114.85229536 -185.22641067 118.36142688 -188 122 C-188.78117187 122.97710937 -189.56234375 123.95421875 -190.3671875 124.9609375 C-224.96185293 168.32349189 -224.96185293 168.32349189 -234.76171875 221.0625 C-232.44666371 240.14416576 -222.68174568 256.78419192 -208 269 C-200.98800315 274.26521395 -193.30103827 278.22852432 -185 281 C-184.22140625 281.29777344 -183.4428125 281.59554688 -182.640625 281.90234375 C-166.15110924 287.45859363 -147.8885921 284.2274279 -132.33984375 277.390625 C-114.37442312 268.22931109 -104.87045412 254.63093504 -94.58374023 237.90820312 C-89.80682949 230.178892 -84.77000413 223.02826048 -79 216 C-77.99558101 214.73320766 -76.99308845 213.4648863 -75.9921875 212.1953125 C-66.87894097 200.70759521 -57.3387002 189.09022025 -46.0078125 179.703125 C-43.49019438 177.56755788 -41.14033689 175.27714545 -38.75 173 C-28.09095728 163.07028775 -16.04088272 154.53819195 -3.875 146.5625 C14.49361539 134.50611519 26.38388871 120.12724631 31.75 98.5625 C35.8999776 77.65299748 31.82157074 58.74219736 20.05078125 41.07421875 C9.14319783 26.84789798 -6.27487656 15.89827692 -24.125 12.6875 C-64.46913194 7.65053755 -98.61037667 33.65911237 -127 60 Z " fill="#C6F0FB" transform="translate(418,50)"/>
<path d="M0 0 C12.68402913 10.39567336 21.3332106 26.95143623 24 43 C24.27688151 46.06940106 24.33456467 49.10676041 24.3125 52.1875 C24.30758545 53.01266113 24.3026709 53.83782227 24.29760742 54.68798828 C23.97621352 71.69384623 18.67848063 86.80281342 8 100 C7.51402344 100.67289062 7.02804687 101.34578125 6.52734375 102.0390625 C0.63337722 109.67764313 -8.10201519 114.65912714 -16 120 C-29.69595815 129.30167027 -42.38777433 139.1417052 -54.41210938 150.51367188 C-56.00280727 152.00262772 -57.61361641 153.46574002 -59.234375 154.921875 C-64.87744594 159.9941226 -70.14774298 165.15428519 -75 171 C-76.175625 172.34384766 -76.175625 172.34384766 -77.375 173.71484375 C-88.36166802 186.31245417 -98.14959172 199.70715751 -106.8125 214 C-118.7561525 233.66508939 -133.00289593 246.62494281 -155.25 253.5 C-174.92333889 258.11805744 -193.73569467 254.61547794 -210.84765625 244.16796875 C-215.67512069 240.84796533 -219.88740983 237.16283123 -224 233 C-224.70769531 232.31421875 -225.41539062 231.6284375 -226.14453125 230.921875 C-238.8098126 217.84491146 -244.41519946 198.8613642 -244.14453125 180.97265625 C-242.45163577 146.15391412 -212.01841858 107.01841858 -188 83 C-183.64011649 82.26335956 -179.98676651 82.52717438 -176 84.4375 C-173.6275445 87.47720861 -172.64873312 89.47393232 -172.421875 93.32421875 C-173.6241243 98.8886834 -177.98350334 103.14178168 -181.60791016 107.37207031 C-199.3272355 128.09330171 -224.0319373 158.17883229 -223.3515625 186.4453125 C-221.95003194 200.61634368 -215.40961058 213.40389965 -205 223 C-198.61284355 227.80842473 -191.55404704 230.54901968 -184 233 C-183.01 233.33 -182.02 233.66 -181 234 C-165.71066192 235.09209558 -150.81924915 232.32442986 -138.77563477 222.11425781 C-132.96418375 216.43300763 -128.8019511 210.41743225 -124.6875 203.4375 C-118.63767147 193.48343048 -112.23920207 184.11620845 -105 175 C-104.49291504 174.35160156 -103.98583008 173.70320312 -103.46337891 173.03515625 C-95.19941521 162.47950514 -86.31303532 152.63631106 -77 143 C-76.51901855 142.49710449 -76.03803711 141.99420898 -75.54248047 141.47607422 C-70.28065461 135.98202361 -64.77492562 131.01202169 -58.828125 126.26953125 C-55.95759026 123.96596677 -53.17014786 121.58170452 -50.375 119.1875 C-41.79058517 112.01711978 -32.54458967 105.72264405 -23.26953125 99.484375 C-10.39124858 90.80336452 -0.77883178 81.15180735 2.56640625 65.33984375 C4.69919657 48.91159401 2.03692547 35.4813221 -7.55859375 21.7734375 C-13.86997142 13.93340481 -22.52566993 9.05105545 -32 6 C-32.88558594 5.65195313 -33.77117187 5.30390625 -34.68359375 4.9453125 C-38.79050397 3.77467378 -42.50177388 3.65634486 -46.75 3.6875 C-47.95088257 3.69595947 -47.95088257 3.69595947 -49.17602539 3.70458984 C-64.21188807 4.01278307 -75.72700333 11.85416361 -87.8125 20.1875 C-88.76737305 20.84169922 -89.72224609 21.49589844 -90.70605469 22.16992188 C-96.18548033 25.95611061 -101.5429921 29.84735229 -106.75 34 C-107.57951172 34.66032227 -107.57951172 34.66032227 -108.42578125 35.33398438 C-110.87556393 37.29082298 -113.31742624 39.25709274 -115.75390625 41.23046875 C-120.37876552 44.76795653 -124.03273235 47.14758578 -130.015625 46.6171875 C-133.76718509 45.45036369 -135.13053267 43.31679688 -137 40 C-137.625 36.5 -137.625 36.5 -137 33 C-133.40774229 28.04445664 -129.20139488 24.56770578 -124.3125 20.9375 C-123.19862915 20.10049561 -123.19862915 20.10049561 -122.06225586 19.24658203 C-119.71450765 17.48903335 -117.35782876 15.74399369 -115 14 C-113.88141602 13.1644458 -113.88141602 13.1644458 -112.74023438 12.31201172 C-83.56749836 -9.45228365 -83.56749836 -9.45228365 -67 -15 C-66.30777344 -15.24234375 -65.61554688 -15.4846875 -64.90234375 -15.734375 C-42.18942268 -22.21127735 -17.88048244 -14.00075511 0 0 Z " fill="#020202" transform="translate(427,79)"/>
<path d="M0 0 C6.39989892 4.99504306 10.28571019 11.92353682 12.83203125 19.5625 C13.82025374 32.04831102 11.00372169 41.62037826 3.375 51.4375 C-2.36332104 57.91579918 -9.78936789 61.27216668 -18.37109375 62.04296875 C-26.98700032 62.47797069 -33.96362759 61.70458154 -41.16796875 56.5625 C-41.82152344 56.10488281 -42.47507812 55.64726562 -43.1484375 55.17578125 C-49.52664783 50.21192886 -53.75314855 43.53694115 -55.16796875 35.5625 C-56.20357538 24.35275792 -54.48953708 14.83708066 -47.54296875 5.75 C-35.15170008 -7.38345404 -15.07533279 -9.99589634 0 0 Z " fill="#030201" transform="translate(374.16796875,128.4375)"/>
<path d="M0 0 C3.63388212 1.36735033 6.38674281 3.28783036 8.9375 6.25 C10.87213789 11.25729806 10.60872134 15.3340258 8.8125 20.25 C6.46100791 23.8177811 3.81557843 26.09221079 0 28 C-5.38004242 28.60644601 -9.595784 29.0316689 -14.0625 25.75 C-14.701875 24.8425 -15.34125 23.935 -16 23 C-16.433125 22.401875 -16.86625 21.80375 -17.3125 21.1875 C-18.89781375 16.1433199 -18.69735357 12.34305132 -16.3125 7.75 C-11.38174236 1.88639632 -7.7126317 -0.63218293 0 0 Z " fill="#FA5B5B" transform="translate(357,142)"/>
<path d="M0 0 C2.93087207 2.25451698 3.82814288 3.48442865 5 7 C5.24874332 9.95401536 5.23115464 12.91156767 5.25 15.875 C5.270625 16.67808594 5.29125 17.48117188 5.3125 18.30859375 C5.34365548 23.03643817 5.08800902 26.16968112 2 30 C-1.09994892 31.89441323 -2.90775048 32.00323683 -6.5625 31.875 C-10.31119446 30.92078686 -11.64009442 29.99526478 -14 27 C-15.68156955 23.63686091 -15.22674377 19.88233413 -15.25 16.1875 C-15.270625 15.37990234 -15.29125 14.57230469 -15.3125 13.74023438 C-15.35098164 7.86697337 -14.31401206 4.57112451 -10.3125 0.125 C-6.77669653 -1.59512061 -3.70591031 -1.13384114 0 0 Z " fill="#040301" transform="translate(304,198)"/>
<path d="M0 0 C6.15029758 1.88570445 11.00726147 7.54604845 14.484375 12.76171875 C15.15664391 19.70849746 15.15664391 19.70849746 12.609375 23.69921875 C9.57393999 26.64537626 7.13491042 27.39065746 2.8515625 27.3828125 C-3.18437833 25.79912505 -8.16213248 19.79195752 -11.515625 14.76171875 C-12.34552094 10.09682999 -12.12743679 6.7287761 -9.578125 2.69921875 C-6.11897533 0.51077712 -4.0561843 -0.19736467 0 0 Z " fill="#070503" transform="translate(249.515625,260.23828125)"/>
<path d="M0 0 C8.03334128 0.09007824 8.03334128 0.09007824 11.1875 2.3125 C13.66234289 5.87918534 14.12829325 7.95060131 13.84375 12.21875 C12.98981226 15.68473258 11.11000603 17.29313505 8.3125 19.375 C3.96700479 20.8234984 -0.14606966 20.89765295 -4.6875 20.375 C-8.54294798 18.37842873 -10.28555092 16.97792362 -12.6875 13.375 C-13.125 10 -13.125 10 -12.6875 6.375 C-10.25 3.5 -10.25 3.5 -7.6875 1.375 C-5.76766787 -0.54483213 -2.55831238 0.06950483 0 0 Z " fill="#060402" transform="translate(253.6875,218.625)"/>
<path d="M0 0 C2.38312703 1.89428046 3.6500559 3.30011179 5 6 C5.57884232 13.06187625 5.57884232 13.06187625 3.1875 16.9375 C0.29531575 19.66441658 -1.48718706 19.97202839 -5.4375 20.1875 C-10.55897436 19.91794872 -10.55897436 19.91794872 -13 18 C-15.29147823 14.60229091 -16 12.55333147 -16 8.4375 C-14.81383817 4.36006871 -13.23715865 2.68447302 -10 0 C-6.74577611 -1.62711194 -3.40725698 -0.89060975 0 0 Z " fill="#000000" transform="translate(21,402)"/>
<path d="M0 0 C3.0625 1.9375 3.0625 1.9375 5 5 C6.03945854 9.75058323 5.669717 12.94141507 3.0625 17.0625 C-1.05858493 19.669717 -4.24941677 20.03945854 -9 19 C-12.0625 17.0625 -12.0625 17.0625 -14 14 C-15.03945854 9.24941677 -14.669717 6.05858493 -12.0625 1.9375 C-7.94141507 -0.669717 -4.75058323 -1.03945854 0 0 Z " fill="#030302" transform="translate(274,134)"/>
</svg>
