<?xml version="1.0" encoding="UTF-8"?>
<svg version="1.1" xmlns="http://www.w3.org/2000/svg" width="512" height="512">
<path d="M0 0 C1.301437 -0.01879967 1.301437 -0.01879967 2.62916565 -0.03797913 C3.55325729 -0.02472092 4.47734894 -0.01146271 5.42944336 0.00219727 C6.3895079 -0.00021469 7.34957245 -0.00262665 8.33872986 -0.00511169 C10.36355734 -0.00413423 12.38841187 0.00923537 14.41308594 0.03417969 C17.5125595 0.06852896 20.60918772 0.0548233 23.70874023 0.03540039 C25.67815341 0.0422979 27.64755923 0.05196942 29.61694336 0.06469727 C30.54305923 0.0597374 31.46917511 0.05477753 32.4233551 0.04966736 C33.72006386 0.07342186 33.72006386 0.07342186 35.04296875 0.09765625 C35.80066055 0.10385483 36.55835236 0.11005341 37.33900452 0.11643982 C40.56084845 0.89941259 41.58290408 1.87217039 43.45678711 4.63110352 C44.03340191 7.90404278 43.9616427 11.13316084 43.91088867 14.44848633 C43.91147278 15.44393463 43.91205688 16.43938293 43.91265869 17.46499634 C43.90987211 20.75509518 43.87875207 24.04428794 43.84741211 27.33422852 C43.83995179 29.61537176 43.83425787 31.8965214 43.83026123 34.17767334 C43.81498861 40.18165786 43.77569225 46.18525532 43.73144531 52.18908691 C43.69052803 58.31553918 43.67225776 64.44205399 43.65209961 70.56860352 C43.60919999 82.58960691 43.54092857 94.61032303 43.45678711 106.63110352 C44.73525513 106.59182739 44.73525513 106.59182739 46.03955078 106.55175781 C49.21705838 106.46628859 52.39397821 106.40373563 55.57226562 106.35644531 C56.94485813 106.33137735 58.31731813 106.29731269 59.68945312 106.25390625 C61.66729407 106.1929282 63.64612894 106.16749342 65.62475586 106.14282227 C66.81351318 106.11663818 68.00227051 106.0904541 69.22705078 106.06347656 C73.54227032 106.82187746 74.77547307 108.19496066 77.45678711 111.63110352 C77.93855028 114.64430819 78.11342573 117.08442315 78.05805969 120.09089661 C78.06233182 120.94046407 78.06660394 121.79003153 78.07100552 122.66534346 C78.0792389 125.51099388 78.05174518 128.35516909 78.02441406 131.20068359 C78.02300367 133.24080368 78.0237954 135.28092631 78.02662659 137.32104492 C78.02806246 142.86005037 77.99864443 148.39851556 77.9637568 153.93739533 C77.93252217 159.72562571 77.92956483 165.51386816 77.92362976 171.3021698 C77.90808286 182.26336475 77.86704272 193.22431066 77.81688231 204.1853959 C77.76101537 216.66407844 77.73350898 229.1427728 77.70840514 241.62154925 C77.65612778 267.29154347 77.5671629 292.96129905 77.45678711 318.63110352 C83.39678711 318.63110352 89.33678711 318.63110352 95.45678711 318.63110352 C95.44790466 317.36212219 95.43902222 316.09314087 95.42987061 314.78570557 C95.34884854 302.83749142 95.28885225 290.88933287 95.24953842 278.94090652 C95.22864742 272.79780901 95.20030166 266.65493294 95.1550293 260.51196289 C95.11162628 254.58567879 95.08766141 248.65960793 95.07727814 242.73317719 C95.06987686 240.47008659 95.05542421 238.2070079 95.03386688 235.94400787 C95.00490726 232.77857575 95.00082808 229.61402921 95.00268555 226.44848633 C94.98111389 225.03939499 94.98111389 225.03939499 94.95910645 223.60183716 C94.99919378 217.30482187 94.99919378 217.30482187 97.20930481 214.05085754 C99.68487185 212.48702041 100.96723333 212.12140836 103.87060547 212.09765625 C105.16731422 212.07390175 105.16731422 212.07390175 106.49021912 212.04966736 C107.41633499 212.05462723 108.34245087 212.0595871 109.29663086 212.06469727 C110.25573868 212.05849869 111.2148465 212.05230011 112.20301819 212.0459137 C114.22957342 212.03881606 116.25618697 212.04198855 118.28271484 212.0546875 C121.38024511 212.06854072 124.47474697 212.03449682 127.57202148 211.99633789 C129.54272535 211.99538655 131.51343299 211.99724631 133.48413086 212.00219727 C134.4082225 211.98893906 135.33231415 211.97568085 136.28440857 211.96202087 C137.15203323 211.97455399 138.0196579 211.9870871 138.91357422 212 C139.67206161 212.00096176 140.43054901 212.00192352 141.21202087 212.00291443 C144.99786966 213.06236946 146.21252967 214.36537403 148.45678711 217.63110352 C149.18956386 221.97937093 149.08749831 226.28343015 149.02441406 230.68310547 C149.02300289 232.02372688 149.02379692 233.36435215 149.02662659 234.70497131 C149.02805951 238.3371308 148.9986912 241.96846246 148.9637568 245.60042977 C148.93247192 249.3987127 148.9295609 253.19701522 148.92362976 256.9954071 C148.90809748 264.18486473 148.8670777 271.37394159 148.81688231 278.56323165 C148.76096941 286.74935321 148.73349751 294.93549308 148.70840514 303.1217581 C148.656161 319.95842937 148.56823112 336.79471783 148.45678711 353.63110352 C149.33939209 353.60491943 150.22199707 353.57873535 151.13134766 353.55175781 C154.42090291 353.46630077 157.70927133 353.40374607 160.99951172 353.35644531 C162.42060002 353.33137204 163.84156024 353.29730353 165.26220703 353.25390625 C167.31046173 353.19292494 169.35700594 353.1648259 171.40600586 353.14282227 C172.63665771 353.11663818 173.86730957 353.0904541 175.13525391 353.06347656 C179.38175378 353.78917389 180.80524044 355.31079717 183.45678711 358.63110352 C184.5559026 361.92844997 184.57073271 364.36069097 184.55444336 367.83032227 C184.5512207 369.03881836 184.54799805 370.24731445 184.54467773 371.49243164 C184.53629883 372.75506836 184.52791992 374.01770508 184.51928711 375.31860352 C184.51477539 376.5928418 184.51026367 377.86708008 184.50561523 379.17993164 C184.49381594 382.33034221 184.47588029 385.4807287 184.45678711 388.63110352 C190.06678711 388.63110352 195.67678711 388.63110352 201.45678711 388.63110352 C201.44790466 387.38939896 201.43902222 386.1476944 201.42987061 384.86836243 C201.34880949 373.17063551 201.28883344 361.47296553 201.24953842 349.77502155 C201.22865734 343.76086541 201.20032962 337.74693588 201.1550293 331.73291016 C201.11159098 325.92981423 201.08765393 320.12693637 201.07727814 314.32369041 C201.06988321 312.10887405 201.0554428 309.8940697 201.03386688 307.67934608 C201.00486034 304.57877366 201.00083005 301.47910409 201.00268555 298.37841797 C200.98830444 297.4613205 200.97392334 296.54422302 200.95910645 295.59933472 C200.98600446 291.44972448 201.1106022 289.20404867 203.29766846 285.58439636 C207.37917197 281.89197695 211.89801405 282.45490367 217.10522461 282.42797852 C217.95476715 282.42227844 218.80430969 282.41657837 219.67959595 282.41070557 C221.47673296 282.40126247 223.27388723 282.39472432 225.07104492 282.39086914 C227.81451748 282.3811646 230.55724038 282.35013566 233.30053711 282.31860352 C235.0479285 282.31207301 236.79532524 282.30682272 238.54272461 282.30297852 C239.36058441 282.29063171 240.17844421 282.27828491 241.02108765 282.26556396 C246.8615252 282.28830514 250.22473751 283.39905392 254.45678711 287.63110352 C254.71405602 290.20863152 254.71405602 290.20863152 254.72421265 293.53927612 C254.7370076 295.42791382 254.7370076 295.42791382 254.75006104 297.35470581 C254.74936195 298.75787366 254.74843885 300.16104141 254.74731445 301.56420898 C254.75329607 303.03583112 254.76010076 304.50745011 254.76766968 305.97906494 C254.7853752 309.98323631 254.79002699 313.98732226 254.79130125 317.99152899 C254.79319774 321.33154271 254.80055245 324.67153641 254.80764544 328.01154244 C254.82394461 335.89076187 254.82881304 343.76993558 254.82739258 351.64916992 C254.82619102 359.78239997 254.84729211 367.9153647 254.8788799 376.0485276 C254.90501581 383.02608011 254.91576099 390.00354583 254.91448176 396.98114693 C254.91397129 401.15083451 254.91970077 405.32028647 254.94083786 409.48992538 C254.96017505 413.41177971 254.96037612 417.33317261 254.9458046 421.25504303 C254.94370967 422.69499763 254.94845804 424.13498076 254.96052551 425.57488632 C254.97592486 427.53952083 254.96429498 429.50431198 254.95126343 431.46896362 C254.95235296 432.56883039 254.9534425 433.66869717 254.95456505 434.80189323 C254.33969809 438.29659996 253.18827105 439.44319013 250.45678711 441.63110352 C247.68827888 443.01535763 245.45259527 442.75070314 242.35473633 442.74462891 C241.07355927 442.74455338 239.7923822 442.74447784 238.47238159 442.74440002 C237.06874554 442.739293 235.66510988 442.73407699 234.26147461 442.72875977 C232.82943776 442.72689497 231.39740027 442.72547136 229.96536255 442.72447205 C226.19405357 442.72065171 222.42278303 442.71082553 218.65148926 442.69976807 C214.80404175 442.68954357 210.95658804 442.6849722 207.10913086 442.67993164 C199.55833208 442.66920284 192.00756498 442.65213221 184.45678711 442.63110352 C184.46726074 443.42282959 184.47773438 444.21455566 184.48852539 445.03027344 C184.53016557 448.62635102 184.55613904 452.2223778 184.58178711 455.81860352 C184.59854492 457.06448242 184.61530273 458.31036133 184.63256836 459.59399414 C184.63901367 460.79604492 184.64545898 461.9980957 184.65209961 463.23657227 C184.66257324 464.34154053 184.67304688 465.44650879 184.68383789 466.58496094 C184.37642358 470.70927102 183.628088 473.41392069 180.73309326 476.4223175 C177.69943691 478.03327891 175.46600211 477.99162221 172.03588867 477.97167969 C170.08431854 477.9713398 170.08431854 477.9713398 168.09332275 477.97099304 C166.67801569 477.95567419 165.26271216 477.94002622 163.84741211 477.92407227 C162.39581745 477.91847459 160.94421711 477.9142053 159.49261475 477.91120911 C155.67844907 477.89977371 151.864628 477.87031817 148.05059814 477.83709717 C144.15609397 477.8063679 140.26153392 477.79269769 136.36694336 477.77758789 C128.73006778 477.74544687 121.0934758 477.69426676 113.45678711 477.63110352 C113.46726074 478.45312256 113.47773438 479.2751416 113.48852539 480.12207031 C113.5301547 483.85421682 113.55613564 487.58631441 113.58178711 491.31860352 C113.59854492 492.61217773 113.61530273 493.90575195 113.63256836 495.23852539 C113.63901367 496.48569336 113.64545898 497.73286133 113.65209961 499.01782227 C113.66257324 500.16468506 113.67304688 501.31154785 113.68383789 502.49316406 C113.45309875 505.68207827 112.95277422 507.81595037 111.45678711 510.63110352 C108.35349715 512.69996349 107.66076816 512.88450327 104.140625 512.90576172 C103.27284927 512.91529373 102.40507355 512.92482574 101.51100159 512.93464661 C100.57658737 512.9337352 99.64217316 512.93282379 98.67944336 512.93188477 C97.2351017 512.93831245 97.2351017 512.93831245 95.76158142 512.94487 C93.72485134 512.95061377 91.68810075 512.95111321 89.65136719 512.94677734 C86.5347188 512.94361915 83.41902111 512.96706997 80.30249023 512.99243164 C78.32397581 512.99470479 76.34545883 512.99540806 74.36694336 512.99438477 C73.43455338 513.00359451 72.50216339 513.01280426 71.54151917 513.02229309 C65.11792984 512.97635221 65.11792984 512.97635221 61.89990234 511.29589844 C58.93822665 507.87927409 59.34032397 504.30116154 59.35913086 499.99438477 C59.36235352 498.6956543 59.36557617 497.39692383 59.36889648 496.05883789 C59.3772518 494.68709244 59.38571674 493.31534764 59.39428711 491.94360352 C59.39930376 490.56014156 59.40386638 489.17667788 59.40795898 487.79321289 C59.41976173 484.40582456 59.43769744 481.01845862 59.45678711 477.63110352 C53.84678711 477.63110352 48.23678711 477.63110352 42.45678711 477.63110352 C42.4915918 479.6665332 42.52639648 481.70196289 42.56225586 483.79907227 C42.5831242 485.78156432 42.60388304 487.76405915 42.62158203 489.74658203 C42.63662143 491.11904868 42.65705844 492.49146765 42.68310547 493.86376953 C42.71969932 495.84199008 42.73495409 497.82056865 42.74975586 499.79907227 C42.76546631 500.98782959 42.78117676 502.17658691 42.79736328 503.40136719 C42.42347457 506.94701147 41.58556294 508.80168517 39.45678711 511.63110352 C37.15865957 512.78016729 35.81118964 512.77520728 33.25415039 512.80810547 C32.38629913 512.8209407 31.51844788 512.83377594 30.6242981 512.84700012 C29.21493484 512.85808052 29.21493484 512.85808052 27.77709961 512.86938477 C26.81279022 512.87745651 25.84848083 512.88552826 24.85494995 512.8938446 C22.81225383 512.90768832 20.76953455 512.91840918 18.72680664 512.92626953 C15.60119929 512.94349652 12.4766457 512.98738173 9.35131836 513.03149414 C7.36825323 513.04161969 5.3851791 513.05013622 3.40209961 513.05688477 C2.46657257 513.07439285 1.53104553 513.09190094 0.56716919 513.10993958 C-5.92807574 513.08820171 -5.92807574 513.08820171 -9.10229492 510.72949219 C-11.6839659 506.96984087 -11.66072657 504.65924907 -11.64086914 500.09204102 C-11.63764648 498.79008789 -11.63442383 497.48813477 -11.63110352 496.14672852 C-11.62274755 494.76651953 -11.6142826 493.38631119 -11.60571289 492.00610352 C-11.6006979 490.61808426 -11.59613499 489.23006329 -11.59204102 487.84204102 C-11.58022274 484.43837678 -11.56228679 481.03473482 -11.54321289 477.63110352 C-17.15321289 477.63110352 -22.76321289 477.63110352 -28.54321289 477.63110352 C-28.5084082 479.6665332 -28.47360352 481.70196289 -28.43774414 483.79907227 C-28.4168758 485.78156432 -28.39611696 487.76405915 -28.37841797 489.74658203 C-28.36337857 491.11904868 -28.34294156 492.49146765 -28.31689453 493.86376953 C-28.28030068 495.84199008 -28.26504591 497.82056865 -28.25024414 499.79907227 C-28.22667847 501.58220825 -28.22667847 501.58220825 -28.20263672 503.40136719 C-28.57652543 506.94701147 -29.41443706 508.80168517 -31.54321289 511.63110352 C-33.84134043 512.78016729 -35.18881036 512.77520728 -37.74584961 512.80810547 C-38.61370087 512.8209407 -39.48155212 512.83377594 -40.3757019 512.84700012 C-41.78506516 512.85808052 -41.78506516 512.85808052 -43.22290039 512.86938477 C-44.18720978 512.87745651 -45.15151917 512.88552826 -46.14505005 512.8938446 C-48.18774617 512.90768832 -50.23046545 512.91840918 -52.27319336 512.92626953 C-55.39880071 512.94349652 -58.5233543 512.98738173 -61.64868164 513.03149414 C-63.63174677 513.04161969 -65.6148209 513.05013622 -67.59790039 513.05688477 C-68.53342743 513.07439285 -69.46895447 513.09190094 -70.43283081 513.10993958 C-76.90707324 513.088272 -76.90707324 513.088272 -80.10229492 510.79199219 C-82.68456891 506.91945626 -82.6614197 503.75480855 -82.64086914 499.21313477 C-82.63764648 497.95952148 -82.63442383 496.7059082 -82.63110352 495.41430664 C-82.62272461 494.10397461 -82.6143457 492.79364258 -82.60571289 491.44360352 C-82.60069606 490.1083187 -82.59613348 488.7730321 -82.59204102 487.43774414 C-82.58023984 484.16881879 -82.56377586 480.89998361 -82.54321289 477.63110352 C-83.34643478 477.63998596 -84.14965668 477.64886841 -84.97721863 477.65802002 C-92.55444149 477.73823664 -100.13145788 477.79910347 -107.70899487 477.8383522 C-111.60452099 477.85920898 -115.49969566 477.88749082 -119.39501953 477.93286133 C-123.15571347 477.9763886 -126.91606979 478.00025499 -130.67699623 478.01061249 C-132.11032741 478.01799164 -133.54364054 478.03240172 -134.97682762 478.05402374 C-136.98729743 478.08314309 -138.99810844 478.08473814 -141.00878906 478.08520508 C-142.15240402 478.09408752 -143.29601898 478.10296997 -144.47428894 478.11212158 C-148.25795196 477.5190765 -149.89444881 476.36289301 -152.54321289 473.63110352 C-153.96395898 470.36033353 -153.65750257 466.86051635 -153.64086914 463.33422852 C-153.63603516 461.52631836 -153.63603516 461.52631836 -153.63110352 459.68188477 C-153.61853516 457.80049805 -153.61853516 457.80049805 -153.60571289 455.88110352 C-153.60120117 454.61137695 -153.59668945 453.34165039 -153.59204102 452.03344727 C-153.58025845 448.89928515 -153.56380705 445.7652181 -153.54321289 442.63110352 C-154.33390671 442.63776535 -155.12460052 442.64442719 -155.93925476 442.65129089 C-163.39876382 442.71145659 -170.85815486 442.75710551 -178.31784344 442.78654003 C-182.15275632 442.80218147 -185.98746834 442.82339156 -189.82226562 442.85742188 C-193.52458985 442.89007019 -197.22672114 442.90796798 -200.92917824 442.91573524 C-202.34015756 442.92126898 -203.75112658 442.93207516 -205.16202354 442.94829369 C-207.14143916 442.97013801 -209.12104982 442.97132952 -211.10058594 442.97167969 C-212.226436 442.97834152 -213.35228607 442.98500336 -214.51225281 442.99186707 C-217.92587508 442.5855567 -219.79948361 441.66836811 -222.54321289 439.63110352 C-223.90276157 436.91200616 -223.67854328 434.76826602 -223.69038391 431.72293091 C-223.69753922 430.46383911 -223.70469452 429.20474731 -223.71206665 427.90750122 C-223.71490702 426.50433374 -223.71761874 425.101166 -223.72021484 423.69799805 C-223.72647841 422.22637776 -223.73312512 420.75475905 -223.74012756 419.28314209 C-223.75754524 415.27899293 -223.76809106 411.27485571 -223.77633309 407.27067804 C-223.78148082 404.77038394 -223.78755661 402.27009357 -223.79384422 399.76980209 C-223.81289705 391.95084536 -223.82712891 384.13189809 -223.83545619 376.3129226 C-223.84523492 367.27973125 -223.87157046 358.24678454 -223.91195709 349.21367943 C-223.94208575 342.2361375 -223.9569219 335.25866583 -223.96023721 328.2810601 C-223.96259111 324.11135697 -223.97159547 319.94191515 -223.99669838 315.77228165 C-224.01992805 311.85044795 -224.02423322 307.92904858 -224.013937 304.007164 C-224.0134403 302.56720157 -224.01980019 301.12721812 -224.03349304 299.68732071 C-224.05113158 297.72270727 -224.04174677 295.75790641 -224.03096008 293.79324341 C-224.03334844 292.69337664 -224.03573679 291.59350986 -224.03819752 290.4603138 C-223.42326404 286.9455054 -222.32728577 285.79608993 -219.54321289 283.63110352 C-215.65616457 282.33542074 -211.94769936 282.44893515 -207.89477539 282.42797852 C-207.04523285 282.42227844 -206.19569031 282.41657837 -205.32040405 282.41070557 C-203.52326704 282.40126247 -201.72611277 282.39472432 -199.92895508 282.39086914 C-197.18548252 282.3811646 -194.44275962 282.35013566 -191.69946289 282.31860352 C-189.9520715 282.31207301 -188.20467476 282.30682272 -186.45727539 282.30297852 C-185.63941559 282.29063171 -184.82155579 282.27828491 -183.97891235 282.26556396 C-179.34251908 282.2836169 -176.29526166 282.60642949 -172.54321289 285.63110352 C-170.49022349 288.71058761 -170.2939967 289.31844983 -170.30270386 292.78825378 C-170.29995453 293.63379318 -170.2972052 294.47933258 -170.29437256 295.35049438 C-170.30156311 296.27478241 -170.30875366 297.19907043 -170.31616211 298.15136719 C-170.31587006 299.12716232 -170.315578 300.10295746 -170.3152771 301.10832214 C-170.31667217 304.33866215 -170.33224181 307.56877247 -170.34790039 310.79907227 C-170.35162989 313.036808 -170.35447716 315.27454537 -170.35647583 317.51228333 C-170.36411725 323.40600075 -170.38377017 329.29961982 -170.40588379 335.19329834 C-170.42633123 341.20575632 -170.43547519 347.21823017 -170.44555664 353.23071289 C-170.46701553 365.03088634 -170.50115766 376.83098676 -170.54321289 388.63110352 C-164.93321289 388.63110352 -159.32321289 388.63110352 -153.54321289 388.63110352 C-153.57801758 386.75165039 -153.61282227 384.87219727 -153.64868164 382.93579102 C-153.67682429 380.45923747 -153.70412394 377.98267423 -153.73071289 375.50610352 C-153.75584961 374.26860352 -153.78098633 373.03110352 -153.80688477 371.75610352 C-153.81655273 370.55727539 -153.8262207 369.35844727 -153.83618164 368.12329102 C-153.85189209 367.02355957 -153.86760254 365.92382812 -153.88378906 364.79077148 C-153.48815377 361.12029695 -152.46818826 358.76703678 -150.54321289 355.63110352 C-146.86391844 353.17824055 -145.06943382 353.39881473 -140.68774414 353.43579102 C-139.69528938 353.44003586 -139.69528938 353.44003586 -138.68278503 353.44436646 C-136.57357552 353.45554433 -134.46479364 353.48064371 -132.35571289 353.50610352 C-130.92407841 353.51613645 -129.49243725 353.52526175 -128.06079102 353.53344727 C-124.55479312 353.55547556 -121.04904476 353.58998866 -117.54321289 353.63110352 C-117.54782186 352.93480489 -117.55243082 352.23850626 -117.55717945 351.52110767 C-117.66760103 334.57864913 -117.75034123 317.63630456 -117.80227375 300.69357014 C-117.82805551 292.50017182 -117.8632052 284.30701369 -117.92041016 276.11376953 C-117.97024635 268.97252069 -118.00250412 261.8314458 -118.01365536 254.69002789 C-118.02017389 250.90859932 -118.0354927 247.12766838 -118.07186317 243.34639931 C-118.1058267 239.78649379 -118.11626555 236.22729038 -118.1087513 232.66723824 C-118.11078061 230.73938158 -118.13767419 228.81160123 -118.16531372 226.88394165 C-118.11503697 218.46319288 -118.11503697 218.46319288 -115.29168701 214.35479736 C-112.5294129 212.62244891 -111.20914626 212.0040692 -108 212 C-107.13237534 211.98746689 -106.26475067 211.97493378 -105.37083435 211.96202087 C-104.44674271 211.97527908 -103.52265106 211.98853729 -102.57055664 212.00219727 C-101.6104921 211.99978531 -100.65042755 211.99737335 -99.66127014 211.99488831 C-97.63644266 211.99586577 -95.61158813 212.00923537 -93.58691406 212.03417969 C-90.4874405 212.06852896 -87.39081228 212.0548233 -84.29125977 212.03540039 C-82.32184659 212.0422979 -80.35244077 212.05196942 -78.38305664 212.06469727 C-77.45694077 212.0597374 -76.53082489 212.05477753 -75.5766449 212.04966736 C-74.71217239 212.06550369 -73.84769989 212.08134003 -72.95703125 212.09765625 C-72.19933945 212.10385483 -71.44164764 212.11005341 -70.66099548 212.11643982 C-67.43915155 212.89941259 -66.41709592 213.87217039 -64.54321289 216.63110352 C-63.96659809 219.90404278 -64.0383573 223.13316084 -64.08911133 226.44848633 C-64.08852722 227.44393463 -64.08794312 228.43938293 -64.08734131 229.46499634 C-64.09012789 232.75509518 -64.12124793 236.04428794 -64.15258789 239.33422852 C-64.16004821 241.61537176 -64.16574213 243.8965214 -64.16973877 246.17767334 C-64.18501139 252.18165786 -64.22430775 258.18525532 -64.26855469 264.18908691 C-64.30947197 270.31553918 -64.32774224 276.44205399 -64.34790039 282.56860352 C-64.39080001 294.58960691 -64.45907143 306.61032303 -64.54321289 318.63110352 C-58.60321289 318.63110352 -52.66321289 318.63110352 -46.54321289 318.63110352 C-46.55431595 316.04889481 -46.56541901 313.4666861 -46.57685852 310.80622864 C-46.67894023 286.51147133 -46.7533991 262.21674224 -46.80227375 237.92181873 C-46.82806993 225.4305405 -46.8632477 212.93941951 -46.92041016 200.44824219 C-46.97020156 189.56261631 -47.00249361 178.67710429 -47.01365536 167.79136771 C-47.02018128 162.02587174 -47.03554882 156.26070153 -47.07186317 150.49530983 C-47.10575503 145.07066523 -47.1162795 139.64648114 -47.1087513 134.22174072 C-47.11012888 132.2290821 -47.12010169 130.23640836 -47.13924026 128.24384117 C-47.16407196 125.52562447 -47.15815446 122.8091526 -47.14448547 120.09089661 C-47.16633178 118.90460347 -47.16633178 118.90460347 -47.18861943 117.69434482 C-47.13419024 113.69758367 -46.70125318 111.83513797 -44.22470379 108.63784313 C-40.66439901 105.9734281 -38.46917477 106.05488914 -34.05493164 106.14282227 C-33.35173294 106.149897 -32.64853424 106.15697174 -31.92402649 106.16426086 C-29.69181062 106.19211139 -27.46216212 106.25482032 -25.23071289 106.31860352 C-23.71186908 106.34369901 -22.19298569 106.36651 -20.67407227 106.38696289 C-16.96296041 106.44190345 -13.25333748 106.52810612 -9.54321289 106.63110352 C-9.55431595 105.37687088 -9.56541901 104.12263824 -9.57685852 102.83039856 C-9.67818243 91.01497165 -9.75315353 79.19963279 -9.80227375 67.38387012 C-9.82837595 61.30911475 -9.86378642 55.23470989 -9.92041016 49.16015625 C-9.97470613 43.29869323 -10.00462873 37.4375675 -10.01759911 31.57587242 C-10.0268432 29.33870826 -10.04489472 27.10156272 -10.07186317 24.86454201 C-10.1081203 21.73269269 -10.11315948 18.60224 -10.11083984 15.47021484 C-10.13780441 14.08054253 -10.13780441 14.08054253 -10.16531372 12.66279602 C-10.12969598 8.2233387 -9.98212067 6.23063519 -7.29168701 2.55560303 C-4.50024299 0.60101571 -3.33607228 0.00423014 0 0 Z " fill="#00B2F0" transform="translate(240.543212890625,-0.631103515625)"/>
<path d="M0 0 C1.301437 -0.01879967 1.301437 -0.01879967 2.62916565 -0.03797913 C3.55325729 -0.02472092 4.47734894 -0.01146271 5.42944336 0.00219727 C6.3895079 -0.00021469 7.34957245 -0.00262665 8.33872986 -0.00511169 C10.36355734 -0.00413423 12.38841187 0.00923537 14.41308594 0.03417969 C17.5125595 0.06852896 20.60918772 0.0548233 23.70874023 0.03540039 C25.67815341 0.0422979 27.64755923 0.05196942 29.61694336 0.06469727 C30.54305923 0.0597374 31.46917511 0.05477753 32.4233551 0.04966736 C33.72006386 0.07342186 33.72006386 0.07342186 35.04296875 0.09765625 C35.80066055 0.10385483 36.55835236 0.11005341 37.33900452 0.11643982 C40.56084845 0.89941259 41.58290408 1.87217039 43.45678711 4.63110352 C44.03340191 7.90404278 43.9616427 11.13316084 43.91088867 14.44848633 C43.91147278 15.44393463 43.91205688 16.43938293 43.91265869 17.46499634 C43.90987211 20.75509518 43.87875207 24.04428794 43.84741211 27.33422852 C43.83995179 29.61537176 43.83425787 31.8965214 43.83026123 34.17767334 C43.81498861 40.18165786 43.77569225 46.18525532 43.73144531 52.18908691 C43.69052803 58.31553918 43.67225776 64.44205399 43.65209961 70.56860352 C43.60919999 82.58960691 43.54092857 94.61032303 43.45678711 106.63110352 C44.73525513 106.59182739 44.73525513 106.59182739 46.03955078 106.55175781 C49.21705838 106.46628859 52.39397821 106.40373563 55.57226562 106.35644531 C56.94485813 106.33137735 58.31731813 106.29731269 59.68945312 106.25390625 C61.66729407 106.1929282 63.64612894 106.16749342 65.62475586 106.14282227 C66.81351318 106.11663818 68.00227051 106.0904541 69.22705078 106.06347656 C73.54227032 106.82187746 74.77547307 108.19496066 77.45678711 111.63110352 C77.93855028 114.64430819 78.11342573 117.08442315 78.05805969 120.09089661 C78.06233182 120.94046407 78.06660394 121.79003153 78.07100552 122.66534346 C78.0792389 125.51099388 78.05174518 128.35516909 78.02441406 131.20068359 C78.02300367 133.24080368 78.0237954 135.28092631 78.02662659 137.32104492 C78.02806246 142.86005037 77.99864443 148.39851556 77.9637568 153.93739533 C77.93252217 159.72562571 77.92956483 165.51386816 77.92362976 171.3021698 C77.90808286 182.26336475 77.86704272 193.22431066 77.81688231 204.1853959 C77.76101537 216.66407844 77.73350898 229.1427728 77.70840514 241.62154925 C77.65612778 267.29154347 77.5671629 292.96129905 77.45678711 318.63110352 C83.39678711 318.63110352 89.33678711 318.63110352 95.45678711 318.63110352 C95.44790466 317.36212219 95.43902222 316.09314087 95.42987061 314.78570557 C95.34884854 302.83749142 95.28885225 290.88933287 95.24953842 278.94090652 C95.22864742 272.79780901 95.20030166 266.65493294 95.1550293 260.51196289 C95.11162628 254.58567879 95.08766141 248.65960793 95.07727814 242.73317719 C95.06987686 240.47008659 95.05542421 238.2070079 95.03386688 235.94400787 C95.00490726 232.77857575 95.00082808 229.61402921 95.00268555 226.44848633 C94.98111389 225.03939499 94.98111389 225.03939499 94.95910645 223.60183716 C94.99919378 217.30482187 94.99919378 217.30482187 97.20930481 214.05085754 C99.68487185 212.48702041 100.96723333 212.12140836 103.87060547 212.09765625 C105.16731422 212.07390175 105.16731422 212.07390175 106.49021912 212.04966736 C107.41633499 212.05462723 108.34245087 212.0595871 109.29663086 212.06469727 C110.25573868 212.05849869 111.2148465 212.05230011 112.20301819 212.0459137 C114.22957342 212.03881606 116.25618697 212.04198855 118.28271484 212.0546875 C121.38024511 212.06854072 124.47474697 212.03449682 127.57202148 211.99633789 C129.54272535 211.99538655 131.51343299 211.99724631 133.48413086 212.00219727 C134.4082225 211.98893906 135.33231415 211.97568085 136.28440857 211.96202087 C137.15203323 211.97455399 138.0196579 211.9870871 138.91357422 212 C139.67206161 212.00096176 140.43054901 212.00192352 141.21202087 212.00291443 C144.99786966 213.06236946 146.21252967 214.36537403 148.45678711 217.63110352 C149.18956386 221.97937093 149.08749831 226.28343015 149.02441406 230.68310547 C149.02300289 232.02372688 149.02379692 233.36435215 149.02662659 234.70497131 C149.02805951 238.3371308 148.9986912 241.96846246 148.9637568 245.60042977 C148.93247192 249.3987127 148.9295609 253.19701522 148.92362976 256.9954071 C148.90809748 264.18486473 148.8670777 271.37394159 148.81688231 278.56323165 C148.76096941 286.74935321 148.73349751 294.93549308 148.70840514 303.1217581 C148.656161 319.95842937 148.56823112 336.79471783 148.45678711 353.63110352 C149.33939209 353.60491943 150.22199707 353.57873535 151.13134766 353.55175781 C154.42090291 353.46630077 157.70927133 353.40374607 160.99951172 353.35644531 C162.42060002 353.33137204 163.84156024 353.29730353 165.26220703 353.25390625 C167.31046173 353.19292494 169.35700594 353.1648259 171.40600586 353.14282227 C172.63665771 353.11663818 173.86730957 353.0904541 175.13525391 353.06347656 C179.38175378 353.78917389 180.80524044 355.31079717 183.45678711 358.63110352 C184.5559026 361.92844997 184.57073271 364.36069097 184.55444336 367.83032227 C184.5512207 369.03881836 184.54799805 370.24731445 184.54467773 371.49243164 C184.53629883 372.75506836 184.52791992 374.01770508 184.51928711 375.31860352 C184.51477539 376.5928418 184.51026367 377.86708008 184.50561523 379.17993164 C184.49381594 382.33034221 184.47588029 385.4807287 184.45678711 388.63110352 C190.06678711 388.63110352 195.67678711 388.63110352 201.45678711 388.63110352 C201.44790466 387.38939896 201.43902222 386.1476944 201.42987061 384.86836243 C201.34880949 373.17063551 201.28883344 361.47296553 201.24953842 349.77502155 C201.22865734 343.76086541 201.20032962 337.74693588 201.1550293 331.73291016 C201.11159098 325.92981423 201.08765393 320.12693637 201.07727814 314.32369041 C201.06988321 312.10887405 201.0554428 309.8940697 201.03386688 307.67934608 C201.00486034 304.57877366 201.00083005 301.47910409 201.00268555 298.37841797 C200.98830444 297.4613205 200.97392334 296.54422302 200.95910645 295.59933472 C200.98600446 291.44972448 201.1106022 289.20404867 203.29766846 285.58439636 C207.37917197 281.89197695 211.89801405 282.45490367 217.10522461 282.42797852 C217.95476715 282.42227844 218.80430969 282.41657837 219.67959595 282.41070557 C221.47673296 282.40126247 223.27388723 282.39472432 225.07104492 282.39086914 C227.81451748 282.3811646 230.55724038 282.35013566 233.30053711 282.31860352 C235.0479285 282.31207301 236.79532524 282.30682272 238.54272461 282.30297852 C239.36058441 282.29063171 240.17844421 282.27828491 241.02108765 282.26556396 C246.8615252 282.28830514 250.22473751 283.39905392 254.45678711 287.63110352 C254.71405602 290.20863152 254.71405602 290.20863152 254.72421265 293.53927612 C254.7370076 295.42791382 254.7370076 295.42791382 254.75006104 297.35470581 C254.74936195 298.75787366 254.74843885 300.16104141 254.74731445 301.56420898 C254.75329607 303.03583112 254.76010076 304.50745011 254.76766968 305.97906494 C254.7853752 309.98323631 254.79002699 313.98732226 254.79130125 317.99152899 C254.79319774 321.33154271 254.80055245 324.67153641 254.80764544 328.01154244 C254.82394461 335.89076187 254.82881304 343.76993558 254.82739258 351.64916992 C254.82619102 359.78239997 254.84729211 367.9153647 254.8788799 376.0485276 C254.90501581 383.02608011 254.91576099 390.00354583 254.91448176 396.98114693 C254.91397129 401.15083451 254.91970077 405.32028647 254.94083786 409.48992538 C254.96017505 413.41177971 254.96037612 417.33317261 254.9458046 421.25504303 C254.94370967 422.69499763 254.94845804 424.13498076 254.96052551 425.57488632 C254.97592486 427.53952083 254.96429498 429.50431198 254.95126343 431.46896362 C254.95235296 432.56883039 254.9534425 433.66869717 254.95456505 434.80189323 C254.33969809 438.29659996 253.18827105 439.44319013 250.45678711 441.63110352 C247.68827888 443.01535763 245.45259527 442.75070314 242.35473633 442.74462891 C241.07355927 442.74455338 239.7923822 442.74447784 238.47238159 442.74440002 C237.06874554 442.739293 235.66510988 442.73407699 234.26147461 442.72875977 C232.82943776 442.72689497 231.39740027 442.72547136 229.96536255 442.72447205 C226.19405357 442.72065171 222.42278303 442.71082553 218.65148926 442.69976807 C214.80404175 442.68954357 210.95658804 442.6849722 207.10913086 442.67993164 C199.55833208 442.66920284 192.00756498 442.65213221 184.45678711 442.63110352 C184.46726074 443.42282959 184.47773438 444.21455566 184.48852539 445.03027344 C184.53016557 448.62635102 184.55613904 452.2223778 184.58178711 455.81860352 C184.59854492 457.06448242 184.61530273 458.31036133 184.63256836 459.59399414 C184.63901367 460.79604492 184.64545898 461.9980957 184.65209961 463.23657227 C184.66257324 464.34154053 184.67304688 465.44650879 184.68383789 466.58496094 C184.37642358 470.70927102 183.628088 473.41392069 180.73309326 476.4223175 C177.69943691 478.03327891 175.46600211 477.99162221 172.03588867 477.97167969 C170.08431854 477.9713398 170.08431854 477.9713398 168.09332275 477.97099304 C166.67801569 477.95567419 165.26271216 477.94002622 163.84741211 477.92407227 C162.39581745 477.91847459 160.94421711 477.9142053 159.49261475 477.91120911 C155.67844907 477.89977371 151.864628 477.87031817 148.05059814 477.83709717 C144.15609397 477.8063679 140.26153392 477.79269769 136.36694336 477.77758789 C128.73006778 477.74544687 121.0934758 477.69426676 113.45678711 477.63110352 C113.46726074 478.45312256 113.47773438 479.2751416 113.48852539 480.12207031 C113.5301547 483.85421682 113.55613564 487.58631441 113.58178711 491.31860352 C113.59854492 492.61217773 113.61530273 493.90575195 113.63256836 495.23852539 C113.63901367 496.48569336 113.64545898 497.73286133 113.65209961 499.01782227 C113.66257324 500.16468506 113.67304688 501.31154785 113.68383789 502.49316406 C113.45309875 505.68207827 112.95277422 507.81595037 111.45678711 510.63110352 C108.35349715 512.69996349 107.66076816 512.88450327 104.140625 512.90576172 C103.27284927 512.91529373 102.40507355 512.92482574 101.51100159 512.93464661 C100.57658737 512.9337352 99.64217316 512.93282379 98.67944336 512.93188477 C97.2351017 512.93831245 97.2351017 512.93831245 95.76158142 512.94487 C93.72485134 512.95061377 91.68810075 512.95111321 89.65136719 512.94677734 C86.5347188 512.94361915 83.41902111 512.96706997 80.30249023 512.99243164 C78.32397581 512.99470479 76.34545883 512.99540806 74.36694336 512.99438477 C73.43455338 513.00359451 72.50216339 513.01280426 71.54151917 513.02229309 C65.11792984 512.97635221 65.11792984 512.97635221 61.89990234 511.29589844 C58.93822665 507.87927409 59.34032397 504.30116154 59.35913086 499.99438477 C59.36235352 498.6956543 59.36557617 497.39692383 59.36889648 496.05883789 C59.3772518 494.68709244 59.38571674 493.31534764 59.39428711 491.94360352 C59.39930376 490.56014156 59.40386638 489.17667788 59.40795898 487.79321289 C59.41976173 484.40582456 59.43769744 481.01845862 59.45678711 477.63110352 C53.84678711 477.63110352 48.23678711 477.63110352 42.45678711 477.63110352 C42.4915918 479.6665332 42.52639648 481.70196289 42.56225586 483.79907227 C42.5831242 485.78156432 42.60388304 487.76405915 42.62158203 489.74658203 C42.63662143 491.11904868 42.65705844 492.49146765 42.68310547 493.86376953 C42.71969932 495.84199008 42.73495409 497.82056865 42.74975586 499.79907227 C42.76546631 500.98782959 42.78117676 502.17658691 42.79736328 503.40136719 C42.42347457 506.94701147 41.58556294 508.80168517 39.45678711 511.63110352 C37.15865957 512.78016729 35.81118964 512.77520728 33.25415039 512.80810547 C32.38629913 512.8209407 31.51844788 512.83377594 30.6242981 512.84700012 C29.21493484 512.85808052 29.21493484 512.85808052 27.77709961 512.86938477 C26.81279022 512.87745651 25.84848083 512.88552826 24.85494995 512.8938446 C22.81225383 512.90768832 20.76953455 512.91840918 18.72680664 512.92626953 C15.60119929 512.94349652 12.4766457 512.98738173 9.35131836 513.03149414 C7.36825323 513.04161969 5.3851791 513.05013622 3.40209961 513.05688477 C2.46657257 513.07439285 1.53104553 513.09190094 0.56716919 513.10993958 C-5.92807574 513.08820171 -5.92807574 513.08820171 -9.10229492 510.72949219 C-11.6839659 506.96984087 -11.66072657 504.65924907 -11.64086914 500.09204102 C-11.63764648 498.79008789 -11.63442383 497.48813477 -11.63110352 496.14672852 C-11.62274755 494.76651953 -11.6142826 493.38631119 -11.60571289 492.00610352 C-11.6006979 490.61808426 -11.59613499 489.23006329 -11.59204102 487.84204102 C-11.58022274 484.43837678 -11.56228679 481.03473482 -11.54321289 477.63110352 C-17.15321289 477.63110352 -22.76321289 477.63110352 -28.54321289 477.63110352 C-28.5084082 479.6665332 -28.47360352 481.70196289 -28.43774414 483.79907227 C-28.4168758 485.78156432 -28.39611696 487.76405915 -28.37841797 489.74658203 C-28.36337857 491.11904868 -28.34294156 492.49146765 -28.31689453 493.86376953 C-28.28030068 495.84199008 -28.26504591 497.82056865 -28.25024414 499.79907227 C-28.22667847 501.58220825 -28.22667847 501.58220825 -28.20263672 503.40136719 C-28.57652543 506.94701147 -29.41443706 508.80168517 -31.54321289 511.63110352 C-33.84134043 512.78016729 -35.18881036 512.77520728 -37.74584961 512.80810547 C-38.61370087 512.8209407 -39.48155212 512.83377594 -40.3757019 512.84700012 C-41.78506516 512.85808052 -41.78506516 512.85808052 -43.22290039 512.86938477 C-44.18720978 512.87745651 -45.15151917 512.88552826 -46.14505005 512.8938446 C-48.18774617 512.90768832 -50.23046545 512.91840918 -52.27319336 512.92626953 C-55.39880071 512.94349652 -58.5233543 512.98738173 -61.64868164 513.03149414 C-63.63174677 513.04161969 -65.6148209 513.05013622 -67.59790039 513.05688477 C-68.53342743 513.07439285 -69.46895447 513.09190094 -70.43283081 513.10993958 C-76.90707324 513.088272 -76.90707324 513.088272 -80.10229492 510.79199219 C-82.68456891 506.91945626 -82.6614197 503.75480855 -82.64086914 499.21313477 C-82.63764648 497.95952148 -82.63442383 496.7059082 -82.63110352 495.41430664 C-82.62272461 494.10397461 -82.6143457 492.79364258 -82.60571289 491.44360352 C-82.60069606 490.1083187 -82.59613348 488.7730321 -82.59204102 487.43774414 C-82.58023984 484.16881879 -82.56377586 480.89998361 -82.54321289 477.63110352 C-83.34643478 477.63998596 -84.14965668 477.64886841 -84.97721863 477.65802002 C-92.55444149 477.73823664 -100.13145788 477.79910347 -107.70899487 477.8383522 C-111.60452099 477.85920898 -115.49969566 477.88749082 -119.39501953 477.93286133 C-123.15571347 477.9763886 -126.91606979 478.00025499 -130.67699623 478.01061249 C-132.11032741 478.01799164 -133.54364054 478.03240172 -134.97682762 478.05402374 C-136.98729743 478.08314309 -138.99810844 478.08473814 -141.00878906 478.08520508 C-142.15240402 478.09408752 -143.29601898 478.10296997 -144.47428894 478.11212158 C-148.25795196 477.5190765 -149.89444881 476.36289301 -152.54321289 473.63110352 C-153.96395898 470.36033353 -153.65750257 466.86051635 -153.64086914 463.33422852 C-153.63603516 461.52631836 -153.63603516 461.52631836 -153.63110352 459.68188477 C-153.61853516 457.80049805 -153.61853516 457.80049805 -153.60571289 455.88110352 C-153.60120117 454.61137695 -153.59668945 453.34165039 -153.59204102 452.03344727 C-153.58025845 448.89928515 -153.56380705 445.7652181 -153.54321289 442.63110352 C-154.33390671 442.63776535 -155.12460052 442.64442719 -155.93925476 442.65129089 C-163.39876382 442.71145659 -170.85815486 442.75710551 -178.31784344 442.78654003 C-182.15275632 442.80218147 -185.98746834 442.82339156 -189.82226562 442.85742188 C-193.52458985 442.89007019 -197.22672114 442.90796798 -200.92917824 442.91573524 C-202.34015756 442.92126898 -203.75112658 442.93207516 -205.16202354 442.94829369 C-207.14143916 442.97013801 -209.12104982 442.97132952 -211.10058594 442.97167969 C-212.226436 442.97834152 -213.35228607 442.98500336 -214.51225281 442.99186707 C-217.92587508 442.5855567 -219.79948361 441.66836811 -222.54321289 439.63110352 C-223.90276157 436.91200616 -223.67854328 434.76826602 -223.69038391 431.72293091 C-223.69753922 430.46383911 -223.70469452 429.20474731 -223.71206665 427.90750122 C-223.71490702 426.50433374 -223.71761874 425.101166 -223.72021484 423.69799805 C-223.72647841 422.22637776 -223.73312512 420.75475905 -223.74012756 419.28314209 C-223.75754524 415.27899293 -223.76809106 411.27485571 -223.77633309 407.27067804 C-223.78148082 404.77038394 -223.78755661 402.27009357 -223.79384422 399.76980209 C-223.81289705 391.95084536 -223.82712891 384.13189809 -223.83545619 376.3129226 C-223.84523492 367.27973125 -223.87157046 358.24678454 -223.91195709 349.21367943 C-223.94208575 342.2361375 -223.9569219 335.25866583 -223.96023721 328.2810601 C-223.96259111 324.11135697 -223.97159547 319.94191515 -223.99669838 315.77228165 C-224.01992805 311.85044795 -224.02423322 307.92904858 -224.013937 304.007164 C-224.0134403 302.56720157 -224.01980019 301.12721812 -224.03349304 299.68732071 C-224.05113158 297.72270727 -224.04174677 295.75790641 -224.03096008 293.79324341 C-224.03334844 292.69337664 -224.03573679 291.59350986 -224.03819752 290.4603138 C-223.42326404 286.9455054 -222.32728577 285.79608993 -219.54321289 283.63110352 C-215.65616457 282.33542074 -211.94769936 282.44893515 -207.89477539 282.42797852 C-207.04523285 282.42227844 -206.19569031 282.41657837 -205.32040405 282.41070557 C-203.52326704 282.40126247 -201.72611277 282.39472432 -199.92895508 282.39086914 C-197.18548252 282.3811646 -194.44275962 282.35013566 -191.69946289 282.31860352 C-189.9520715 282.31207301 -188.20467476 282.30682272 -186.45727539 282.30297852 C-185.63941559 282.29063171 -184.82155579 282.27828491 -183.97891235 282.26556396 C-179.34251908 282.2836169 -176.29526166 282.60642949 -172.54321289 285.63110352 C-170.49022349 288.71058761 -170.2939967 289.31844983 -170.30270386 292.78825378 C-170.29995453 293.63379318 -170.2972052 294.47933258 -170.29437256 295.35049438 C-170.30156311 296.27478241 -170.30875366 297.19907043 -170.31616211 298.15136719 C-170.31587006 299.12716232 -170.315578 300.10295746 -170.3152771 301.10832214 C-170.31667217 304.33866215 -170.33224181 307.56877247 -170.34790039 310.79907227 C-170.35162989 313.036808 -170.35447716 315.27454537 -170.35647583 317.51228333 C-170.36411725 323.40600075 -170.38377017 329.29961982 -170.40588379 335.19329834 C-170.42633123 341.20575632 -170.43547519 347.21823017 -170.44555664 353.23071289 C-170.46701553 365.03088634 -170.50115766 376.83098676 -170.54321289 388.63110352 C-164.93321289 388.63110352 -159.32321289 388.63110352 -153.54321289 388.63110352 C-153.57801758 386.75165039 -153.61282227 384.87219727 -153.64868164 382.93579102 C-153.67682429 380.45923747 -153.70412394 377.98267423 -153.73071289 375.50610352 C-153.75584961 374.26860352 -153.78098633 373.03110352 -153.80688477 371.75610352 C-153.81655273 370.55727539 -153.8262207 369.35844727 -153.83618164 368.12329102 C-153.85189209 367.02355957 -153.86760254 365.92382812 -153.88378906 364.79077148 C-153.48815377 361.12029695 -152.46818826 358.76703678 -150.54321289 355.63110352 C-146.86391844 353.17824055 -145.06943382 353.39881473 -140.68774414 353.43579102 C-139.69528938 353.44003586 -139.69528938 353.44003586 -138.68278503 353.44436646 C-136.57357552 353.45554433 -134.46479364 353.48064371 -132.35571289 353.50610352 C-130.92407841 353.51613645 -129.49243725 353.52526175 -128.06079102 353.53344727 C-124.55479312 353.55547556 -121.04904476 353.58998866 -117.54321289 353.63110352 C-117.54782186 352.93480489 -117.55243082 352.23850626 -117.55717945 351.52110767 C-117.66760103 334.57864913 -117.75034123 317.63630456 -117.80227375 300.69357014 C-117.82805551 292.50017182 -117.8632052 284.30701369 -117.92041016 276.11376953 C-117.97024635 268.97252069 -118.00250412 261.8314458 -118.01365536 254.69002789 C-118.02017389 250.90859932 -118.0354927 247.12766838 -118.07186317 243.34639931 C-118.1058267 239.78649379 -118.11626555 236.22729038 -118.1087513 232.66723824 C-118.11078061 230.73938158 -118.13767419 228.81160123 -118.16531372 226.88394165 C-118.11503697 218.46319288 -118.11503697 218.46319288 -115.29168701 214.35479736 C-112.5294129 212.62244891 -111.20914626 212.0040692 -108 212 C-107.13237534 211.98746689 -106.26475067 211.97493378 -105.37083435 211.96202087 C-104.44674271 211.97527908 -103.52265106 211.98853729 -102.57055664 212.00219727 C-101.6104921 211.99978531 -100.65042755 211.99737335 -99.66127014 211.99488831 C-97.63644266 211.99586577 -95.61158813 212.00923537 -93.58691406 212.03417969 C-90.4874405 212.06852896 -87.39081228 212.0548233 -84.29125977 212.03540039 C-82.32184659 212.0422979 -80.35244077 212.05196942 -78.38305664 212.06469727 C-77.45694077 212.0597374 -76.53082489 212.05477753 -75.5766449 212.04966736 C-74.71217239 212.06550369 -73.84769989 212.08134003 -72.95703125 212.09765625 C-72.19933945 212.10385483 -71.44164764 212.11005341 -70.66099548 212.11643982 C-67.43915155 212.89941259 -66.41709592 213.87217039 -64.54321289 216.63110352 C-63.96659809 219.90404278 -64.0383573 223.13316084 -64.08911133 226.44848633 C-64.08852722 227.44393463 -64.08794312 228.43938293 -64.08734131 229.46499634 C-64.09012789 232.75509518 -64.12124793 236.04428794 -64.15258789 239.33422852 C-64.16004821 241.61537176 -64.16574213 243.8965214 -64.16973877 246.17767334 C-64.18501139 252.18165786 -64.22430775 258.18525532 -64.26855469 264.18908691 C-64.30947197 270.31553918 -64.32774224 276.44205399 -64.34790039 282.56860352 C-64.39080001 294.58960691 -64.45907143 306.61032303 -64.54321289 318.63110352 C-58.60321289 318.63110352 -52.66321289 318.63110352 -46.54321289 318.63110352 C-46.55431595 316.04889481 -46.56541901 313.4666861 -46.57685852 310.80622864 C-46.67894023 286.51147133 -46.7533991 262.21674224 -46.80227375 237.92181873 C-46.82806993 225.4305405 -46.8632477 212.93941951 -46.92041016 200.44824219 C-46.97020156 189.56261631 -47.00249361 178.67710429 -47.01365536 167.79136771 C-47.02018128 162.02587174 -47.03554882 156.26070153 -47.07186317 150.49530983 C-47.10575503 145.07066523 -47.1162795 139.64648114 -47.1087513 134.22174072 C-47.11012888 132.2290821 -47.12010169 130.23640836 -47.13924026 128.24384117 C-47.16407196 125.52562447 -47.15815446 122.8091526 -47.14448547 120.09089661 C-47.16633178 118.90460347 -47.16633178 118.90460347 -47.18861943 117.69434482 C-47.13419024 113.69758367 -46.70125318 111.83513797 -44.22470379 108.63784313 C-40.66439901 105.9734281 -38.46917477 106.05488914 -34.05493164 106.14282227 C-33.35173294 106.149897 -32.64853424 106.15697174 -31.92402649 106.16426086 C-29.69181062 106.19211139 -27.46216212 106.25482032 -25.23071289 106.31860352 C-23.71186908 106.34369901 -22.19298569 106.36651 -20.67407227 106.38696289 C-16.96296041 106.44190345 -13.25333748 106.52810612 -9.54321289 106.63110352 C-9.55431595 105.37687088 -9.56541901 104.12263824 -9.57685852 102.83039856 C-9.67818243 91.01497165 -9.75315353 79.19963279 -9.80227375 67.38387012 C-9.82837595 61.30911475 -9.86378642 55.23470989 -9.92041016 49.16015625 C-9.97470613 43.29869323 -10.00462873 37.4375675 -10.01759911 31.57587242 C-10.0268432 29.33870826 -10.04489472 27.10156272 -10.07186317 24.86454201 C-10.1081203 21.73269269 -10.11315948 18.60224 -10.11083984 15.47021484 C-10.13780441 14.08054253 -10.13780441 14.08054253 -10.16531372 12.66279602 C-10.12969598 8.2233387 -9.98212067 6.23063519 -7.29168701 2.55560303 C-4.50024299 0.60101571 -3.33607228 0.00423014 0 0 Z M7.45678711 17.63110352 C7.44276855 22.18906738 7.44276855 22.18906738 7.4284668 26.83911133 C7.39472634 36.86958105 7.33919383 46.89984439 7.27288437 56.93014908 C7.23334546 63.01260725 7.20118838 69.09491924 7.18579102 75.17749023 C7.17066681 81.04559084 7.1362964 86.91328975 7.08847809 92.78121185 C7.07362057 95.02190412 7.0657436 97.26265372 7.06490326 99.50339508 C7.06254504 102.63787354 7.03555702 105.77123153 7.00268555 108.90551758 C7.01023109 110.30058281 7.01023109 110.30058281 7.01792908 111.72383118 C7.00401627 112.57915939 6.99010345 113.43448761 6.97576904 114.31573486 C6.97023829 115.4274172 6.97023829 115.4274172 6.96459579 116.56155777 C6.20747721 119.64715201 5.01582632 120.7684225 2.45678711 122.63110352 C-0.93481445 123.17700195 -0.93481445 123.17700195 -4.93383789 123.24047852 C-5.99075836 123.2652829 -5.99075836 123.2652829 -7.06903076 123.29058838 C-9.31051391 123.33901491 -11.55131903 123.36042539 -13.79321289 123.38110352 C-15.31668441 123.40926799 -16.84012441 123.43919611 -18.36352539 123.47094727 C-22.08994045 123.54476944 -25.81622669 123.5943782 -29.54321289 123.63110352 C-29.54467945 124.69423893 -29.54614601 125.75737434 -29.54765701 126.85272598 C-29.58422224 152.6992967 -29.64363263 178.54573754 -29.72711563 204.39220047 C-29.76695604 216.89127066 -29.7993231 229.39027743 -29.81420898 241.8894043 C-29.82719959 252.78131802 -29.85409782 263.6730925 -29.89782596 274.56492782 C-29.9204991 280.33420217 -29.93612007 286.1033044 -29.93509674 291.87262726 C-29.93435358 297.29976948 -29.95216544 302.72653038 -29.98438072 308.15357399 C-29.99291902 310.1482221 -29.99460319 312.14291278 -29.98901558 314.13757133 C-29.98241317 316.8560193 -30.00020536 319.57324058 -30.02423096 322.29156494 C-30.01647054 323.08533987 -30.00871012 323.8791148 -30.00071454 324.69694352 C-30.05674048 328.26489325 -30.24856341 330.24593095 -32.44761276 333.12057877 C-34.80260525 334.81807553 -35.91812467 335.13608174 -38.78930664 335.14868164 C-39.61696533 335.16129028 -40.44462402 335.17389893 -41.29736328 335.18688965 C-42.62562134 335.17474426 -42.62562134 335.17474426 -43.98071289 335.16235352 C-44.89780029 335.16618042 -45.8148877 335.17000732 -46.75976562 335.1739502 C-48.69638163 335.176669 -50.63303437 335.16930997 -52.56958008 335.15258789 C-55.53297842 335.13117746 -58.4939524 335.15239021 -61.45727539 335.17797852 C-63.34009324 335.17533523 -65.22290958 335.17021025 -67.10571289 335.16235352 C-67.99121826 335.17045044 -68.87672363 335.17854736 -69.7890625 335.18688965 C-71.03055054 335.16797668 -71.03055054 335.16797668 -72.29711914 335.14868164 C-73.02229736 335.14549927 -73.74747559 335.14231689 -74.49462891 335.13903809 C-77.53126822 334.3861209 -78.68678673 333.12352812 -80.54321289 330.63110352 C-81.06219482 327.64447021 -81.06219482 327.64447021 -81.08911133 324.1184082 C-81.09944901 323.47408844 -81.10978668 322.82976868 -81.12043762 322.16592407 C-81.14984182 320.04468641 -81.15136414 317.92440386 -81.15258789 315.80297852 C-81.16757133 314.32894066 -81.18429884 312.85491959 -81.20269775 311.38092041 C-81.24636593 307.50772323 -81.26636889 303.63475251 -81.28143311 299.76135254 C-81.30100634 295.80634168 -81.34297602 291.85157531 -81.38305664 287.89672852 C-81.45835309 280.14155502 -81.50657685 272.38657366 -81.54321289 264.63110352 C-87.81321289 264.63110352 -94.08321289 264.63110352 -100.54321289 264.63110352 C-100.54732178 267.70003906 -100.55143066 270.76897461 -100.55566406 273.9309082 C-100.57284752 284.06117511 -100.61732567 294.19118899 -100.67530346 304.32130051 C-100.7096206 310.46433156 -100.73469083 316.60711268 -100.73876953 322.75024414 C-100.74304226 328.67675278 -100.77142044 334.60269712 -100.81664467 340.52902985 C-100.8296524 342.79205287 -100.83391584 345.05514332 -100.82936668 347.31819916 C-100.82448416 350.48399586 -100.85045018 353.64812833 -100.88378906 356.8137207 C-100.87516342 357.75311493 -100.86653778 358.69250916 -100.85765076 359.66036987 C-100.9698367 365.99887578 -100.9698367 365.99887578 -103.88256836 369.21057129 C-107.21328723 370.98885976 -109.60612425 371.17406231 -113.37524414 371.24047852 C-114.6675293 371.27270508 -115.95981445 371.30493164 -117.29125977 371.33813477 C-118.64607298 371.35287702 -120.00089087 371.36719463 -121.35571289 371.38110352 C-122.73009928 371.40928111 -124.10445094 371.43921105 -125.47875977 371.47094727 C-128.83363699 371.54157626 -132.18782185 371.59431125 -135.54321289 371.63110352 C-135.54732178 372.48341553 -135.55143066 373.33572754 -135.55566406 374.21386719 C-135.58271709 377.392057 -135.63187719 380.56893644 -135.69580078 383.74658203 C-135.71892267 385.11885782 -135.73336292 386.49130961 -135.73876953 387.86376953 C-135.74809954 389.84244822 -135.79178308 391.82086975 -135.83618164 393.79907227 C-135.85189209 394.98782959 -135.86760254 396.17658691 -135.88378906 397.40136719 C-136.76335673 401.70932745 -137.9360159 403.12311023 -141.54321289 405.63110352 C-144.65993707 406.32592701 -147.6765826 406.30916856 -150.85961914 406.26000977 C-152.19983376 406.2636277 -152.19983376 406.2636277 -153.56712341 406.26731873 C-155.4507187 406.26634163 -157.33434319 406.2529809 -159.21777344 406.22802734 C-162.1000311 406.19367124 -164.97922953 406.20738617 -167.86157227 406.22680664 C-169.6942676 406.21990917 -171.52695503 406.21023768 -173.35961914 406.19750977 C-174.22011368 406.20246964 -175.08060822 406.2074295 -175.96717834 406.21253967 C-176.77158859 406.19670334 -177.57599884 406.180867 -178.40478516 406.16455078 C-179.10918228 406.1583522 -179.81357941 406.15215363 -180.5393219 406.14576721 C-183.53865045 405.37544312 -184.70103616 404.09399392 -186.54321289 401.63110352 C-187.06219482 398.64447021 -187.06219482 398.64447021 -187.08911133 395.1184082 C-187.10461784 394.15192856 -187.10461784 394.15192856 -187.12043762 393.16592407 C-187.14984182 391.04468641 -187.15136414 388.92440386 -187.15258789 386.80297852 C-187.16757133 385.32894066 -187.18429884 383.85491959 -187.20269775 382.38092041 C-187.24636593 378.50772323 -187.26636889 374.63475251 -187.28143311 370.76135254 C-187.30100634 366.80634168 -187.34297602 362.85157531 -187.38305664 358.89672852 C-187.45835309 351.14155502 -187.50657685 343.38657366 -187.54321289 335.63110352 C-193.81321289 335.63110352 -200.08321289 335.63110352 -206.54321289 335.63110352 C-206.54321289 365.00110352 -206.54321289 394.37110352 -206.54321289 424.63110352 C-185.37696538 424.80155017 -185.37696538 424.80155017 -164.21044922 424.92895508 C-161.5570298 424.95831911 -158.90362597 424.98914386 -156.25024414 425.02172852 C-155.22117195 425.0221817 -155.22117195 425.0221817 -154.17131042 425.02264404 C-152.13998026 425.02506872 -150.10873908 425.05468737 -148.07763672 425.08520508 C-146.36221428 425.09852875 -146.36221428 425.09852875 -144.61213684 425.11212158 C-141.54321289 425.63110352 -141.54321289 425.63110352 -136.54321289 429.63110352 C-136.04821289 444.97610352 -136.04821289 444.97610352 -135.54321289 460.63110352 C-105.84321289 460.63110352 -76.14321289 460.63110352 -45.54321289 460.63110352 C-45.21321289 450.07110352 -44.88321289 439.51110352 -44.54321289 428.63110352 C-40.04206723 425.25524427 -40.04206723 425.25524427 -36.49658203 425.24291992 C-35.71219254 425.23346344 -34.92780304 425.22400696 -34.11964417 425.21426392 C-33.28102341 425.22033661 -32.44240265 425.2264093 -31.57836914 425.23266602 C-30.7080455 425.22979584 -29.83772186 425.22692566 -28.94102478 425.22396851 C-27.1027664 425.22192965 -25.26448624 425.22744707 -23.42626953 425.23999023 C-20.61905118 425.25602732 -17.81327677 425.24014582 -15.00610352 425.22094727 C-13.21768889 425.22293011 -11.42927516 425.22677464 -9.64086914 425.23266602 C-8.80427261 425.22659332 -7.96767609 425.22052063 -7.10572815 425.21426392 C-2.44174519 425.27026714 0.67349098 425.59501648 4.45678711 428.63110352 C5.84588231 431.40929392 5.62010262 433.71645096 5.66210938 436.82495117 C5.6820546 438.12614899 5.70199982 439.4273468 5.72254944 440.76797485 C5.73953384 442.19370402 5.75641264 443.61943444 5.77319336 445.04516602 C5.79376232 446.49962965 5.81475877 447.95408729 5.83616638 449.40853882 C5.89139315 453.23896439 5.94079971 457.06944397 5.98901367 460.89996338 C6.03922431 464.80778822 6.09491265 468.71553452 6.15014648 472.62329102 C6.25773547 480.29249724 6.35867263 487.96176916 6.45678711 495.63110352 C12.39678711 495.63110352 18.33678711 495.63110352 24.45678711 495.63110352 C24.460896 493.68824463 24.46500488 491.74538574 24.46923828 489.74365234 C24.48865064 483.31730715 24.53098034 476.89143095 24.58887768 470.46532154 C24.62313803 466.569902 24.64825605 462.67487421 24.65234375 458.77929688 C24.65662895 455.0182515 24.68510805 451.25808968 24.73021889 447.49732018 C24.74318714 446.06409544 24.74750388 444.63076493 24.7429409 443.19748878 C24.73803138 441.18675913 24.76700706 439.17603383 24.79736328 437.16552734 C24.80402512 436.02191238 24.81068695 434.87829742 24.81755066 433.70002747 C25.6602307 429.65438685 27.23971217 428.15153284 30.45678711 425.63110352 C32.54296875 425.00964355 32.54296875 425.00964355 34.61694336 425.01586914 C35.79341431 425.00191101 35.79341431 425.00191101 36.99365234 424.9876709 C38.24384155 425.01226379 38.24384155 425.01226379 39.51928711 425.03735352 C40.3881958 425.03731323 41.25710449 425.03727295 42.15234375 425.03723145 C43.98469294 425.04257957 45.8170421 425.06013215 47.64916992 425.08911133 C50.44773751 425.13096817 53.24389669 425.13017741 56.04272461 425.12329102 C57.82659543 425.13378437 59.6104539 425.14672327 61.39428711 425.16235352 C62.22774658 425.16255493 63.06120605 425.16275635 63.91992188 425.16296387 C65.09639282 425.18683167 65.09639282 425.18683167 66.29663086 425.21118164 C66.98104248 425.21960083 67.6654541 425.22802002 68.37060547 425.23669434 C70.45678711 425.63110352 70.45678711 425.63110352 75.45678711 428.63110352 C75.78678711 439.19110352 76.11678711 449.75110352 76.45678711 460.63110352 C106.15678711 460.63110352 135.85678711 460.63110352 166.45678711 460.63110352 C166.78678711 450.40110352 167.11678711 440.17110352 167.45678711 429.63110352 C173.08178711 425.13110352 173.08178711 425.13110352 178.99121094 425.08520508 C180.31028442 425.06538574 181.62935791 425.04556641 182.98840332 425.02514648 C184.38020781 425.02348517 185.77201301 425.02234144 187.16381836 425.02172852 C189.07294006 424.99828369 189.07294006 424.99828369 191.02062988 424.97436523 C195.76999322 424.92180646 200.5196858 424.90350568 205.26928711 424.88110352 C215.89116211 424.79860352 226.51303711 424.71610352 237.45678711 424.63110352 C237.45678711 395.26110352 237.45678711 365.89110352 237.45678711 335.63110352 C231.18678711 335.63110352 224.91678711 335.63110352 218.45678711 335.63110352 C218.43696777 337.614729 218.41714844 339.59835449 218.39672852 341.64208984 C218.32898922 348.19205715 218.2522164 354.74186967 218.16926003 361.29166126 C218.11928941 365.26325288 218.07295956 369.23481781 218.03491211 373.20654297 C217.99806878 377.03865288 217.95171168 380.87053984 217.8987236 384.70245934 C217.88017453 386.16526063 217.86506844 387.62810973 217.85344315 389.09098244 C217.83658912 391.13819897 217.80755734 393.18490435 217.77563477 395.23193359 C217.7623111 396.39775467 217.74898743 397.56357574 217.73526001 398.76472473 C217.45678711 401.63110352 217.45678711 401.63110352 215.45678711 404.63110352 C212.78483613 405.52175384 211.16280858 405.77419558 208.41601562 405.82397461 C207.20444542 405.848069 207.20444542 405.848069 205.96839905 405.87265015 C202.28997798 405.91720813 198.61173312 405.95813377 194.93310547 405.98120117 C192.99222852 405.99778847 191.05141334 406.02511489 189.11083984 406.06323242 C186.31046928 406.1179318 183.51152574 406.13986027 180.71069336 406.15454102 C179.84392471 406.17721039 178.97715607 406.19987976 178.0841217 406.22323608 C174.01610829 406.2089378 172.12438785 406.18449673 168.91650391 403.52539062 C167.17397522 400.07035173 166.91549365 397.66269984 166.84741211 393.79907227 C166.81518555 392.50678711 166.78295898 391.21450195 166.74975586 389.88305664 C166.7350136 388.52824343 166.72069599 387.17342554 166.70678711 385.81860352 C166.67860952 384.44421712 166.64867957 383.06986547 166.61694336 381.69555664 C166.54631437 378.34067942 166.49357937 374.98649456 166.45678711 371.63110352 C165.17831909 371.61708496 165.17831909 371.61708496 163.87402344 371.6027832 C160.69595194 371.5586343 157.51882927 371.49696085 154.34130859 371.42358398 C152.96903803 371.39544977 151.5966077 371.37419765 150.22412109 371.36010742 C148.24540217 371.3385762 146.26703941 371.28981071 144.28881836 371.24047852 C142.50568237 371.20905762 142.50568237 371.20905762 140.68652344 371.17700195 C136.63390132 370.49201722 135.22561611 369.68412614 132.45678711 366.63110352 C131.69737988 363.36770382 131.76670972 360.15211371 131.79736328 356.8137207 C131.78687958 355.8182724 131.77639587 354.8228241 131.76559448 353.79721069 C131.73679487 350.50715148 131.74314204 347.21814145 131.74975586 343.92797852 C131.73664387 341.64681679 131.72134119 339.36566668 131.70393372 337.08453369 C131.66401296 331.08066712 131.65388866 325.07710377 131.64990234 319.07312012 C131.64058432 312.94652059 131.60317909 306.82010022 131.56811523 300.69360352 C131.50346693 288.67273652 131.47288163 276.6521337 131.45678711 264.63110352 C125.18678711 264.63110352 118.91678711 264.63110352 112.45678711 264.63110352 C112.44276855 267.59868652 112.44276855 267.59868652 112.4284668 270.6262207 C112.39293981 277.1642941 112.3391424 283.70201759 112.27288437 290.23984909 C112.23338202 294.20361736 112.20120736 298.16716258 112.18579102 302.13110352 C112.17064214 305.9568917 112.13622936 309.78206677 112.08847809 313.60758209 C112.07364578 315.0667513 112.06574503 316.52600803 112.06490326 317.98525238 C112.06253716 320.0303018 112.03549229 322.07365181 112.00268555 324.1184082 C111.9938031 325.28200867 111.98492065 326.44560913 111.97576904 327.64447021 C111.34367465 331.28204224 110.41795411 332.4741181 107.45678711 334.63110352 C105.40820313 335.13903809 105.40820313 335.13903809 103.21069336 335.14868164 C102.38303467 335.16129028 101.55537598 335.17389893 100.70263672 335.18688965 C99.37437866 335.17474426 99.37437866 335.17474426 98.01928711 335.16235352 C97.10219971 335.16618042 96.1851123 335.17000732 95.24023438 335.1739502 C93.30361837 335.176669 91.36696563 335.16930997 89.43041992 335.15258789 C86.46702158 335.13117746 83.5060476 335.15239021 80.54272461 335.17797852 C78.65990676 335.17533523 76.77709042 335.17021025 74.89428711 335.16235352 C74.00878174 335.17045044 73.12327637 335.17854736 72.2109375 335.18688965 C70.96944946 335.16797668 70.96944946 335.16797668 69.70288086 335.14868164 C68.97770264 335.14549927 68.25252441 335.14231689 67.50537109 335.13903809 C64.4302694 334.37658438 63.38170668 333.14740259 61.45678711 330.63110352 C61.06065857 327.72533663 60.90939844 325.19715024 60.93780518 322.29156494 C60.9265533 321.01849538 60.9265533 321.01849538 60.91507411 319.71970725 C60.89474824 316.87124068 60.90290916 314.02356639 60.91088867 311.17504883 C60.90215633 309.13506785 60.89167173 307.09509373 60.87956238 305.05513 C60.85164042 299.51210099 60.84829907 293.96929478 60.84928226 288.42620564 C60.84615849 282.63522125 60.82055147 276.84433802 60.79730225 271.05340576 C60.75669764 260.08521526 60.73639104 249.11708428 60.72332835 238.14883018 C60.70747342 225.66282714 60.66906415 213.17692562 60.62873507 200.69098139 C60.54627505 175.00438947 60.49222106 149.31780029 60.45678711 123.63110352 C59.17046387 123.61708496 59.17046387 123.61708496 57.8581543 123.6027832 C54.66706031 123.5586906 51.47691955 123.49704295 48.28637695 123.42358398 C46.9072706 123.39541252 45.52800393 123.3741788 44.14868164 123.36010742 C42.16255762 123.33862807 40.17678802 123.2898722 38.19116211 123.24047852 C36.99716797 123.21953125 35.80317383 123.19858398 34.57299805 123.17700195 C30.85729253 122.52608394 29.64822879 121.66576691 27.45678711 118.63110352 C26.94897842 116.56155777 26.94897842 116.56155777 26.93780518 114.31573486 C26.92389236 113.46040665 26.90997955 112.60507843 26.89564514 111.72383118 C26.90067551 110.79378769 26.90570587 109.8637442 26.91088867 108.90551758 C26.90055099 107.91982285 26.89021332 106.93412811 26.87956238 105.91856384 C26.85006914 102.66111993 26.84863379 99.40429562 26.84741211 96.14672852 C26.83243491 93.88798838 26.81570875 91.62925922 26.79730225 89.37054443 C26.75356509 83.42591863 26.7336154 77.48144056 26.71856689 71.53668213 C26.69901886 65.47041057 26.65704624 59.4042991 26.61694336 53.33813477 C26.541572 41.43581323 26.49339466 29.53360748 26.45678711 17.63110352 C20.18678711 17.63110352 13.91678711 17.63110352 7.45678711 17.63110352 Z " fill="#000000" transform="translate(240.543212890625,-0.631103515625)"/>
<path d="M0 0 C0.82435547 -0.0157608 1.64871094 -0.03152161 2.49804688 -0.04776001 C3.81385742 -0.03257828 3.81385742 -0.03257828 5.15625 -0.01708984 C6.06955078 -0.02187347 6.98285156 -0.0266571 7.92382812 -0.03158569 C9.85027799 -0.03498052 11.77678579 -0.02580729 13.703125 -0.00488281 C16.64714348 0.02188984 19.5873497 -0.00464357 22.53125 -0.03662109 C24.40625839 -0.03331692 26.28126442 -0.02691053 28.15625 -0.01708984 C29.03345703 -0.027211 29.91066406 -0.03733215 30.81445312 -0.04776001 C31.63880859 -0.03199921 32.46316406 -0.0162384 33.3125 0 C34.03244141 0.00397797 34.75238281 0.00795593 35.49414062 0.01205444 C38.93343532 1.02202686 40.46681076 2.86790045 42.65625 5.64697266 C43.25752258 8.75386047 43.25752258 8.75386047 43.22387695 12.27319336 C43.22460709 12.91765915 43.22533722 13.56212494 43.22608948 14.22612 C43.22262391 16.34254055 43.18382027 18.45672114 43.14453125 20.57275391 C43.13519924 22.04533181 43.12808496 23.51792529 43.12309265 24.99052429 C43.10405274 28.85591919 43.05497989 32.72036632 42.99957275 36.58538818 C42.94831413 40.53352031 42.92556463 44.48180642 42.90039062 48.43017578 C42.84685649 56.16953895 42.7615824 63.90812272 42.65625 71.64697266 C43.57438477 71.62602539 44.49251953 71.60507812 45.43847656 71.58349609 C48.85280428 71.51522682 52.26640443 71.46512881 55.68115234 71.42724609 C57.1575059 71.40715965 58.63378019 71.37988464 60.10986328 71.34521484 C62.23489962 71.29656081 64.35888234 71.27397593 66.484375 71.25634766 C68.4010498 71.22492676 68.4010498 71.22492676 70.35644531 71.19287109 C74.21446565 71.72379132 75.32016591 72.60709553 77.65625 75.64697266 C79.32633491 78.98714249 78.86255649 82.74180415 78.89453125 86.41650391 C78.902603 87.28965744 78.91067474 88.16281097 78.91899109 89.06242371 C78.93283364 90.91260796 78.94355503 92.76281777 78.95141602 94.61303711 C78.9686192 97.43799463 79.01250166 100.26177887 79.05664062 103.08642578 C79.06676847 104.88394322 79.07528429 106.6814706 79.08203125 108.47900391 C79.09953934 109.32187454 79.11704742 110.16474518 79.13508606 111.03315735 C79.1202432 115.0614997 78.96282056 117.14513786 76.81713867 120.6574707 C72.71292127 124.43617002 68.0640548 123.83907372 62.7890625 123.88525391 C61.91732391 123.89332565 61.04558533 123.9013974 60.14743042 123.90971375 C58.30322246 123.92353927 56.45898908 123.93426827 54.61474609 123.94213867 C51.79866018 123.95936615 48.98374415 124.00326671 46.16796875 124.04736328 C44.37500862 124.05748943 42.58203853 124.06600578 40.7890625 124.07275391 C39.94932892 124.09026199 39.10959534 124.10777008 38.24441528 124.12580872 C34.18171697 124.11077817 32.16349048 123.96761022 28.64794922 121.74536133 C25.27951307 118.19648798 25.53767104 115.92013262 25.55859375 111.10791016 C25.56342773 109.15498047 25.56342773 109.15498047 25.56835938 107.16259766 C25.57671534 105.78238867 25.58518029 104.40218033 25.59375 103.02197266 C25.59876499 101.6339534 25.6033279 100.24593243 25.60742188 98.85791016 C25.61924015 95.45424593 25.6371761 92.05060396 25.65625 88.64697266 C19.71625 88.64697266 13.77625 88.64697266 7.65625 88.64697266 C7.70265625 90.68240234 7.7490625 92.71783203 7.796875 94.81494141 C7.82469933 96.79742475 7.85237773 98.77991303 7.87597656 100.76245117 C7.8960299 102.13497289 7.92328028 103.50740983 7.95800781 104.87963867 C8.00679552 106.8576931 8.02713876 108.83638384 8.046875 110.81494141 C8.06782227 112.00369873 8.08876953 113.19245605 8.11035156 114.41723633 C7.56421231 118.30157838 6.42344657 119.91506878 3.65625 122.64697266 C-0.29148694 123.96288497 -4.09289115 123.84920226 -8.2109375 123.88525391 C-9.08267609 123.89332565 -9.95441467 123.9013974 -10.85256958 123.90971375 C-12.69677754 123.92353927 -14.54101092 123.93426827 -16.38525391 123.94213867 C-19.20133982 123.95936615 -22.01625585 124.00326671 -24.83203125 124.04736328 C-26.62499138 124.05748943 -28.41796147 124.06600578 -30.2109375 124.07275391 C-31.05067108 124.09026199 -31.89040466 124.10777008 -32.75558472 124.12580872 C-36.81828303 124.11077817 -38.83650952 123.96761022 -42.35205078 121.74536133 C-47.41328748 116.4130091 -45.65013059 107.24071271 -45.69384766 100.25366211 C-45.71040444 98.3127849 -45.73769088 96.3719686 -45.77587891 94.43139648 C-45.8306834 91.63184 -45.85252664 88.83371228 -45.8671875 86.03369141 C-45.88985687 85.16894699 -45.91252625 84.30420258 -45.93588257 83.41325378 C-45.93303253 82.59923599 -45.9301825 81.7852182 -45.92724609 80.9465332 C-45.93533295 80.23530807 -45.9434198 79.52408295 -45.95175171 78.79130554 C-44.96827588 75.32273048 -43.15649055 73.82727094 -40.34375 71.64697266 C-36.93041992 71.0793457 -36.93041992 71.0793457 -33.07421875 71.15869141 C-32.39321609 71.16576614 -31.71221344 71.17284088 -31.01057434 71.18013 C-28.84965005 71.20797197 -26.69138178 71.27067739 -24.53125 71.33447266 C-23.06058448 71.35956934 -21.58987807 71.38238013 -20.11914062 71.40283203 C-16.52649043 71.45776078 -12.93537972 71.54395618 -9.34375 71.64697266 C-9.36040459 70.4233477 -9.36040459 70.4233477 -9.37739563 69.17500305 C-9.47766112 61.48007034 -9.55374645 53.78545518 -9.60281086 46.09003925 C-9.62888382 42.13387963 -9.66423809 38.17826061 -9.72094727 34.22241211 C-9.77535179 30.40334463 -9.80518786 26.58479646 -9.81813622 22.76537132 C-9.82736119 21.30968235 -9.84537618 19.85402119 -9.87240028 18.39855385 C-9.90880743 16.35614686 -9.91369116 14.31587363 -9.91137695 12.27319336 C-9.92803154 10.53112358 -9.92803154 10.53112358 -9.94502258 8.75386047 C-8.91650786 3.43933265 -5.50874561 0.03043804 0 0 Z " fill="#010202" transform="translate(239.34375,282.35302734375)"/>
<path d="M0 0 C8.58 0 17.16 0 26 0 C26 67.32 26 134.64 26 204 C20.06 204 14.12 204 8 204 C8 212.58 8 221.16 8 230 C17.24 230 26.48 230 36 230 C36 230.33 36 230.66 36 231 C26.43 231 16.86 231 7 231 C6.97421875 226.28203125 6.9484375 221.5640625 6.921875 216.703125 C6.89670713 213.71348735 6.87037505 210.72395093 6.83984375 207.734375 C6.79149817 202.98957945 6.74745798 198.24501822 6.72900391 193.5 C6.71385503 189.67421181 6.67944225 185.84903674 6.63169098 182.02352142 C6.61685867 180.56435222 6.60895792 179.10509548 6.60811615 177.64585114 C6.60575005 175.60080171 6.57870518 173.5574517 6.54589844 171.51269531 C6.53701599 170.34909485 6.52813354 169.18549438 6.51898193 167.9866333 C5.8873123 164.3515057 4.95365434 163.16112745 2 161 C0.0016416 160.39633542 0.0016416 160.39633542 -2.12597656 160.45410156 C-2.92650452 160.43438293 -3.72703247 160.41466431 -4.55181885 160.39434814 C-5.40612488 160.39311951 -6.26043091 160.39189087 -7.140625 160.390625 C-8.02280701 160.37408875 -8.90498901 160.35755249 -9.81390381 160.34051514 C-12.6260065 160.29200806 -15.43756832 160.27065845 -18.25 160.25 C-20.15888142 160.22184254 -22.06773761 160.19191543 -23.9765625 160.16015625 C-28.65099714 160.08624846 -33.32513106 160.03669045 -38 160 C-38 159.67 -38 159.34 -38 159 C-25.46 159 -12.92 159 0 159 C0 106.53 0 54.06 0 0 Z " fill="#0083BF" transform="translate(275,123)"/>
<path d="M0 0 C6.27 0 12.54 0 19 0 C19 33 19 66 19 100 C18.67 99.34 18.34 98.68 18 98 C9.75 98 1.5 98 -7 98 C-7 89.42 -7 80.84 -7 72 C-19.54 72 -32.08 72 -45 72 C-45 71.67 -45 71.34 -45 71 C-43.80922852 70.9906543 -42.61845703 70.98130859 -41.39160156 70.97167969 C-36.97064908 70.93178613 -32.55039297 70.86602927 -28.12988281 70.79248047 C-26.21721344 70.76426714 -24.3044274 70.74305439 -22.39160156 70.72900391 C-19.64066827 70.70757919 -16.89113825 70.6609326 -14.140625 70.609375 C-13.28631897 70.60814636 -12.43201294 70.60691772 -11.55181885 70.60565186 C-10.75129089 70.58593323 -9.95076294 70.5662146 -9.12597656 70.54589844 C-8.42426331 70.53701599 -7.72255005 70.52813354 -6.99957275 70.51898193 C-4.00619046 69.7420603 -2.84083352 68.45920987 -1 66 C-0.38425988 62.93956621 -0.38425988 62.93956621 -0.45410156 59.48730469 C-0.44376389 58.84298492 -0.43342621 58.19866516 -0.42277527 57.53482056 C-0.39337107 55.41358289 -0.39184875 53.29330034 -0.390625 51.171875 C-0.37564156 49.69783715 -0.35891405 48.22381607 -0.34051514 46.74981689 C-0.29684696 42.87661972 -0.276844 39.00364899 -0.26177979 35.13024902 C-0.24220655 31.17523816 -0.20023687 27.2204718 -0.16015625 23.265625 C-0.0848598 15.5104515 -0.03663604 7.75547015 0 0 Z " fill="#0081BC" transform="translate(353,264)"/>
<path d="M0 0 C6.27 0 12.54 0 19 0 C19 32.34 19 64.68 19 98 C13.06 98 7.12 98 1 98 C0.505 98.99 0.505 98.99 0 100 C0 67 0 34 0 0 Z " fill="#0081BC" transform="translate(248,17)"/>
<path d="M0 0 C6.27 0 12.54 0 19 0 C19 29.37 19 58.74 19 89 C10.42 89 1.84 89 -7 89 C-7.103125 86.091875 -7.20625 83.18375 -7.3125 80.1875 C-7.35802002 79.27508545 -7.40354004 78.3626709 -7.45043945 77.42260742 C-7.48898123 75.18991983 -7.46391592 73.18766564 -7 71 C-4.54296875 69.05078125 -4.54296875 69.05078125 -2 68 C-0.59979145 65.19958289 -0.83636665 62.84697961 -0.79467773 59.71435547 C-0.78477814 59.07032776 -0.77487854 58.42630005 -0.76467896 57.76275635 C-0.73305501 55.63093765 -0.70830313 53.49909665 -0.68359375 51.3671875 C-0.66302498 49.89030371 -0.64202853 48.41342582 -0.62062073 46.93655396 C-0.56539201 43.04694389 -0.5159863 39.15728063 -0.46777344 35.26757812 C-0.41756423 31.29943093 -0.36187514 27.33136111 -0.30664062 23.36328125 C-0.19904926 15.57558449 -0.09811282 7.787823 0 0 Z " fill="#0082BD" transform="translate(459,335)"/>
<path d="M0 0 C6.27 0 12.54 0 19 0 C19 20.79 19 41.58 19 63 C13.06 63 7.12 63 1 63 C1 75.21 1 87.42 1 100 C0.67 100 0.34 100 0 100 C0 67 0 34 0 0 Z " fill="#007FB9" transform="translate(140,264)"/>
<path d="M0 0 C6.27 0 12.54 0 19 0 C19 20.79 19 41.58 19 63 C13.06 63 7.12 63 1 63 C1 71.58 1 80.16 1 89 C0.67 89 0.34 89 0 89 C0 59.63 0 30.26 0 0 Z " fill="#0082BC" transform="translate(34,335)"/>
<path d="M0 0 C5.94 0 11.88 0 18 0 C18 17.49 18 34.98 18 53 C12.06 53 6.12 53 0 53 C0 35.51 0 18.02 0 0 Z " fill="#FFE749" transform="translate(247,300)"/>
<path d="M0 0 C0.33 0 0.66 0 1 0 C1 9.57 1 19.14 1 29 C21.79 29 42.58 29 64 29 C64 20.42 64 11.84 64 3 C72.58 3 81.16 3 90 3 C90 11.91 90 20.82 90 30 C60.3 30 30.6 30 0 30 C0 20.1 0 10.2 0 0 Z " fill="#007FB8" transform="translate(317,430)"/>
<path d="M0 0 C8.58 0 17.16 0 26 0 C26 8.91 26 17.82 26 27 C17.42 27 8.84 27 0 27 C0 18.09 0 9.18 0 0 Z " fill="#0087C4" transform="translate(381,371)"/>
<path d="M0 0 C5.94 0 11.88 0 18 0 C18 8.91 18 17.82 18 27 C12.06 27 6.12 27 0 27 C0 18.09 0 9.18 0 0 Z " fill="#0085C2" transform="translate(247,468)"/>
<path d="M0 0 C6.27 0 12.54 0 19 0 C19 6.27 19 12.54 19 19 C12.73 19 6.46 19 0 19 C0 12.73 0 6.46 0 0 Z " fill="#DB366E" transform="translate(282,441)"/>
<path d="M0 0 C6.27 0 12.54 0 19 0 C19 6.27 19 12.54 19 19 C12.73 19 6.46 19 0 19 C0 12.73 0 6.46 0 0 Z " fill="#DB366E" transform="translate(211,441)"/>
<path d="M0 0 C6.27 0 12.54 0 19 0 C19 6.27 19 12.54 19 19 C12.73 19 6.46 19 0 19 C0 12.73 0 6.46 0 0 Z " fill="#EDD643" transform="translate(282,370)"/>
<path d="M0 0 C6.27 0 12.54 0 19 0 C19 6.27 19 12.54 19 19 C12.73 19 6.46 19 0 19 C0 12.73 0 6.46 0 0 Z " fill="#EDD643" transform="translate(211,370)"/>
<path d="M0 0 C5.94 0 11.88 0 18 0 C18 5.94 18 11.88 18 18 C12.06 18 6.12 18 0 18 C0 12.06 0 6.12 0 0 Z " fill="#EA3975" transform="translate(318,477)"/>
<path d="M0 0 C5.94 0 11.88 0 18 0 C18 5.94 18 11.88 18 18 C12.06 18 6.12 18 0 18 C0 12.06 0 6.12 0 0 Z " fill="#EA3975" transform="translate(176,477)"/>
<path d="M0 0 C5.94 0 11.88 0 18 0 C18 5.94 18 11.88 18 18 C12.06 18 6.12 18 0 18 C0 12.06 0 6.12 0 0 Z " fill="#E93975" transform="translate(460,300)"/>
<path d="M0 0 C5.94 0 11.88 0 18 0 C18 5.94 18 11.88 18 18 C12.06 18 6.12 18 0 18 C0 12.06 0 6.12 0 0 Z " fill="#E93975" transform="translate(34,300)"/>
<path d="M0 0 C5.94 0 11.88 0 18 0 C18 5.94 18 11.88 18 18 C12.06 18 6.12 18 0 18 C0 12.06 0 6.12 0 0 Z " fill="#FAE247" transform="translate(353,229)"/>
<path d="M0 0 C5.94 0 11.88 0 18 0 C18 5.94 18 11.88 18 18 C12.06 18 6.12 18 0 18 C0 12.06 0 6.12 0 0 Z " fill="#FAE247" transform="translate(141,229)"/>
</svg>
