<?xml version="1.0" encoding="UTF-8"?>
<svg version="1.1" xmlns="http://www.w3.org/2000/svg" width="512" height="512">
<path d="M0 0 C0.94488785 -0.00705963 1.8897757 -0.01411926 2.86329651 -0.02139282 C41.91562467 -0.247035 41.91562467 -0.247035 58.76953125 3.203125 C59.7661377 3.39648438 60.76274414 3.58984375 61.78955078 3.7890625 C110.19101182 13.35276024 154.38512896 35.77050265 189.76953125 70.203125 C190.77330811 71.16822998 190.77330811 71.16822998 191.79736328 72.15283203 C200.73444332 80.76720099 209.13659789 89.47627109 216.49560547 99.48486328 C217.79203791 101.23348182 219.12241843 102.95141303 220.4609375 104.66796875 C228.32520366 114.8826848 234.71064045 125.84037758 240.76953125 137.203125 C241.43299561 138.44376709 241.43299561 138.44376709 242.10986328 139.70947266 C253.62657967 161.61261762 261.29758965 185.90372389 265.76953125 210.203125 C265.9303418 211.00379395 266.09115234 211.80446289 266.25683594 212.62939453 C271.74897535 240.70724953 271.50349817 274.19290435 265.76953125 302.203125 C265.57617188 303.19973145 265.3828125 304.19633789 265.18359375 305.22314453 C257.06481252 346.31194555 239.6953801 383.40611994 213.76953125 416.203125 C212.95742188 417.24082031 212.1453125 418.27851563 211.30859375 419.34765625 C198.63941514 434.91435994 184.08154161 449.48099025 167.76953125 461.203125 C166.59964669 462.0668777 165.43038875 462.93147969 164.26171875 463.796875 C143.63570695 478.94020242 121.02655998 491.0223415 96.76953125 499.203125 C95.5470166 499.61618896 95.5470166 499.61618896 94.29980469 500.03759766 C84.52895448 503.27568006 74.64734388 505.80797973 64.58203125 507.953125 C63.65737061 508.15188232 62.73270996 508.35063965 61.7800293 508.55541992 C45.57341948 511.84811527 29.63916105 512.57842778 13.14453125 512.515625 C11.61717346 512.51239227 11.61717346 512.51239227 10.05895996 512.50909424 C-4.56294299 512.45939896 -18.86180807 512.15373742 -33.23046875 509.203125 C-34.24302734 509.00444824 -35.25558594 508.80577148 -36.29882812 508.60107422 C-77.39146924 500.38377705 -114.32683292 482.94295303 -147.23046875 457.203125 C-147.76961914 456.78401855 -148.30876953 456.36491211 -148.86425781 455.93310547 C-165.1043318 443.17008625 -180.17509218 427.97886011 -192.23046875 411.203125 C-193.09422145 410.03324044 -193.95882344 408.8639825 -194.82421875 407.6953125 C-209.96754617 387.0693007 -222.04968525 364.46015373 -230.23046875 340.203125 C-230.64353271 338.98061035 -230.64353271 338.98061035 -231.06494141 337.73339844 C-234.30302381 327.96254823 -236.83532348 318.08093763 -238.98046875 308.015625 C-239.17922607 307.09096436 -239.3779834 306.16630371 -239.58276367 305.21362305 C-242.87545902 289.00701323 -243.60577153 273.0727548 -243.54296875 256.578125 C-243.5408136 255.55988647 -243.53865845 254.54164795 -243.53643799 253.49255371 C-243.48673484 238.8683366 -243.17254863 224.57507862 -240.23046875 210.203125 C-239.94042969 208.70821533 -239.94042969 208.70821533 -239.64453125 207.18310547 C-232.01587656 168.57481372 -216.30304558 132.42145621 -192.23046875 101.203125 C-191.26560547 99.95015625 -191.26560547 99.95015625 -190.28125 98.671875 C-176.19691174 80.74132256 -159.85363505 63.45372011 -141.23046875 50.203125 C-140.61284668 49.75710937 -139.99522461 49.31109375 -139.35888672 48.8515625 C-99.20602152 19.97940435 -49.95191371 0.24935871 0 0 Z " fill="#FD9E00" transform="translate(243.23046875,-0.203125)"/>
<path d="M0 0 C0.94488785 -0.00705963 1.8897757 -0.01411926 2.86329651 -0.02139282 C41.91562467 -0.247035 41.91562467 -0.247035 58.76953125 3.203125 C59.7661377 3.39648438 60.76274414 3.58984375 61.78955078 3.7890625 C110.19101182 13.35276024 154.38512896 35.77050265 189.76953125 70.203125 C190.77330811 71.16822998 190.77330811 71.16822998 191.79736328 72.15283203 C200.73444332 80.76720099 209.13659789 89.47627109 216.49560547 99.48486328 C217.79203791 101.23348182 219.12241843 102.95141303 220.4609375 104.66796875 C228.32520366 114.8826848 234.71064045 125.84037758 240.76953125 137.203125 C241.43299561 138.44376709 241.43299561 138.44376709 242.10986328 139.70947266 C253.62657967 161.61261762 261.29758965 185.90372389 265.76953125 210.203125 C265.9303418 211.00379395 266.09115234 211.80446289 266.25683594 212.62939453 C271.74897535 240.70724953 271.50349817 274.19290435 265.76953125 302.203125 C265.57617188 303.19973145 265.3828125 304.19633789 265.18359375 305.22314453 C257.06481252 346.31194555 239.6953801 383.40611994 213.76953125 416.203125 C212.95742188 417.24082031 212.1453125 418.27851563 211.30859375 419.34765625 C198.63941514 434.91435994 184.08154161 449.48099025 167.76953125 461.203125 C166.59964669 462.0668777 165.43038875 462.93147969 164.26171875 463.796875 C143.63570695 478.94020242 121.02655998 491.0223415 96.76953125 499.203125 C95.5470166 499.61618896 95.5470166 499.61618896 94.29980469 500.03759766 C84.52895448 503.27568006 74.64734388 505.80797973 64.58203125 507.953125 C63.65737061 508.15188232 62.73270996 508.35063965 61.7800293 508.55541992 C45.57341948 511.84811527 29.63916105 512.57842778 13.14453125 512.515625 C11.61717346 512.51239227 11.61717346 512.51239227 10.05895996 512.50909424 C-4.56294299 512.45939896 -18.86180807 512.15373742 -33.23046875 509.203125 C-34.24302734 509.00444824 -35.25558594 508.80577148 -36.29882812 508.60107422 C-77.39146924 500.38377705 -114.32683292 482.94295303 -147.23046875 457.203125 C-147.76961914 456.78401855 -148.30876953 456.36491211 -148.86425781 455.93310547 C-165.1043318 443.17008625 -180.17509218 427.97886011 -192.23046875 411.203125 C-193.09422145 410.03324044 -193.95882344 408.8639825 -194.82421875 407.6953125 C-209.96754617 387.0693007 -222.04968525 364.46015373 -230.23046875 340.203125 C-230.64353271 338.98061035 -230.64353271 338.98061035 -231.06494141 337.73339844 C-234.30302381 327.96254823 -236.83532348 318.08093763 -238.98046875 308.015625 C-239.17922607 307.09096436 -239.3779834 306.16630371 -239.58276367 305.21362305 C-242.87545902 289.00701323 -243.60577153 273.0727548 -243.54296875 256.578125 C-243.5408136 255.55988647 -243.53865845 254.54164795 -243.53643799 253.49255371 C-243.48673484 238.8683366 -243.17254863 224.57507862 -240.23046875 210.203125 C-239.94042969 208.70821533 -239.94042969 208.70821533 -239.64453125 207.18310547 C-232.01587656 168.57481372 -216.30304558 132.42145621 -192.23046875 101.203125 C-191.26560547 99.95015625 -191.26560547 99.95015625 -190.28125 98.671875 C-176.19691174 80.74132256 -159.85363505 63.45372011 -141.23046875 50.203125 C-140.61284668 49.75710937 -139.99522461 49.31109375 -139.35888672 48.8515625 C-99.20602152 19.97940435 -49.95191371 0.24935871 0 0 Z M-136.23046875 86.203125 C-137.12121094 86.98429687 -138.01195312 87.76546875 -138.9296875 88.5703125 C-148.22582935 96.79875046 -156.56768104 105.4273871 -164.23046875 115.203125 C-164.93816406 116.09386719 -165.64585937 116.98460938 -166.375 117.90234375 C-179.12326799 134.3717278 -188.77896924 152.20642118 -197.23046875 171.203125 C-197.72135986 172.30188965 -197.72135986 172.30188965 -198.22216797 173.42285156 C-220.09822761 223.5728052 -218.37974337 285.165164 -199.24609375 335.80859375 C-189.11273022 361.40667997 -175.6135529 384.65567161 -157.23046875 405.203125 C-156.44929688 406.09386719 -155.668125 406.98460937 -154.86328125 407.90234375 C-117.3025901 450.336827 -61.90873879 478.31568947 -5.23046875 482.203125 C0.99617927 482.51286721 7.22366421 482.57373639 13.45703125 482.578125 C14.56840958 482.58111603 14.56840958 482.58111603 15.70223999 482.58416748 C30.25711991 482.57971552 44.58864634 481.30816393 58.76953125 477.890625 C59.69830078 477.67116211 60.62707031 477.45169922 61.58398438 477.22558594 C64.31724471 476.5690399 67.0442889 475.89213111 69.76953125 475.203125 C70.89875 474.91912842 70.89875 474.91912842 72.05078125 474.62939453 C127.84920239 460.25668541 177.36504701 422.10437143 206.75 372.73046875 C207.42541231 371.55597007 208.09845811 370.38010834 208.76953125 369.203125 C209.14932129 368.5445752 209.52911133 367.88602539 209.92041016 367.20751953 C220.76189334 348.20108526 228.7752904 327.50767141 233.76953125 306.203125 C234.0634375 304.96046875 234.35734375 303.7178125 234.66015625 302.4375 C247.04174893 245.38506314 235.36936999 183.75995539 203.94921875 134.703125 C201.34407572 130.77785807 198.5960951 126.9711975 195.76953125 123.203125 C195.32254883 122.60209961 194.87556641 122.00107422 194.41503906 121.38183594 C187.74479805 112.47377469 180.46313277 104.23540303 172.76953125 96.203125 C172.06054688 95.45289062 171.3515625 94.70265625 170.62109375 93.9296875 C165.87644171 89.03010804 160.74862501 84.68244357 155.38574219 80.47314453 C154.27024603 79.59658698 153.1591702 78.71438507 152.05175781 77.82763672 C124.38956752 55.75323879 92.02918265 42.17331903 57.76953125 34.203125 C57.00785645 34.02475098 56.24618164 33.84637695 55.46142578 33.66259766 C41.61223913 30.65419296 27.588791 29.79009251 13.45703125 29.828125 C12.6846109 29.82866882 11.91219055 29.82921265 11.11636353 29.82977295 C-43.1138869 30.00341644 -95.76225518 49.99763707 -136.23046875 86.203125 Z " fill="#000000" transform="translate(243.23046875,-0.203125)"/>
<path d="M0 0 C0.74091888 -0.00199402 1.48183777 -0.00398804 2.24520874 -0.00604248 C16.72404945 -0.00161378 31.01401818 1.24220222 45.125 4.625 C46.04531006 4.84188477 46.96562012 5.05876953 47.91381836 5.28222656 C107.4105494 19.60504205 158.30354271 54.56293646 191.25 106.375 C223.20119109 159.91128734 233.69025278 220.67073694 219.1328125 281.4609375 C207.07415393 328.93775088 178.98107145 373.13832538 140.3125 403.375 C139.36375 404.15230469 138.415 404.92960937 137.4375 405.73046875 C110.363145 427.45211326 77.85661676 440.57126855 44.3125 448.375 C43.5508252 448.55337402 42.78915039 448.73174805 42.00439453 448.91552734 C28.15520788 451.92393204 14.13175975 452.78803249 0 452.75 C-0.77242035 452.74945618 -1.5448407 452.74891235 -2.34066772 452.74835205 C-49.39645983 452.59768094 -95.91553446 437.70908124 -133.6875 409.375 C-134.28852539 408.92801758 -134.88955078 408.48103516 -135.50878906 408.02050781 C-144.41685031 401.3502668 -152.65522197 394.06860152 -160.6875 386.375 C-161.43773437 385.66601562 -162.18796875 384.95703125 -162.9609375 384.2265625 C-168.35558447 379.00249725 -173.05101662 373.27381361 -177.6875 367.375 C-178.4196875 366.44816406 -179.151875 365.52132813 -179.90625 364.56640625 C-216.43864263 317.16434046 -232.75035443 256.68227955 -225.60913086 197.33032227 C-219.37046483 152.80392773 -200.71216286 110.93467668 -170.6875 77.375 C-169.90632813 76.48425781 -169.12515625 75.59351562 -168.3203125 74.67578125 C-160.09247651 65.38031949 -151.4650307 57.03450975 -141.6875 49.375 C-140.76195312 48.64410156 -139.83640625 47.91320312 -138.8828125 47.16015625 C-98.77892712 16.23995194 -50.51636597 0.03556609 0 0 Z M-129.6875 84.375 C-130.84765625 85.34953125 -130.84765625 85.34953125 -132.03125 86.34375 C-136.73981936 90.32792407 -140.73367314 94.64989275 -144.6875 99.375 C-145.44933594 100.24898438 -146.21117187 101.12296875 -146.99609375 102.0234375 C-178.92233194 139.17940269 -195.81405393 188.41226785 -192.6875 237.375 C-192.21203704 242.55823532 -191.60410543 247.71375161 -190.9375 252.875 C-190.78071777 254.1026709 -190.62393555 255.3303418 -190.46240234 256.59521484 C-189.26532441 265.11248748 -187.2636832 273.17443997 -184.6875 281.375 C-184.40745117 282.2712207 -184.12740234 283.16744141 -183.83886719 284.09082031 C-180.09597583 295.73485841 -175.5151854 306.63154086 -169.6875 317.375 C-169.07261719 318.54289062 -168.45773438 319.71078125 -167.82421875 320.9140625 C-159.44291572 336.28846101 -148.42251695 349.63998305 -136.07421875 361.98828125 C-134.70813226 363.35436774 -133.35571618 364.73522243 -132.046875 366.15625 C-121.22740325 377.71102565 -107.51977012 386.82287767 -93.6875 394.375 C-93.07116699 394.71337891 -92.45483398 395.05175781 -91.81982422 395.40039062 C-55.52414782 415.0562423 -13.55377116 423.18886317 27.3125 416.375 C28.22547852 416.2296582 29.13845703 416.08431641 30.07910156 415.93457031 C52.12310859 412.32893939 72.78249963 405.24576576 92.3125 394.375 C92.94446289 394.02469727 93.57642578 393.67439453 94.22753906 393.31347656 C110.5140269 384.17234647 124.14540015 372.56375627 137.3125 359.375 C137.9003125 358.83359375 138.488125 358.2921875 139.09375 357.734375 C150.6476105 346.91576017 159.76308394 333.20778097 167.3125 319.375 C167.65619629 318.74803223 167.99989258 318.12106445 168.35400391 317.47509766 C173.74754625 307.50046115 177.90075739 297.20390777 181.58251953 286.48779297 C182.19872973 284.70428693 182.84416126 282.93091678 183.49609375 281.16015625 C198.44231914 237.83354958 193.03281306 185.87448897 173.37939453 145.08227539 C171.75325789 141.812215 170.04199533 138.5912693 168.3125 135.375 C168.00231934 134.78412598 167.69213867 134.19325195 167.37255859 133.58447266 C158.90028594 117.50462784 147.54652627 103.60902627 134.734375 90.796875 C133.27194759 89.33444759 131.82716076 87.85363558 130.41796875 86.33984375 C111.42479091 66.2635519 85.25909275 52.98076314 59.42529297 44.10498047 C57.64178693 43.48877027 55.86841678 42.84333874 54.09765625 42.19140625 C42.91428886 38.33351978 30.98211621 37.03661926 19.3125 35.375 C18.23657593 35.21378662 18.23657593 35.21378662 17.13891602 35.04931641 C-36.42580985 27.52363793 -89.97112535 49.78331885 -129.6875 84.375 Z " fill="#FDD200" transform="translate(256.6875,29.625)"/>
<path d="M0 0 C1.1765918 0.15670166 2.35318359 0.31340332 3.56542969 0.47485352 C11.92730522 1.70277599 19.87516809 3.73268327 27.9375 6.25 C28.8344458 6.53004883 29.7313916 6.81009766 30.65551758 7.09863281 C42.29813839 10.84440906 53.1942683 15.42243798 63.9375 21.25 C65.10539062 21.86488281 66.27328125 22.47976562 67.4765625 23.11328125 C80.01613896 29.94919031 91.41383699 38.54930006 101.82421875 48.3125 C103.96579188 50.32325462 103.96579188 50.32325462 106.51171875 52.28515625 C110.13479304 55.21978808 112.92922533 58.70352177 115.9375 62.25 C116.77667969 63.20132813 117.61585938 64.15265625 118.48046875 65.1328125 C151.19550566 102.46458418 167.60777178 151.78758259 164.9375 201.25 C163.87526102 214.82667411 161.92485061 228.20975046 157.9375 241.25 C157.52540283 242.61125 157.52540283 242.61125 157.10498047 244 C153.31903373 256.32689812 149.17650613 268.17397333 142.91992188 279.47363281 C141.94978847 281.22778059 141.01367739 283.00060503 140.078125 284.7734375 C131.12838352 301.23060674 119.12484347 315.06265653 105.9375 328.25 C105.39609375 328.8378125 104.8546875 329.425625 104.296875 330.03125 C93.47826017 341.5851105 79.77028097 350.70058394 65.9375 358.25 C64.99704834 358.76554443 64.99704834 358.76554443 64.03759766 359.29150391 C53.3958306 365.04578089 42.36481298 369.3262901 30.9375 373.25 C29.84179688 373.64058594 28.74609375 374.03117187 27.6171875 374.43359375 C13.86201061 379.0485813 -1.55257864 381.85018586 -16.0625 382.25 C-16.87315918 382.27578125 -17.68381836 382.3015625 -18.51904297 382.328125 C-65.26268205 383.63724145 -113.50683554 369.58068581 -149.0625 338.25 C-149.9596875 337.46238281 -150.856875 336.67476563 -151.78125 335.86328125 C-156.00117303 332.1087909 -160.11846796 328.29516106 -164.0625 324.25 C-164.66964844 323.68796875 -165.27679688 323.1259375 -165.90234375 322.546875 C-177.77893198 311.29310966 -187.24929165 297.56612711 -195.0625 283.25 C-195.57804443 282.30954834 -195.57804443 282.30954834 -196.10400391 281.35009766 C-201.49754625 271.37546115 -205.65075739 261.07890777 -209.33251953 250.36279297 C-209.94872973 248.57928693 -210.59416126 246.80591678 -211.24609375 245.03515625 C-226.19231914 201.70854958 -220.78281306 149.74948897 -201.12939453 108.95727539 C-199.50325789 105.687215 -197.79199533 102.4662693 -196.0625 99.25 C-195.75231934 98.65912598 -195.44213867 98.06825195 -195.12255859 97.45947266 C-188.15115236 84.22817865 -179.22118715 72.26200922 -169 61.36328125 C-166.98924538 59.22170812 -166.98924538 59.22170812 -165.02734375 56.67578125 C-162.09271192 53.05270696 -158.60897823 50.25827467 -155.0625 47.25 C-153.63550781 45.99123047 -153.63550781 45.99123047 -152.1796875 44.70703125 C-144.27518982 37.78006471 -136.01496609 31.75386764 -127.0625 26.25 C-126.38622559 25.83363281 -125.70995117 25.41726562 -125.01318359 24.98828125 C-87.42021346 2.20997261 -43.33212703 -5.7759516 0 0 Z M-141.0625 75.25 C-141.70574219 75.8275 -142.34898437 76.405 -143.01171875 77 C-168.16281024 100.62198949 -183.3877601 135.43967189 -188.0625 169.25 C-188.17335938 170.03117188 -188.28421875 170.81234375 -188.3984375 171.6171875 C-193.16765183 212.99334423 -180.94274059 256.89018231 -155.0859375 289.5859375 C-150.64735327 295.03627886 -145.93788229 300.18740303 -141.0625 305.25 C-140.47339844 305.89066406 -139.88429687 306.53132813 -139.27734375 307.19140625 C-112.96631258 335.05394786 -71.43702132 351.15158502 -33.68359375 352.47265625 C12.36018761 353.48348807 53.41597678 336.38109951 86.9375 305.25 C87.90236328 304.38375 87.90236328 304.38375 88.88671875 303.5 C100.66801903 292.43496326 109.6364706 278.55943237 116.9375 264.25 C117.24880859 263.65574219 117.56011719 263.06148437 117.88085938 262.44921875 C136.75946027 226.14112065 140.15973045 183.12924404 128.54125977 144.02954102 C121.81357567 122.75898359 111.84429926 102.97014872 96.9375 86.25 C96.18597656 85.39019531 95.43445313 84.53039062 94.66015625 83.64453125 C92.45104307 81.14842217 90.20430725 78.69370872 87.9375 76.25 C87.36128906 75.60804688 86.78507812 74.96609375 86.19140625 74.3046875 C70.91912522 58.04600079 49.98670621 45.34472153 28.9375 38.25 C28.20515137 37.99911621 27.47280273 37.74823242 26.71826172 37.48974609 C-33.94451021 17.05849422 -94.62473162 32.12371428 -141.0625 75.25 Z " fill="#020100" transform="translate(283.0625,65.75)"/>
<path d="M0 0 C0.72261017 -0.00700928 1.44522034 -0.01401855 2.18972778 -0.02124023 C4.56901942 -0.03878829 6.94711311 -0.02720866 9.32641602 -0.01367188 C10.9864169 -0.01636803 12.64641625 -0.02025148 14.30641174 -0.02526855 C17.78238996 -0.0311595 21.25795644 -0.02261509 24.73388672 -0.00390625 C29.18050447 0.01886564 33.62615551 0.00576942 38.07273769 -0.01819611 C41.50009893 -0.03268043 44.92723266 -0.0280358 48.35460091 -0.01768494 C49.99359312 -0.01502399 51.63260625 -0.01826514 53.27157402 -0.02760315 C55.56701878 -0.03781073 57.86091965 -0.02221071 60.15625 0 C61.46021225 0.00318237 62.7641745 0.00636475 64.10765076 0.00964355 C69.4626622 0.77905331 72.34724369 2.97502079 75.7853775 7.068573 C78.21205177 11.57455463 78.19866865 15.00960489 78.14402771 20.04431152 C78.15232931 21.4728528 78.15232931 21.4728528 78.16079861 22.93025351 C78.17439945 26.11783119 78.15943857 29.30462514 78.14453125 32.4921875 C78.14831462 34.7788781 78.1538148 37.06556641 78.16090393 39.35224915 C78.17487334 45.56087373 78.16367809 51.76922165 78.14719272 57.97783089 C78.13334925 64.47330064 78.1398015 70.96875422 78.14332581 77.4642334 C78.14602848 88.37252358 78.13263501 99.28070126 78.109375 110.18896484 C78.0854549 121.4080819 78.07837103 132.62705343 78.08886719 143.84619141 C78.10149875 157.37201086 78.0989813 170.89771848 78.08320808 184.42353821 C78.07744752 189.58768791 78.07753155 194.75178891 78.08227348 199.91593933 C78.08704357 205.99642485 78.07693997 212.07670881 78.05531883 218.15715599 C78.04975128 220.38963834 78.04928537 222.62214007 78.0542717 224.85462379 C78.06022144 227.90025493 78.04772485 230.94526918 78.03050232 233.99084473 C78.03651236 234.87586591 78.04252241 235.7608871 78.04871458 236.67272711 C77.9969692 241.69940482 77.43569659 245.16570405 74.64282227 249.51757812 C69.7649333 253.91957549 67.16270917 254.64709858 60.64208984 254.72631836 C59.92152405 254.73610214 59.20095825 254.74588593 58.45855713 254.75596619 C56.06817473 254.78593665 53.67784851 254.80731333 51.28735352 254.82617188 C50.06204705 254.83602962 50.06204705 254.83602962 48.81198692 254.8460865 C44.48567817 254.87869186 40.15939412 254.90313638 35.83300781 254.92260742 C32.25646979 254.94040155 28.68072306 254.97518816 25.10449219 255.02514648 C20.78379641 255.08543417 16.46383279 255.11609512 12.14273643 255.12578011 C10.49890312 255.13432392 8.8550888 255.15311582 7.21149635 255.18252373 C-7.25971152 255.427446 -7.25971152 255.427446 -11.79589844 251.79125977 C-16.7052371 246.67063298 -16.64790918 240.79264411 -16.62460327 234.11109924 C-16.62913438 233.15959281 -16.6336655 232.20808638 -16.63833392 231.22774643 C-16.65100101 228.03727972 -16.64935605 224.84698322 -16.64770508 221.65649414 C-16.65368881 219.36995219 -16.66049399 217.08341226 -16.6680603 214.796875 C-16.68574152 208.58414565 -16.69041653 202.37147138 -16.69169188 196.1587193 C-16.69359009 190.9746333 -16.70094659 185.79056016 -16.70803607 180.60647911 C-16.72339454 169.07674092 -16.72937326 157.54703419 -16.72802536 146.01728726 C-16.72794545 145.32572065 -16.72786554 144.63415404 -16.7277832 143.92163086 C-16.72766056 142.88301305 -16.72766056 142.88301305 -16.72753544 141.82341307 C-16.72672231 130.59860351 -16.74586801 119.37392806 -16.77405994 108.14915729 C-16.80278628 96.62056874 -16.81623411 85.09206293 -16.81487238 73.56343597 C-16.81436195 67.09215698 -16.8200902 60.62102982 -16.84122849 54.14978218 C-16.86056113 48.0651903 -16.86076925 41.98089588 -16.84619522 35.89629364 C-16.84409998 33.66218826 -16.84885038 31.42806449 -16.86091614 29.19399071 C-16.8763127 26.14598879 -16.86709702 23.09901974 -16.85165405 20.05104065 C-16.86194118 19.16533734 -16.87222831 18.27963404 -16.88282716 17.36709124 C-16.80745969 10.6437485 -14.81453621 7.03124223 -10.06700134 2.17492676 C-6.53239947 0.0131375 -4.1315257 0.01008931 0 0 Z " fill="#010100" transform="translate(225.357177734375,128.482421875)"/>
<path d="M0 0 C11.22 0 22.44 0 34 0 C34 64.02 34 128.04 34 194 C22.78 194 11.56 194 0 194 C0 129.98 0 65.96 0 0 Z " fill="#FFD400" transform="translate(239,159)"/>
</svg>
