<svg version="1.1" xmlns="http://www.w3.org/2000/svg" width="666" height="375">
<path d="M0 0 C0.33 3.3 0.66 6.6 1 10 C4.06741596 9.2961182 4.06741596 9.2961182 5.4375 7.0625 C7.12624104 4.83336183 8.44925207 4.0554819 11 3 C11 2.34 11 1.68 11 1 C15.07667615 -1.03833808 20.20634971 -0.36110179 24.6875 -0.4375 C25.76451172 -0.48326172 26.84152344 -0.52902344 27.95117188 -0.57617188 C33.25821008 -0.65101055 36.96586494 -0.65920937 41.12109375 2.87890625 C42.10796526 3.89347178 43.07098472 4.93220358 44 6 C45.175625 7.175625 45.175625 7.175625 46.375 8.375 C46.91125 8.91125 47.4475 9.4475 48 10 C48.33 10 48.66 10 49 10 C49.06058594 9.36191406 49.12117187 8.72382812 49.18359375 8.06640625 C49.26738281 7.24011719 49.35117188 6.41382812 49.4375 5.5625 C49.55931641 4.32693359 49.55931641 4.32693359 49.68359375 3.06640625 C50 1 50 1 51 0 C53.37583135 -0.20954821 55.72422648 -0.35718639 58.10546875 -0.45703125 C58.82229324 -0.48729904 59.53911774 -0.51756683 60.27766418 -0.54875183 C61.79998213 -0.60965199 63.32242695 -0.66744605 64.8449707 -0.72241211 C66.39808979 -0.78214123 67.95088481 -0.85105154 69.50317383 -0.92944336 C71.74527151 -1.04261295 73.98694434 -1.12779941 76.23046875 -1.20703125 C76.9181987 -1.24641312 77.60592865 -1.28579498 78.3144989 -1.32637024 C84.55444995 -1.48873321 87.83340099 1.07977011 92.3359375 5.0703125 C93.00882812 5.74835938 93.68171875 6.42640625 94.375 7.125 C95.06335938 7.80820313 95.75171875 8.49140625 96.4609375 9.1953125 C98 11 98 11 98 13 C98.66 13 99.32 13 100 13 C99.67 13.66 99.34 14.32 99 15 C98.84693099 16.81171098 98.75053339 18.6283794 98.68359375 20.4453125 C98.64169922 21.52167969 98.59980469 22.59804687 98.55664062 23.70703125 C98.49766602 25.39892578 98.49766602 25.39892578 98.4375 27.125 C98.39431641 28.26066406 98.35113281 29.39632812 98.30664062 30.56640625 C98.2003396 33.37747768 98.09830595 36.18863945 98 39 C98.66 39 99.32 39 100 39 C100 40.32 100 41.64 100 43 C98.515 43.495 98.515 43.495 97 44 C95.99357052 45.32848691 94.99307821 46.66150329 94 48 C93.34 48 92.68 48 92 48 C91.6596875 48.86625 91.6596875 48.86625 91.3125 49.75 C89.57273171 52.73245992 87.91244196 54.12100518 85 56 C82.23866047 56.28614917 79.91854388 56.38589883 77.1875 56.25 C76.49462891 56.23195312 75.80175781 56.21390625 75.08789062 56.1953125 C73.39132336 56.14851064 71.69547524 56.07677624 70 56 C70.00523682 57.08531006 70.01047363 58.17062012 70.01586914 59.28881836 C70.03391836 63.30117982 70.04543171 67.31353767 70.05493164 71.32592773 C70.05997204 73.06519168 70.0668043 74.80445136 70.07543945 76.54370117 C70.08751792 79.03825937 70.09323108 81.53276173 70.09765625 84.02734375 C70.10281754 84.80963852 70.10797882 85.59193329 70.11329651 86.39793396 C70.11349226 88.26567114 70.06199694 90.13329204 70 92 C69 93 69 93 67.14233398 93.11352539 C66.35157471 93.10828857 65.56081543 93.10305176 64.74609375 93.09765625 C63.89208984 93.09443359 63.03808594 93.09121094 62.15820312 93.08789062 C61.26037109 93.07951172 60.36253906 93.07113281 59.4375 93.0625 C58.53580078 93.05798828 57.63410156 93.05347656 56.70507812 93.04882812 C54.47002411 93.03700244 52.23500398 93.01906638 50 93 C49.67 89.04 49.34 85.08 49 81 C48.05125 82.155 47.1025 83.31 46.125 84.5 C44.5078125 86.46875 44.5078125 86.46875 43 88 C42.34 88 41.68 88 41 88 C41 88.66 41 89.32 41 90 C40.01 90 39.02 90 38 90 C38 90.99 38 91.98 38 93 C34.22958744 93.19670554 30.45866237 93.38078426 26.6875 93.5625 C25.0797168 93.64661133 25.0797168 93.64661133 23.43945312 93.73242188 C22.41142578 93.78076172 21.38339844 93.82910156 20.32421875 93.87890625 C18.9024231 93.94960327 18.9024231 93.94960327 17.4519043 94.02172852 C15 94 15 94 12 93 C11.38125 91.948125 11.38125 91.948125 10.75 90.875 C8.16657778 86.63080635 4.50988307 82.25494154 0 80 C0.00222061 79.25275665 0.00444122 78.50551331 0.00672913 77.73562622 C0.02674595 70.70193391 0.04198126 63.66825142 0.05181217 56.63453865 C0.05703619 53.01822828 0.06412515 49.40194139 0.07543945 45.78564453 C0.08628538 42.29731896 0.09228047 38.80901602 0.09487724 35.3206749 C0.09763081 33.33862308 0.1054401 31.3565804 0.11329651 29.37454224 C0.11337204 28.17344818 0.11344757 26.97235413 0.11352539 25.73486328 C0.115746 24.67341095 0.11796661 23.61195862 0.12025452 22.51834106 C0.17014427 20.00358605 0.17014427 20.00358605 -1 18 C-7.93 17.505 -7.93 17.505 -15 17 C-14.67 42.08 -14.34 67.16 -14 93 C-31 93 -31 93 -34 92 C-34 67.25 -34 42.5 -34 17 C-76.9 17.33 -119.8 17.66 -164 18 C-164.33 16.68 -164.66 15.36 -165 14 C-165.66 14 -166.32 14 -167 14 C-168.0076952 12.2335343 -169.00591714 10.46166177 -170 8.6875 C-170.556875 7.70136719 -171.11375 6.71523437 -171.6875 5.69921875 C-173 3 -173 3 -173 0 C-150.88660359 -0.15383015 -128.77317518 -0.30186539 -106.65969372 -0.4429636 C-96.39249333 -0.50861069 -86.12531209 -0.57616854 -75.8581543 -0.64819336 C-66.91141447 -0.71095054 -57.96465948 -0.7701545 -49.01786786 -0.82505554 C-44.27872163 -0.85426186 -39.53960242 -0.88527191 -34.80049706 -0.92053413 C-30.34287386 -0.95364587 -25.885246 -0.98201828 -21.42756844 -1.00670624 C-19.78884598 -1.01662649 -18.15013309 -1.02830003 -16.51143646 -1.04183006 C-14.27916339 -1.06000247 -12.04694201 -1.07194509 -9.81462097 -1.08229065 C-8.56374789 -1.09058679 -7.31287481 -1.09888292 -6.02409649 -1.10743046 C-3 -1 -3 -1 0 0 Z M0 12 C1 16 1 16 1 16 Z M20 18 C20 36.48 20 54.96 20 74 C23.3 74 26.6 74 30 74 C30 55.52 30 37.04 30 18 C26.7 18 23.4 18 20 18 Z M70 19 C70 24.61 70 30.22 70 36 C72.97 36 75.94 36 79 36 C79 30.39 79 24.78 79 19 C76.03 19 73.06 19 70 19 Z " fill="#F9ED07" transform="translate(204,115)"/>
<path d="M0 0 C6.27 0 12.54 0 19 0 C22.53107954 8.82769885 25.312275 17.89750186 28.0703125 26.9921875 C28.67393237 28.9450753 29.30032316 30.89112281 29.953125 32.828125 C31.26994828 36.81790301 32.44922109 40.84180489 33.625 44.875 C33.85445313 45.65875 34.08390625 46.4425 34.3203125 47.25 C34.88120299 49.16637583 35.44074018 51.08314765 36 53 C36.66 52.67 37.32 52.34 38 52 C38.65555119 49.47266765 38.65555119 49.47266765 39 47 C39.66 47 40.32 47 41 47 C41.10957031 46.31035156 41.21914063 45.62070313 41.33203125 44.91015625 C42.25340846 39.44931083 43.42804617 34.33005003 45.28125 29.11328125 C45.97029115 27.08735047 46.50736798 25.08137027 47 23 C48.0535162 18.5716607 49.50791748 14.29719765 51 10 C51.66 10 52.32 10 53 10 C53.33 6.7 53.66 3.4 54 0 C106.8 0 159.6 0 214 0 C215 3 215 3 213.78515625 5.69921875 C213.21667969 6.68535156 212.64820313 7.67148438 212.0625 8.6875 C211.49660156 9.68136719 210.93070313 10.67523438 210.34765625 11.69921875 C209.90292969 12.45847656 209.45820312 13.21773437 209 14 C208.34 14 207.68 14 207 14 C207 14.99 207 15.98 207 17 C163.44 17 119.88 17 75 17 C75 42.08 75 67.16 75 93 C68.4 93 61.8 93 55 93 C55.33 83.43 55.66 73.86 56 64 C55.34 64 54.68 64 54 64 C54.020625 65.0725 54.04125 66.145 54.0625 67.25 C54.0142016 70.14790424 53.86844115 72.28612141 53 75 C52.34 75 51.68 75 51 75 C50.81824219 76.21236328 50.81824219 76.21236328 50.6328125 77.44921875 C50.46523438 78.51785156 50.29765625 79.58648437 50.125 80.6875 C49.96257812 81.74324219 49.80015625 82.79898438 49.6328125 83.88671875 C48.52450837 89.33930144 48.52450837 89.33930144 47 92 C42.94859984 93.5331624 38.47742275 93.11586746 34.1875 93.0625 C33.49462891 93.05798828 32.80175781 93.05347656 32.08789062 93.04882812 C30.39188932 93.03713156 28.69593297 93.01919924 27 93 C27 92.01 27 91.02 27 90 C26.34 90 25.68 90 25 90 C24.90912109 89.11248047 24.90912109 89.11248047 24.81640625 88.20703125 C24.37938731 84.08560649 23.87667819 80.05463663 23 76 C22.7834375 74.39125 22.7834375 74.39125 22.5625 72.75 C22.376875 71.8425 22.19125 70.935 22 70 C21.34 69.67 20.68 69.34 20 69 C19.67 68.01 19.34 67.02 19 66 C19 66.7113208 19 67.4226416 19 68.15551758 C19 76.43701172 19 84.71850586 19 93 C12.73 93 6.46 93 0 93 C-0.85358694 81.4808874 -1.07468467 70.13732975 -0.87890625 58.59375 C-0.85452295 56.89026635 -0.83068398 55.18677482 -0.80735779 53.48327637 C-0.7453314 49.05778855 -0.67604645 44.63244493 -0.60510254 40.20709229 C-0.5336703 35.66807471 -0.46930586 31.12895706 -0.40429688 26.58984375 C-0.27633887 17.72644892 -0.1400357 8.86321224 0 0 Z M55 60 C56 62 56 62 56 62 Z " fill="#FAED0D" transform="translate(420,115)"/>
<path d="M0 0 C1.02673828 0.06123047 2.05347656 0.12246094 3.11132812 0.18554688 C5.63800216 0.33832251 8.16274687 0.50609393 10.6875 0.6875 C11.1825 2.1725 11.1825 2.1725 11.6875 3.6875 C12.55375 4.120625 12.55375 4.120625 13.4375 4.5625 C16.44322382 6.06536191 18.35607104 8.29471765 20.6875 10.6875 C21.3475 11.0175 22.0075 11.3475 22.6875 11.6875 C22.6875 8.0575 22.6875 4.4275 22.6875 0.6875 C28.9575 0.6875 35.2275 0.6875 41.6875 0.6875 C42.6448405 4.51686199 42.80233105 7.44511257 42.78515625 11.36791992 C42.78296585 12.36125084 42.78296585 12.36125084 42.7807312 13.37464905 C42.77693527 14.80749957 42.77082934 16.24034543 42.76266479 17.67317772 C42.74988747 19.93791519 42.74338264 22.20259403 42.73852539 24.46736145 C42.72710932 29.26993403 42.70784823 34.07245806 42.6875 38.875 C42.66393528 44.44999652 42.64354783 50.02496592 42.63156128 55.60000038 C42.62505543 57.83641322 42.61255076 60.07274276 42.59985352 62.30912781 C42.59622325 63.67117234 42.59287124 65.03321766 42.58984375 66.39526367 C42.58198853 68.18585457 42.58198853 68.18585457 42.57397461 70.01261902 C42.38197298 72.60746873 42.38197298 72.60746873 43.6875 73.6875 C45.03497084 73.91825082 46.39127565 74.09903063 47.75 74.25 C49.049375 74.394375 50.34875 74.53875 51.6875 74.6875 C51.68527939 73.77517105 51.68305878 72.8628421 51.68077087 71.92286682 C51.66077072 63.34366723 51.64552728 54.76447542 51.63568783 46.18525791 C51.63045931 41.77412996 51.62336223 37.3630212 51.61206055 32.9519043 C51.60123056 28.69848885 51.59522293 24.44509191 51.59262276 20.19166374 C51.59076871 18.56528367 51.58714848 16.93890466 51.58176994 15.31253242 C51.57455802 13.04239807 51.57350912 10.77234115 51.57397461 8.50219727 C51.571754 7.20758072 51.56953339 5.91296417 51.56724548 4.57911682 C51.6875 1.6875 51.6875 1.6875 52.6875 0.6875 C54.02765221 0.53167697 55.37508903 0.43705858 56.72265625 0.37109375 C57.53154297 0.32919922 58.34042969 0.28730469 59.17382812 0.24414062 C60.4490332 0.18516602 60.4490332 0.18516602 61.75 0.125 C62.60400391 0.08181641 63.45800781 0.03863281 64.33789062 -0.00585938 C66.45422037 -0.11226702 68.57083813 -0.21291731 70.6875 -0.3125 C70.87330663 10.22323088 71.01523178 20.75856861 71.10199738 31.29560757 C71.14365298 36.18911776 71.20010181 41.08150264 71.29101562 45.97436523 C71.37829026 50.70124843 71.42584648 55.42705321 71.44651794 60.15468025 C71.46123803 61.95324739 71.48998459 63.75175906 71.53334045 65.54986382 C71.89992824 81.39132836 71.89992824 81.39132836 66.76367188 87.36352539 C63.20633573 90.6875 63.20633573 90.6875 60.6875 90.6875 C60.1925 92.1725 60.1925 92.1725 59.6875 93.6875 C51.4375 93.6875 43.1875 93.6875 34.6875 93.6875 C34.3575 92.6975 34.0275 91.7075 33.6875 90.6875 C32.883125 90.213125 32.07875 89.73875 31.25 89.25 C28.41864323 87.52356295 28.04454343 86.58252598 26.6875 83.6875 C25.98625 83.171875 25.285 82.65625 24.5625 82.125 C23.94375 81.650625 23.325 81.17625 22.6875 80.6875 C22.6875 79.6975 22.6875 78.7075 22.6875 77.6875 C22.3471875 78.7703125 22.3471875 78.7703125 22 79.875 C20.12471746 83.89346258 17.52124594 86.7968234 13.5 88.75 C11.14850254 89.96629179 10.76403318 91.33050885 9.6875 93.6875 C6.18838305 93.89287903 2.69083334 94.01579941 -0.8125 94.125 C-2.28589844 94.21297852 -2.28589844 94.21297852 -3.7890625 94.30273438 C-9.32560668 94.43192041 -12.58879419 94.04972519 -16.84765625 90.33984375 C-18.02670091 89.14571737 -19.18395209 87.92945963 -20.3125 86.6875 C-21.28862779 85.72607154 -22.26739792 84.76731061 -23.25 83.8125 C-24.2709375 82.760625 -24.2709375 82.760625 -25.3125 81.6875 C-25.6425 81.3575 -25.9725 81.0275 -26.3125 80.6875 C-26.43308363 78.56193562 -26.48277248 76.43232885 -26.50537109 74.3034668 C-26.51354858 73.63674957 -26.52172607 72.97003235 -26.53015137 72.28311157 C-26.5550468 70.06765655 -26.5715326 67.85226581 -26.5859375 65.63671875 C-26.59126118 64.88138163 -26.59658485 64.1260445 -26.60206985 63.34781837 C-26.62882071 59.34915811 -26.64818849 55.35052926 -26.66259766 51.35180664 C-26.67924203 47.21872517 -26.72401118 43.0864417 -26.7749691 38.95366192 C-26.80861084 35.7786415 -26.82017168 32.60381105 -26.82582474 29.42862892 C-26.8325469 27.90514853 -26.84779425 26.38168105 -26.87171555 24.85837364 C-26.90330522 22.72482587 -26.90341495 20.5934366 -26.89599609 18.4597168 C-26.90812637 16.63889839 -26.90812637 16.63889839 -26.92050171 14.78129578 C-26.3125 11.6875 -26.3125 11.6875 -23.93228149 9.4243927 C-23.0677536 8.85121811 -22.20322571 8.27804352 -21.3125 7.6875 C-20.4875 6.841875 -19.6625 5.99625 -18.8125 5.125 C-12.69213534 -0.84235554 -8.20499781 -0.59319562 0 0 Z M-7.3125 19.6875 C-7.3125 29.9175 -7.3125 40.1475 -7.3125 50.6875 C-6.9825 50.6875 -6.6525 50.6875 -6.3125 50.6875 C-5.9825 46.3975 -5.6525 42.1075 -5.3125 37.6875 C-3.47042969 37.72230469 -1.62835938 37.75710937 0.26953125 37.79296875 C2.6796784 37.82110276 5.08983539 37.84840333 7.5 37.875 C8.71494141 37.90013672 9.92988281 37.92527344 11.18164062 37.95117188 C12.34501953 37.96083984 13.50839844 37.97050781 14.70703125 37.98046875 C15.78057861 37.9961792 16.85412598 38.01188965 17.96020508 38.02807617 C20.73044669 37.92608076 20.73044669 37.92608076 22.5612793 36.16918945 C22.93293213 35.68023193 23.30458496 35.19127441 23.6875 34.6875 C20.61000257 33.78277275 17.88931504 33.58107266 14.6875 33.625 C13.841875 33.63402344 12.99625 33.64304687 12.125 33.65234375 C11.320625 33.66394531 10.51625 33.67554688 9.6875 33.6875 C5.6875 33.6875 5.6875 33.6875 3.6875 32.6875 C2.2950917 28.51949634 2.13477859 24.03249204 1.6875 19.6875 C-1.2825 19.6875 -4.2525 19.6875 -7.3125 19.6875 Z M-7.3125 52.6875 C-7.3125 59.6175 -7.3125 66.5475 -7.3125 73.6875 C-4.35585481 75.1658226 -1.57020263 74.74782783 1.6875 74.6875 C3.02866414 72.00517173 2.85654021 69.86917741 2.875 66.875 C2.88917969 65.83730469 2.90335937 64.79960937 2.91796875 63.73046875 C2.68464427 60.64979467 1.98868886 58.46988408 0.6875 55.6875 C-1.6225 56.0175 -3.9325 56.3475 -6.3125 56.6875 C-6.6425 55.3675 -6.9725 54.0475 -7.3125 52.6875 Z " fill="#ECE011" transform="translate(347.3125,114.3125)"/>
<path d="M0 0 C0.04898438 0.71027344 0.09796875 1.42054687 0.1484375 2.15234375 C0.26058594 3.53099609 0.26058594 3.53099609 0.375 4.9375 C0.47941406 6.31228516 0.47941406 6.31228516 0.5859375 7.71484375 C0.72257813 8.46894531 0.85921875 9.22304687 1 10 C1.99 10.495 1.99 10.495 3 11 C2.01 11.33 1.02 11.66 0 12 C0.33 14.64 0.66 17.28 1 20 C0.01 19.01 0.01 19.01 -1 18 C-7.93 17.505 -7.93 17.505 -15 17 C-14.67 42.08 -14.34 67.16 -14 93 C-31 93 -31 93 -34 92 C-34 67.25 -34 42.5 -34 17 C-76.9 17.33 -119.8 17.66 -164 18 C-164.33 16.68 -164.66 15.36 -165 14 C-165.66 14 -166.32 14 -167 14 C-168.0076952 12.2335343 -169.00591714 10.46166177 -170 8.6875 C-170.556875 7.70136719 -171.11375 6.71523437 -171.6875 5.69921875 C-173 3 -173 3 -173 0 C-150.88660359 -0.15383015 -128.77317518 -0.30186539 -106.65969372 -0.4429636 C-96.39249333 -0.50861069 -86.12531209 -0.57616854 -75.8581543 -0.64819336 C-66.91141447 -0.71095054 -57.96465948 -0.7701545 -49.01786786 -0.82505554 C-44.27872163 -0.85426186 -39.53960242 -0.88527191 -34.80049706 -0.92053413 C-30.34287386 -0.95364587 -25.885246 -0.98201828 -21.42756844 -1.00670624 C-19.78884598 -1.01662649 -18.15013309 -1.02830003 -16.51143646 -1.04183006 C-14.27916339 -1.06000247 -12.04694201 -1.07194509 -9.81462097 -1.08229065 C-8.56374789 -1.09058679 -7.31287481 -1.09888292 -6.02409649 -1.10743046 C-3 -1 -3 -1 0 0 Z " fill="#FAEE09" transform="translate(204,115)"/>
<path d="M0 0 C0.33 0.66 0.66 1.32 1 2 C70.96 1.67 140.92 1.34 213 1 C213 1.99 213 2.98 213 4 C214.98 4.495 214.98 4.495 217 5 C215.35 5 213.7 5 212 5 C210.56355139 8.18070763 209.66287641 11.29347613 208.9296875 14.69140625 C208.75421387 15.49908447 208.57874023 16.3067627 208.39794922 17.13891602 C208.20096436 18.06015259 208.20096436 18.06015259 208 19 C195.08692006 19.73444328 182.21842041 20.16274418 169.28540039 20.20874023 C167.5171848 20.21831752 165.7489709 20.22821009 163.98075867 20.23838806 C158.2697458 20.26924302 152.55872042 20.28993712 146.84765625 20.30859375 C145.87086686 20.31189107 144.89407747 20.31518839 143.8876884 20.31858563 C134.66153091 20.3492727 125.43536945 20.37593254 116.20917606 20.39300442 C104.46454897 20.41501064 92.72037248 20.45732294 80.97592551 20.52644199 C72.67827544 20.57361194 64.38074765 20.59792589 56.0829677 20.6052013 C51.13929528 20.61015502 46.19613676 20.62521817 41.25261116 20.6649456 C36.61882047 20.70171621 31.98583984 20.71025358 27.35193062 20.69693947 C25.65273295 20.69699352 23.95349992 20.70733205 22.25443649 20.7286911 C19.93536889 20.75629164 17.61927641 20.74690652 15.30018616 20.72825623 C14.0033896 20.73248816 12.70659304 20.7367201 11.37049961 20.74108028 C6.67587059 19.70886031 5.68033983 17.91141028 3 14 C1.7551248 11.69719332 0.93404886 9.4580233 0 7 C-0.33 7 -0.66 7 -1 7 C-0.67 4.69 -0.34 2.38 0 0 Z " fill="#E8DD13" transform="translate(89,213)"/>
<path d="M0 0 C27.60682402 -0.02333058 55.21364656 -0.04097996 82.82047844 -0.05181217 C95.63797205 -0.05697479 108.45545954 -0.06401684 121.27294922 -0.07543945 C132.44091169 -0.08538733 143.60886974 -0.09185368 154.77683651 -0.09408849 C160.69356466 -0.09539542 166.61028014 -0.09848017 172.52700424 -0.10573006 C178.09023378 -0.1124919 183.65344536 -0.11461662 189.21667862 -0.11310768 C191.26378731 -0.11338393 193.31089656 -0.11538809 195.35800171 -0.11920547 C198.14240727 -0.12414526 200.92674413 -0.1229972 203.71115112 -0.12025452 C204.53020648 -0.12316736 205.34926183 -0.1260802 206.19313705 -0.12908131 C211.77175758 -0.11412121 211.77175758 -0.11412121 214 1 C213.31066647 4.59134257 211.82128141 7.4342523 210.0625 10.625 C209.53785156 11.58664063 209.01320313 12.54828125 208.47265625 13.5390625 C207 16 207 16 205 18 C202.36663668 18.19322256 199.83887034 18.26047844 197.2046814 18.24050903 C196.39034563 18.24221788 195.57600986 18.24392673 194.73699725 18.24568737 C191.99303391 18.24899629 189.24931211 18.23795563 186.50537109 18.22705078 C184.54450995 18.22648697 182.58364838 18.22680264 180.62278748 18.22793579 C175.28626255 18.22851148 169.94982686 18.21672231 164.61332273 18.20278788 C159.04126146 18.19031641 153.46919832 18.18911285 147.89712524 18.18673706 C137.33967219 18.18051172 126.78226037 18.16408669 116.2248255 18.14403808 C104.20808485 18.12171181 92.19134227 18.1106939 80.17458606 18.10064721 C55.44970114 18.07972135 30.72485288 18.04452496 6 18 C5.87625 17.360625 5.7525 16.72125 5.625 16.0625 C5.41875 15.381875 5.2125 14.70125 5 14 C4.34 13.67 3.68 13.34 3 13 C2.1484375 10.8203125 2.1484375 10.8203125 1.375 8.125 C1.11460937 7.24070313 0.85421875 6.35640625 0.5859375 5.4453125 C0 3 0 3 0 0 Z " fill="#F3E708" transform="translate(364,214)"/>
<path d="M0 0 C1.02673828 0.06123047 2.05347656 0.12246094 3.11132812 0.18554688 C5.63800216 0.33832251 8.16274687 0.50609393 10.6875 0.6875 C11.1825 2.1725 11.1825 2.1725 11.6875 3.6875 C12.55375 4.120625 12.55375 4.120625 13.4375 4.5625 C16.44322382 6.06536191 18.35607104 8.29471765 20.6875 10.6875 C21.3475 11.0175 22.0075 11.3475 22.6875 11.6875 C22.68226318 12.24735596 22.67702637 12.80721191 22.67163086 13.3840332 C22.65083309 15.92267737 22.63783096 18.46130359 22.625 21 C22.61243164 22.32161133 22.61243164 22.32161133 22.59960938 23.66992188 C22.59638672 24.51748047 22.59316406 25.36503906 22.58984375 26.23828125 C22.58460693 27.01856689 22.57937012 27.79885254 22.57397461 28.6027832 C22.60612137 30.8836555 22.60612137 30.8836555 23.6875 33.6875 C19.77098033 34.84795027 16.17562708 34.72379578 12.125 34.625 C9.81032097 34.68435074 7.89924628 35.03216777 5.6875 35.6875 C5.6875 35.0275 5.6875 34.3675 5.6875 33.6875 C4.2025 33.1925 4.2025 33.1925 2.6875 32.6875 C1.22968666 28.31405999 1.6276968 24.29234643 1.6875 19.6875 C-1.6125 19.6875 -4.9125 19.6875 -8.3125 19.6875 C-8.3125 38.8275 -8.3125 57.9675 -8.3125 77.6875 C-4.6825 77.6875 -1.0525 77.6875 2.6875 77.6875 C2.6875 77.0275 2.6875 76.3675 2.6875 75.6875 C1.0375 75.6875 -0.6125 75.6875 -2.3125 75.6875 C-1.673125 75.584375 -1.03375 75.48125 -0.375 75.375 C0.305625 75.148125 0.98625 74.92125 1.6875 74.6875 C2.1825 73.2025 2.1825 73.2025 2.6875 71.6875 C3.0175 71.6875 3.3475 71.6875 3.6875 71.6875 C4.0175 66.0775 4.3475 60.4675 4.6875 54.6875 C2.0475 54.6875 -0.5925 54.6875 -3.3125 54.6875 C-3.3125 49.4075 -3.3125 44.1275 -3.3125 38.6875 C4.6075 38.6875 12.5275 38.6875 20.6875 38.6875 C20.77522077 53.07370588 20.56813502 67.33000398 19.6875 81.6875 C19.0275 81.6875 18.3675 81.6875 17.6875 81.6875 C18.0175 83.0075 18.3475 84.3275 18.6875 85.6875 C13.9375 89.6875 13.9375 89.6875 11.6875 89.6875 C11.0275 91.0075 10.3675 92.3275 9.6875 93.6875 C6.18838305 93.89287903 2.69083334 94.01579941 -0.8125 94.125 C-2.28589844 94.21297852 -2.28589844 94.21297852 -3.7890625 94.30273438 C-9.32560668 94.43192041 -12.58879419 94.04972519 -16.84765625 90.33984375 C-18.02670091 89.14571737 -19.18395209 87.92945963 -20.3125 86.6875 C-21.28862779 85.72607154 -22.26739792 84.76731061 -23.25 83.8125 C-24.2709375 82.760625 -24.2709375 82.760625 -25.3125 81.6875 C-25.6425 81.3575 -25.9725 81.0275 -26.3125 80.6875 C-26.43308363 78.56193562 -26.48277248 76.43232885 -26.50537109 74.3034668 C-26.51354858 73.63674957 -26.52172607 72.97003235 -26.53015137 72.28311157 C-26.5550468 70.06765655 -26.5715326 67.85226581 -26.5859375 65.63671875 C-26.59126118 64.88138163 -26.59658485 64.1260445 -26.60206985 63.34781837 C-26.62882071 59.34915811 -26.64818849 55.35052926 -26.66259766 51.35180664 C-26.67924203 47.21872517 -26.72401118 43.0864417 -26.7749691 38.95366192 C-26.80861084 35.7786415 -26.82017168 32.60381105 -26.82582474 29.42862892 C-26.8325469 27.90514853 -26.84779425 26.38168105 -26.87171555 24.85837364 C-26.90330522 22.72482587 -26.90341495 20.5934366 -26.89599609 18.4597168 C-26.90812637 16.63889839 -26.90812637 16.63889839 -26.92050171 14.78129578 C-26.3125 11.6875 -26.3125 11.6875 -23.93228149 9.4243927 C-23.0677536 8.85121811 -22.20322571 8.27804352 -21.3125 7.6875 C-20.4875 6.841875 -19.6625 5.99625 -18.8125 5.125 C-12.69213534 -0.84235554 -8.20499781 -0.59319562 0 0 Z " fill="#FCF007" transform="translate(347.3125,114.3125)"/>
<path d="M0 0 C4.48118736 0.28603324 8.23489315 -0.24800554 12.625 -1.1875 C19.54770622 -2.45812329 25.34689425 -0.99593173 32 1 C32.309375 2.093125 32.61875 3.18625 32.9375 4.3125 C33.58337897 6.55407994 34.2623117 8.7869351 35 11 C35.45720339 17.74374996 34.28588012 22.89681199 30.99121094 28.81079102 C29.88991045 31.24314606 29.57110925 33.2361376 29.2890625 35.88671875 C29.17820312 36.82580078 29.06734375 37.76488281 28.953125 38.73242188 C28.73661156 40.68233164 28.52555593 42.63285617 28.3203125 44.58398438 C27.37911199 52.42910451 25.46294948 58.84237246 20.5625 65.125 C18 67 18 67 15.375 67 C12.71320215 65.87924301 11.7220088 65.31307669 10 63 C9.22289488 59.57138342 8.6787808 56.19227634 8.18359375 52.71679688 C7.87655529 50.79515963 7.44525367 48.89438947 7 47 C6.01 46.34 5.02 45.68 4 45 C2.35429841 46.05630262 2.35429841 46.05630262 1 48 C1.0673915 49.58370017 1.13787949 51.16734932 1.2265625 52.75 C0.72035376 57.77717647 -1.90907845 62.45224563 -4 67 C-7.88931605 66.7712167 -10.42916915 66.38497895 -13.6875 64.1875 C-19.98888785 55.50180324 -22.20174533 42.85685976 -21.9296875 32.26171875 C-21.80478301 29.75713703 -21.80478301 29.75713703 -23.875 27.25 C-27.00994932 22.45537163 -28.6059224 18.00382808 -27.44921875 12.26953125 C-26.91707734 10.52178718 -26.34529425 8.78540446 -25.7265625 7.06640625 C-24.88943317 5.05060796 -24.88943317 5.05060796 -25 3 C-24.12214844 2.57460937 -24.12214844 2.57460937 -23.2265625 2.140625 C-21.03684897 1.06292053 -21.03684897 1.06292053 -19.2109375 -0.140625 C-12.44146804 -4.23111293 -7.13184208 -2.37728069 0 0 Z " fill="#F8EC0B" transform="translate(329,216)"/>
<path d="M0 0 C0.76570313 0.78246094 1.53140625 1.56492187 2.3203125 2.37109375 C3.49207031 3.54865234 3.49207031 3.54865234 4.6875 4.75 C6.4453125 6.80859375 6.4453125 6.80859375 6.4453125 8.80859375 C7.1053125 8.80859375 7.7653125 8.80859375 8.4453125 8.80859375 C8.1153125 9.46859375 7.7853125 10.12859375 7.4453125 10.80859375 C7.29224349 12.62030473 7.19584589 14.43697315 7.12890625 16.25390625 C7.06606445 17.86845703 7.06606445 17.86845703 7.00195312 19.515625 C6.96263672 20.64355469 6.92332031 21.77148438 6.8828125 22.93359375 C6.81803711 24.63708984 6.81803711 24.63708984 6.75195312 26.375 C6.6456521 29.18607143 6.54361845 31.9972332 6.4453125 34.80859375 C7.1053125 34.80859375 7.7653125 34.80859375 8.4453125 34.80859375 C8.4453125 36.12859375 8.4453125 37.44859375 8.4453125 38.80859375 C7.4553125 39.13859375 6.4653125 39.46859375 5.4453125 39.80859375 C4.43888302 41.13708066 3.43839071 42.47009704 2.4453125 43.80859375 C1.7853125 43.80859375 1.1253125 43.80859375 0.4453125 43.80859375 C0.2184375 44.38609375 -0.0084375 44.96359375 -0.2421875 45.55859375 C-1.5546875 47.80859375 -1.5546875 47.80859375 -6.5546875 51.80859375 C-11.5046875 51.80859375 -16.4546875 51.80859375 -21.5546875 51.80859375 C-21.5546875 63.68859375 -21.5546875 75.56859375 -21.5546875 87.80859375 C-27.8246875 87.80859375 -34.0946875 87.80859375 -40.5546875 87.80859375 C-40.5546875 57.44859375 -40.5546875 27.08859375 -40.5546875 -4.19140625 C-6.13998257 -5.26686578 -6.13998257 -5.26686578 0 0 Z M-21.5546875 14.80859375 C-21.5546875 20.41859375 -21.5546875 26.02859375 -21.5546875 31.80859375 C-18.5846875 31.80859375 -15.6146875 31.80859375 -12.5546875 31.80859375 C-12.5546875 26.19859375 -12.5546875 20.58859375 -12.5546875 14.80859375 C-15.5246875 14.80859375 -18.4946875 14.80859375 -21.5546875 14.80859375 Z " fill="#FAED0B" transform="translate(295.5546875,119.19140625)"/>
<path d="M0 0 C2.07332802 -0.35352612 2.07332802 -0.35352612 4.68228149 -0.32279968 C6.16308952 -0.31636444 6.16308952 -0.31636444 7.67381287 -0.30979919 C8.76065872 -0.28966263 9.84750458 -0.26952606 10.96728516 -0.2487793 C12.67947487 -0.23480606 12.67947487 -0.23480606 14.42625427 -0.22055054 C18.21415275 -0.18606672 22.0014255 -0.13019076 25.7890625 -0.07421875 C28.40935926 -0.04619837 31.02967054 -0.01950663 33.6499939 0.00590515 C39.85144328 0.06829547 46.0526012 0.14606814 52.2538017 0.22932547 C59.31283999 0.32335426 66.37203184 0.40029909 73.43128896 0.47578681 C87.9544381 0.63147313 102.47727707 0.80868605 117 1 C118.13583456 4.71727674 117.66670026 6.47051709 116 10 C115.34 10 114.68 10 114 10 C113.71125 10.7425 113.4225 11.485 113.125 12.25 C112.17631737 14.56900199 111.13440221 16.76932676 110 19 C95.54467189 19.02333012 81.08934669 19.04091332 66.63400364 19.05181217 C59.92258132 19.05697489 53.21117068 19.06401713 46.49975586 19.07543945 C40.02886264 19.08626565 33.55798158 19.09227626 27.08708 19.09487724 C24.61221055 19.09673198 22.1373418 19.1003535 19.66247749 19.10573006 C16.20929627 19.11293693 12.75616599 19.11399109 9.30297852 19.11352539 C8.26864182 19.11712067 7.23430511 19.12071594 6.16862488 19.12442017 C5.23327911 19.1230455 4.29793335 19.12167084 3.33424377 19.12025452 C2.5166134 19.12117631 1.69898302 19.1220981 0.85657597 19.12304783 C-1 19 -1 19 -2 18 C-2.12682623 15.52836314 -2.18520251 13.09709389 -2.1875 10.625 C-2.19974609 9.93921875 -2.21199219 9.2534375 -2.22460938 8.546875 C-2.23552331 4.80703203 -2.1266842 3.1900263 0 0 Z " fill="#760B0C" transform="translate(503,138)"/>
<path d="M0 0 C0.98576019 0.00559433 1.97152039 0.01118866 2.9871521 0.01695251 C4.07242691 0.02832748 5.15770172 0.03970245 6.27586365 0.05142212 C7.41571716 0.05942337 8.55557068 0.06742462 9.72996521 0.07566833 C13.51282117 0.10364031 17.29556522 0.1390803 21.07835388 0.17495728 C23.69626623 0.19671308 26.31418113 0.21816317 28.93209839 0.23931885 C34.42416482 0.28452538 39.91618077 0.33400854 45.40818787 0.38589478 C51.76564131 0.4458943 58.12312447 0.49865984 64.48067147 0.54766309 C70.58787477 0.5949428 76.69501631 0.64778279 82.80215263 0.703022 C85.40539752 0.72600042 88.00865587 0.74749984 90.61192513 0.76752853 C94.24215531 0.79617296 97.8722697 0.83112849 101.50242615 0.86782837 C103.13337471 0.87881813 103.13337471 0.87881813 104.79727173 0.89002991 C105.7802121 0.90126389 106.76315247 0.91249786 107.77587891 0.92407227 C109.06479711 0.93569932 109.06479711 0.93569932 110.37975407 0.94756126 C112.32444763 1.08901978 112.32444763 1.08901978 113.32444763 2.08901978 C113.58693593 4.39600025 113.78485707 6.71049539 113.94944763 9.02651978 C114.04483826 10.29366821 114.14022888 11.56081665 114.23851013 12.86636353 C114.32444763 16.08901978 114.32444763 16.08901978 113.32444763 18.08901978 C76.36444763 18.08901978 39.40444763 18.08901978 1.32444763 18.08901978 C-2.67555237 11.08901978 -2.67555237 11.08901978 -2.67555237 9.08901978 C-3.33555237 8.75901978 -3.99555237 8.42901978 -4.67555237 8.08901978 C-5.40630885 5.77495758 -6.07693494 3.44073108 -6.67555237 1.08901978 C-4.23994258 -0.12878512 -2.72143404 -0.02215159 0 0 Z " fill="#750C0E" transform="translate(51.67555236816406,138.91098022460938)"/>
<path d="M0 0 C20.46 0 40.92 0 62 0 C62 0.33 62 0.66 62 1 C65.96 1 69.92 1 74 1 C74.495 2.98 74.495 2.98 75 5 C73.375 7.6875 73.375 7.6875 71 11 C69.35 13.97 67.7 16.94 66 20 C33.99 19.67 1.98 19.34 -31 19 C-31 13.72 -31 8.44 -31 3 C-27.41331687 0.60887791 -25.83603431 0.76618973 -21.58203125 0.8046875 C-20.32841797 0.81113281 -19.07480469 0.81757813 -17.78320312 0.82421875 C-15.81770508 0.84935547 -15.81770508 0.84935547 -13.8125 0.875 C-12.47722013 0.88503361 -11.14193311 0.8941588 -9.80664062 0.90234375 C-6.53757985 0.92594708 -3.26887972 0.95887406 0 1 C0 0.67 0 0.34 0 0 Z " fill="#7E1D1E" transform="translate(532,163)"/>
<path d="M0 0 C34.98 0 69.96 0 106 0 C106.495 8.415 106.495 8.415 107 17 C103.63288719 18.6835564 99.82048385 18.17483123 96.11572266 18.19287109 C94.73503853 18.20513733 94.73503853 18.20513733 93.32646179 18.21765137 C90.27233537 18.24251897 87.21825541 18.25902328 84.1640625 18.2734375 C83.12279583 18.27876118 82.08152916 18.28408485 81.00870895 18.28956985 C75.49930303 18.31630507 69.98991983 18.33568037 64.48046875 18.35009766 C58.78147659 18.36676286 53.08306078 18.4115555 47.38428688 18.4624691 C43.00915844 18.49607116 38.63416811 18.50766727 34.25892258 18.51332474 C32.15770427 18.52005477 30.0564956 18.53532197 27.95540237 18.55921555 C25.01747416 18.59072403 22.08111819 18.59092557 19.14306641 18.58349609 C18.27226944 18.59990143 17.40147247 18.61630676 16.50428772 18.63320923 C10.59739529 18.57193834 10.59739529 18.57193834 7.53500366 15.64004517 C7.02845245 14.76883026 6.52190125 13.89761536 6 13 C5.15695313 11.60201172 5.15695313 11.60201172 4.296875 10.17578125 C3.78640625 9.23089844 3.2759375 8.28601563 2.75 7.3125 C2.22921875 6.35988281 1.7084375 5.40726563 1.171875 4.42578125 C0 2 0 2 0 0 Z " fill="#781112" transform="translate(59,165)"/>
<path d="M0 0 C0.84732193 0.00359528 1.69464386 0.00719055 2.56764221 0.01089478 C3.89922363 0.01067574 3.89922363 0.01067574 5.25770569 0.01045227 C8.20666404 0.01115174 11.15556006 0.01894568 14.10450745 0.02676392 C16.14332037 0.02862798 18.18213374 0.03005194 20.22094727 0.03105164 C25.59844693 0.03487776 30.97591978 0.04470884 36.35340881 0.05575562 C41.83619321 0.06596771 47.31898192 0.07054882 52.80177307 0.07559204 C63.56806093 0.08633103 74.33432883 0.10340858 85.1006012 0.12442017 C85.32186298 2.58221993 85.52810515 5.03969664 85.7256012 7.49942017 C85.79005432 8.19809204 85.85450745 8.89676392 85.9209137 9.61660767 C86.06179859 11.44811127 86.08821779 13.28754764 86.1006012 15.12442017 C82.21488161 19.01013975 76.3082869 18.25327021 71.08888245 18.26968384 C70.4148941 18.27304245 69.74090576 18.27640106 69.04649353 18.27986145 C66.83534363 18.2893018 64.62426995 18.29131079 62.4131012 18.29238892 C60.86663279 18.29560538 59.32016468 18.29896975 57.7736969 18.30247498 C54.53923334 18.30844826 51.30479644 18.31031664 48.07032776 18.3097229 C43.93452004 18.30962117 39.79888357 18.32329279 35.66311646 18.34049511 C32.4717277 18.35163337 29.28038019 18.35364158 26.088974 18.35311317 C24.5644115 18.35428978 23.03984781 18.3586936 21.51530457 18.36644554 C19.38085522 18.37628623 17.24677575 18.37335197 15.11231995 18.36734009 C13.90019836 18.36876511 12.68807678 18.37019012 11.43922424 18.37165833 C6.90228458 18.03568011 3.35068687 17.33662446 0.0381012 14.12442017 C-2.64635989 9.96783526 -4.78280687 5.59181708 -6.8993988 1.12442017 C-5.0546798 -0.72029884 -2.45423468 0.00439827 0 0 Z " fill="#770B0C" transform="translate(79.89939880371094,189.87557983398438)"/>
<path d="M0 0 C10.90049102 0.10744649 21.80091501 0.22006875 32.70128345 0.33933926 C37.76250331 0.39455499 42.82372896 0.4479729 47.88500977 0.49731445 C52.76741812 0.54497782 57.64975572 0.59732145 62.5320797 0.65294075 C64.39681936 0.67335534 66.26157843 0.69206991 68.12635231 0.70907402 C70.73380178 0.73313778 73.34111745 0.76318975 75.94848633 0.79467773 C77.11050064 0.80331093 77.11050064 0.80331093 78.29598999 0.81211853 C81.45515818 0.85561826 83.98103321 0.99367774 87 2 C89.14255793 1.61067144 89.14255793 1.61067144 91 1 C90.43410156 2.10859375 89.86820313 3.2171875 89.28515625 4.359375 C88.54405825 5.82280903 87.80318456 7.28635667 87.0625 8.75 C86.68931641 9.47960937 86.31613281 10.20921875 85.93164062 10.9609375 C85.39506836 12.02441406 85.39506836 12.02441406 84.84765625 13.109375 C84.51773682 13.75874023 84.18781738 14.40810547 83.84790039 15.07714844 C82.98547884 17.03293079 82.45625821 18.91540694 82 21 C81.34 21 80.68 21 80 21 C80 20.34 80 19.68 80 19 C79.00219513 19.0169693 78.00439026 19.0339386 76.97634888 19.05142212 C67.58821825 19.20976474 58.19997317 19.35750469 48.81151009 19.49477577 C43.98442397 19.56569706 39.15745712 19.64039651 34.33056641 19.72363281 C29.67525238 19.80377301 25.01988533 19.87411631 20.36431503 19.93757248 C18.58519887 19.96356263 16.80613131 19.99312579 15.02713394 20.02626419 C12.54172207 20.0719602 10.05644312 20.10512501 7.57080078 20.13525391 C6.82993225 20.1517952 6.08906372 20.16833649 5.32574463 20.18537903 C3.54948368 20.20026656 1.7729413 20.10956147 0 20 C-2 18 -2 18 -2.265625 14.8828125 C-2.26046875 13.64273438 -2.2553125 12.40265625 -2.25 11.125 C-2.25515625 9.89007813 -2.2603125 8.65515625 -2.265625 7.3828125 C-2.01471271 4.18737071 -1.49744503 2.72350603 0 0 Z M2 2 C2 2.33 2 2.66 2 3 C15.2 3 28.4 3 42 3 C42 2.67 42 2.34 42 2 C28.8 2 15.6 2 2 2 Z " fill="#780D0E" transform="translate(503,187)"/>
<path d="M0 0 C0 3 0 3 -1 6 C-1.66 6 -2.32 6 -3 6 C-3 6.99 -3 7.98 -3 9 C-46.56 9 -90.12 9 -135 9 C-135 34.08 -135 59.16 -135 85 C-141.6 85 -148.2 85 -155 85 C-155.0459449 79.9460611 -155.08575997 74.89284863 -155.10986328 69.83886719 C-155.1199127 68.12009219 -155.13355445 66.40133425 -155.15087891 64.68261719 C-155.17517391 62.21024359 -155.18649368 59.73809631 -155.1953125 57.265625 C-155.21079636 56.11540863 -155.21079636 56.11540863 -155.22659302 54.94195557 C-155.22745899 50.81196978 -154.89810714 48.79621428 -153 45 C-153 57.54 -153 70.08 -153 83 C-147.72 83 -142.44 83 -137 83 C-137 57.92 -137 32.84 -137 7 C-93.11 7 -49.22 7 -4 7 C-3.34 5.35 -2.68 3.7 -2 2 C-1.34 1.34 -0.68 0.68 0 0 Z " fill="#7170A4" transform="translate(630,123)"/>
<path d="M0 0 C0.33 0 0.66 0 1 0 C1.33 26.07 1.66 52.14 2 79 C1.01 78.34 0.02 77.68 -1 77 C-1.45375 77.825 -1.9075 78.65 -2.375 79.5 C-2.91125 80.325 -3.4475 81.15 -4 82 C-4.66 82 -5.32 82 -6 82 C-6 81.34 -6 80.68 -6 80 C-5.34 80 -4.68 80 -4 80 C-4.01160156 78.82308594 -4.02320313 77.64617187 -4.03515625 76.43359375 C-4.121677 63.25540184 -3.6421339 50.16374497 -3 37 C-10.92 37 -18.84 37 -27 37 C-27 42.28 -27 47.56 -27 53 C-24.36 53 -21.72 53 -19 53 C-19 59.93 -19 66.86 -19 74 C-21.01003681 69.97992638 -21.62082163 66.62230092 -22.125 62.25 C-22.21136719 61.55261719 -22.29773438 60.85523438 -22.38671875 60.13671875 C-22.59771846 58.42527668 -22.79975501 56.71273371 -23 55 C-25.31 55 -27.62 55 -30 55 C-30.33 60.61 -30.66 66.22 -31 72 C-27.7 72.66 -24.4 73.32 -21 74 C-21 74.66 -21 75.32 -21 76 C-24.63 76 -28.26 76 -32 76 C-32 56.86 -32 37.72 -32 18 C-31.67 18 -31.34 18 -31 18 C-30.67 24.6 -30.34 31.2 -30 38 C-29.67 37.34 -29.34 36.68 -29 36 C-19.76 35.67 -10.52 35.34 -1 35 C-0.67 23.45 -0.34 11.9 0 0 Z " fill="#77769C" transform="translate(371,116)"/>
<path d="M0 0 C0.66 0 1.32 0 2 0 C2.33 0.66 2.66 1.32 3 2 C67.35 2.495 67.35 2.495 133 3 C133.33 27.42 133.66 51.84 134 77 C138.95 77 143.9 77 149 77 C149.495 41.36 149.495 41.36 150 5 C150.33 5 150.66 5 151 5 C151.33 29.75 151.66 54.5 152 80 C135 80 135 80 132 79 C132 54.25 132 29.5 132 4 C89.1 4.33 46.2 4.66 2 5 C1.34 3.35 0.68 1.7 0 0 Z " fill="#7170A4" transform="translate(38,128)"/>
<path d="M0 0 C27.72 0.33 55.44 0.66 84 1 C84 1.33 84 1.66 84 2 C79.77666505 3.03070924 75.70034362 3.12952232 71.37988281 3.09765625 C70.62973404 3.09619598 69.87958527 3.09473572 69.10670471 3.0932312 C67.4850727 3.08943781 65.86344478 3.08333462 64.24182892 3.07516479 C61.67876862 3.06237849 59.11576016 3.05588042 56.55267334 3.05102539 C51.11842553 3.039615 45.68422071 3.02035064 40.25 3 C33.93940293 2.97643386 27.62882975 2.95605 21.31819916 2.94406128 C18.78707158 2.93755513 16.25601758 2.92505106 13.72491455 2.91235352 C12.18412338 2.90872343 10.64333153 2.9053714 9.10253906 2.90234375 C8.03970451 2.89459427 8.03970451 2.89459427 6.95539856 2.88668823 C5.30316727 2.88650682 3.65105727 2.93772501 2 3 C0.18884044 4.81115956 0.61800552 7.61278227 0.4375 10.0625 C0.31181641 11.71958984 0.31181641 11.71958984 0.18359375 13.41015625 C0.12300781 14.26480469 0.06242187 15.11945313 0 16 C2.31 16 4.62 16 7 16 C7 16.66 7 17.32 7 18 C31.75 18 56.5 18 82 18 C82 18.99 82 19.98 82 21 C81.34 21 80.68 21 80 21 C80 20.34 80 19.68 80 19 C79.00219513 19.0169693 78.00439026 19.0339386 76.97634888 19.05142212 C67.58821825 19.20976474 58.19997317 19.35750469 48.81151009 19.49477577 C43.98442397 19.56569706 39.15745712 19.64039651 34.33056641 19.72363281 C29.67525238 19.80377301 25.01988533 19.87411631 20.36431503 19.93757248 C18.58519887 19.96356263 16.80613131 19.99312579 15.02713394 20.02626419 C12.54172207 20.0719602 10.05644312 20.10512501 7.57080078 20.13525391 C6.82993225 20.1517952 6.08906372 20.16833649 5.32574463 20.18537903 C3.54948368 20.20026656 1.7729413 20.10956147 0 20 C-2 18 -2 18 -2.265625 14.8828125 C-2.26046875 13.64273438 -2.2553125 12.40265625 -2.25 11.125 C-2.25515625 9.89007813 -2.2603125 8.65515625 -2.265625 7.3828125 C-2 4 -2 4 0 0 Z " fill="#C6A7A9" transform="translate(503,187)"/>
<path d="M0 0 C0.66 0 1.32 0 2 0 C2 0.66 2 1.32 2 2 C55.46 1.505 55.46 1.505 110 1 C110 1.99 110 2.98 110 4 C73.7 4 37.4 4 0 4 C0 2.68 0 1.36 0 0 Z " fill="#9D6364" transform="translate(502,153)"/>
<path d="M0 0 C27.60682402 -0.02333058 55.21364656 -0.04097996 82.82047844 -0.05181217 C95.63797205 -0.05697479 108.45545954 -0.06401684 121.27294922 -0.07543945 C132.44091169 -0.08538733 143.60886974 -0.09185368 154.77683651 -0.09408849 C160.69356466 -0.09539542 166.61028014 -0.09848017 172.52700424 -0.10573006 C178.09023378 -0.1124919 183.65344536 -0.11461662 189.21667862 -0.11310768 C191.26378731 -0.11338393 193.31089656 -0.11538809 195.35800171 -0.11920547 C198.14240727 -0.12414526 200.92674413 -0.1229972 203.71115112 -0.12025452 C204.53020648 -0.12316736 205.34926183 -0.1260802 206.19313705 -0.12908131 C211.77175758 -0.11412121 211.77175758 -0.11412121 214 1 C213.67 1.66 213.34 2.32 213 3 C142 3 71 3 0 3 C0 2.01 0 1.02 0 0 Z " fill="#55558C" transform="translate(364,214)"/>
<path d="M0 0 C0.33 0 0.66 0 1 0 C1 30.03 1 60.06 1 91 C6.94 91 12.88 91 19 91 C19 91.33 19 91.66 19 92 C12.73 92 6.46 92 0 92 C-0.33 88.04 -0.66 84.08 -1 80 C-1.94875 81.155 -2.8975 82.31 -3.875 83.5 C-5.4921875 85.46875 -5.4921875 85.46875 -7 87 C-7.66 87 -8.32 87 -9 87 C-9 87.66 -9 88.32 -9 89 C-9.99 88.67 -10.98 88.34 -12 88 C-11.04882866 86.8274869 -10.08882991 85.66212985 -9.125 84.5 C-8.32449219 83.52546875 -8.32449219 83.52546875 -7.5078125 82.53125 C-6.76144531 81.77328125 -6.76144531 81.77328125 -6 81 C-5.34 81 -4.68 81 -4 81 C-2.87278707 77.61836121 -2.8478244 74.99877229 -2.81054688 71.43310547 C-2.79810692 70.43999359 -2.79810692 70.43999359 -2.78541565 69.42681885 C-2.76803696 67.99125411 -2.7528642 66.55566135 -2.73963928 65.12005234 C-2.7186011 62.85112879 -2.6915818 60.58234686 -2.66296387 58.31350708 C-2.59315497 52.68108155 -2.53363553 47.0485558 -2.47393799 41.41601562 C-2.423086 36.65276103 -2.36830006 31.88958431 -2.30812073 27.12643814 C-2.28146966 24.88565607 -2.26070543 22.64486699 -2.2401123 20.40402222 C-2.22351735 19.03871306 -2.20664623 17.67340722 -2.18945312 16.30810547 C-2.17066101 14.51299026 -2.17066101 14.51299026 -2.15148926 12.68161011 C-2 10 -2 10 -1 9 C-0.76807135 7.48530552 -0.58784762 5.96245438 -0.4375 4.4375 C-0.35371094 3.61121094 -0.26992187 2.78492187 -0.18359375 1.93359375 C-0.12300781 1.29550781 -0.06242188 0.65742187 0 0 Z " fill="#FBFBFD" transform="translate(254,116)"/>
<path d="M0 0 C0.84732193 0.00359528 1.69464386 0.00719055 2.56764221 0.01089478 C3.89922363 0.01067574 3.89922363 0.01067574 5.25770569 0.01045227 C8.20666404 0.01115174 11.15556006 0.01894568 14.10450745 0.02676392 C16.14332037 0.02862798 18.18213374 0.03005194 20.22094727 0.03105164 C25.59844693 0.03487776 30.97591978 0.04470884 36.35340881 0.05575562 C41.83619321 0.06596771 47.31898192 0.07054882 52.80177307 0.07559204 C63.56806093 0.08633103 74.33432883 0.10340858 85.1006012 0.12442017 C85.1006012 0.45442017 85.1006012 0.78442017 85.1006012 1.12442017 C76.28469692 2.40279264 67.48113129 2.25103012 58.59669495 2.22207642 C56.90561973 2.22020843 55.21454397 2.21878633 53.52346802 2.2177887 C49.09959893 2.21399345 44.67576332 2.20418912 40.25190735 2.19308472 C35.7268672 2.18280585 31.20182157 2.17827727 26.67677307 2.17324829 C17.8180345 2.16256382 8.95932065 2.14552386 0.1006012 2.12442017 C0.1418512 3.23817017 0.1831012 4.35192017 0.2256012 5.49942017 C0.1006012 9.12442017 0.1006012 9.12442017 -1.8993988 11.12442017 C-3.5493988 7.82442017 -5.1993988 4.52442017 -6.8993988 1.12442017 C-5.0546798 -0.72029884 -2.45423468 0.00439827 0 0 Z " fill="#711A29" transform="translate(79.89939880371094,189.87557983398438)"/>
<path d="M0 0 C0.33 0 0.66 0 1 0 C1 2.31 1 4.62 1 7 C-30.35 7 -61.7 7 -94 7 C-94 6.34 -94 5.68 -94 5 C-62.98 4.67 -31.96 4.34 0 4 C0 2.68 0 1.36 0 0 Z " fill="#A98083" transform="translate(163,176)"/>
<path d="M0 0 C0.33 0 0.66 0 1 0 C1.22134176 2.12368444 1.42670007 4.24904024 1.625 6.375 C1.74101562 7.55835938 1.85703125 8.74171875 1.9765625 9.9609375 C1.98816406 11.46527344 1.98816406 11.46527344 2 13 C-1.89274623 16.89274623 -7.80121123 16.12597264 -13.02758789 16.12939453 C-13.70318253 16.13114685 -14.37877716 16.13289917 -15.07484436 16.13470459 C-17.29080838 16.13907812 -19.50669152 16.13620138 -21.72265625 16.1328125 C-23.27152013 16.13348675 -24.82038391 16.13445779 -26.36924744 16.13571167 C-29.60791028 16.13718248 -32.84654546 16.13505364 -36.08520508 16.13037109 C-40.23003111 16.1246694 -44.37479245 16.12795951 -48.51961613 16.13394356 C-51.7152505 16.13756175 -54.9108696 16.13640487 -58.10650444 16.13381577 C-59.6346786 16.13315023 -61.16285416 16.13396185 -62.69102669 16.13629532 C-64.82799058 16.13884303 -66.96485047 16.13495166 -69.10180664 16.12939453 C-70.92331993 16.12820114 -70.92331993 16.12820114 -72.78163147 16.12698364 C-75.648878 16.01385384 -78.21499483 15.66218975 -81 15 C-81 14.67 -81 14.34 -81 14 C-54.6 13.67 -28.2 13.34 -1 13 C-0.505 6.565 -0.505 6.565 0 0 Z " fill="#C3A1A1" transform="translate(164,192)"/>
<path d="M0 0 C0.66 0 1.32 0 2 0 C2.33 0.66 2.66 1.32 3 2 C67.35 2.495 67.35 2.495 133 3 C133 3.33 133 3.66 133 4 C68.155 4.495 68.155 4.495 2 5 C1.34 3.35 0.68 1.7 0 0 Z " fill="#161667" transform="translate(38,128)"/>
<path d="M0 0 C1.93277168 -0.35352612 1.93277168 -0.35352612 4.34060669 -0.32279968 C5.25208466 -0.31850952 6.16356262 -0.31421936 7.10266113 -0.30979919 C8.60669495 -0.27959435 8.60669495 -0.27959435 10.14111328 -0.2487793 C11.72162979 -0.23480606 11.72162979 -0.23480606 13.33407593 -0.22055054 C16.8298089 -0.18607344 20.32486304 -0.13019672 23.8203125 -0.07421875 C26.23882588 -0.04619762 28.657355 -0.01950595 31.07589722 0.00590515 C37.45149294 0.07648155 43.82671437 0.16518119 50.20202637 0.25756836 C56.70356551 0.3486065 63.2052955 0.42262541 69.70703125 0.49804688 C82.47159726 0.64864228 95.23584811 0.81779359 108 1 C108 1.33 108 1.66 108 2 C106.10318985 2.0154612 106.10318985 2.0154612 104.1680603 2.03123474 C92.24980382 2.12899948 80.33159919 2.23173653 68.41342735 2.33933926 C62.28621571 2.39449879 56.15899923 2.44790764 50.03173828 2.49731445 C44.11839319 2.54506079 38.20510506 2.59740728 32.29182816 2.65294075 C30.03602136 2.67331779 27.78019897 2.69203845 25.52436447 2.70907402 C22.36433023 2.73322108 19.20440277 2.76326149 16.04443359 2.79467773 C14.64612808 2.80331093 14.64612808 2.80331093 13.21957397 2.81211853 C8.70551564 2.86311417 4.4423563 3.08770336 0 4 C-0.33 7.3 -0.66 10.6 -1 14 C-1.33 14 -1.66 14 -2 14 C-2.05410687 12.22950311 -2.09284119 10.45853151 -2.125 8.6875 C-2.14820313 7.70136719 -2.17140625 6.71523437 -2.1953125 5.69921875 C-2 3 -2 3 0 0 Z " fill="#A06464" transform="translate(503,138)"/>
<path d="M0 0 C1.42597611 2.85195222 1.1320252 5.32461175 1.125 8.5 C1.12757813 9.6653125 1.13015625 10.830625 1.1328125 12.03125 C1 15 1 15 0 17 C47.52 16.505 47.52 16.505 96 16 C95.505 17.485 95.505 17.485 95 19 C62.99 18.67 30.98 18.34 -2 18 C-2 2 -2 2 0 0 Z " fill="#FBB5B5" transform="translate(503,164)"/>
<path d="M0 0 C0.33 0 0.66 0 1 0 C1.19441368 2.2910905 1.38033135 4.58290337 1.5625 6.875 C1.71912109 8.78925781 1.71912109 8.78925781 1.87890625 10.7421875 C2 14 2 14 1 16 C-35.96 16 -72.92 16 -111 16 C-111 15.67 -111 15.34 -111 15 C-74.7 15 -38.4 15 -1 15 C-0.67 10.05 -0.34 5.1 0 0 Z " fill="#DEBEBD" transform="translate(164,141)"/>
<path d="M0 0 C1.02673828 0.06123047 2.05347656 0.12246094 3.11132812 0.18554688 C5.63800216 0.33832251 8.16274687 0.50609393 10.6875 0.6875 C10.6875 1.3475 10.6875 2.0075 10.6875 2.6875 C9.63006592 2.65438721 9.63006592 2.65438721 8.55126953 2.62060547 C5.30378034 2.54879367 2.06073738 2.55520059 -1.1875 2.5625 C-2.85039062 2.50835937 -2.85039062 2.50835937 -4.546875 2.453125 C-10.6046554 2.524393 -15.15762893 3.44481584 -20.0625 7.125 C-27.717294 15.82214893 -25.60926819 28.95260401 -25.4375 39.8125 C-25.43555632 42.22395896 -25.4381161 44.635426 -25.4453125 47.046875 C-25.453106 52.92818029 -25.40478107 58.80695842 -25.3125 64.6875 C-25.6425 64.6875 -25.9725 64.6875 -26.3125 64.6875 C-26.43918307 57.21291175 -26.5268025 49.73859985 -26.5871582 42.26318359 C-26.61231627 39.71978408 -26.64644631 37.17645696 -26.68969727 34.63330078 C-26.75028821 30.97931062 -26.77869767 27.32627549 -26.80078125 23.671875 C-26.82658768 22.53320984 -26.8523941 21.39454468 -26.87898254 20.22137451 C-26.8817997 12.30825619 -26.8817997 12.30825619 -23.93823242 9.09863281 C-23.07174072 8.63295898 -22.20524902 8.16728516 -21.3125 7.6875 C-20.4875 6.841875 -19.6625 5.99625 -18.8125 5.125 C-12.69213534 -0.84235554 -8.20499781 -0.59319562 0 0 Z " fill="#6E6D7A" transform="translate(347.3125,114.3125)"/>
<path d="M0 0 C0.33 0 0.66 0 1 0 C1.13930293 8.87542858 1.2457729 17.75047825 1.31087303 26.62676334 C1.34212555 30.74888409 1.38448426 34.87025445 1.45263672 38.99194336 C1.51805066 42.973137 1.55375174 46.95361107 1.56926346 50.93530083 C1.58031073 52.45077271 1.6018845 53.96620721 1.63438034 55.48137093 C1.90929761 68.83650345 1.90929761 68.83650345 -1.91162109 73.48608398 C-5 76 -5 76 -7 76 C-7 76.66 -7 77.32 -7 78 C-7.99 77.67 -8.98 77.34 -10 77 C-9.04882866 75.8274869 -8.08882991 74.66212985 -7.125 73.5 C-6.32449219 72.52546875 -6.32449219 72.52546875 -5.5078125 71.53125 C-4.76144531 70.77328125 -4.76144531 70.77328125 -4 70 C-3.34 70 -2.68 70 -2 70 C-0.88121573 66.64364718 -0.84114412 64.04711646 -0.79467773 60.5090332 C-0.77982834 59.52814224 -0.77982834 59.52814224 -0.76467896 58.5274353 C-0.73312217 56.3685873 -0.70832968 54.20971729 -0.68359375 52.05078125 C-0.66301919 50.55290662 -0.64202258 49.05503772 -0.62062073 47.55717468 C-0.56545191 43.6166143 -0.51601979 39.67600197 -0.46777344 35.73535156 C-0.41752049 31.71349469 -0.36185423 27.69171316 -0.30664062 23.66992188 C-0.19912254 15.78001164 -0.09766352 7.89003834 0 0 Z " fill="#A5A6D8" transform="translate(252,127)"/>
<path d="M0 0 C0.33 0 0.66 0 1 0 C1 17.82 1 35.64 1 54 C4.3 54.66 7.6 55.32 11 56 C11 56.66 11 57.32 11 58 C7.37 58 3.74 58 0 58 C0 38.86 0 19.72 0 0 Z " fill="#282781" transform="translate(339,134)"/>
<path d="M0 0 C0.33 0 0.66 0 1 0 C1.86738365 3.43430411 2.71660951 6.87284451 3.5625 10.3125 C3.80935547 11.28896484 4.05621094 12.26542969 4.31054688 13.27148438 C4.53935547 14.20927734 4.76816406 15.14707031 5.00390625 16.11328125 C5.21861572 16.97735596 5.4333252 17.84143066 5.65454102 18.73168945 C6 21 6 21 5 24 C5 23.34 5 22.68 5 22 C4.34 21.67 3.68 21.34 3 21 C2.67 20.01 2.34 19.02 2 18 C2 18.7113208 2 19.4226416 2 20.15551758 C2 28.43701172 2 36.71850586 2 45 C1.34 44.67 0.68 44.34 0 44 C0 29.48 0 14.96 0 0 Z " fill="#28267D" transform="translate(437,163)"/>
<path d="M0 0 C1.61455078 0.00483398 1.61455078 0.00483398 3.26171875 0.00976562 C4.38964844 0.01814453 5.51757812 0.02652344 6.6796875 0.03515625 C7.81535156 0.03966797 8.95101562 0.04417969 10.12109375 0.04882812 C12.93234388 0.0606401 15.7434898 0.07711118 18.5546875 0.09765625 C19.0496875 1.08765625 19.0496875 1.08765625 19.5546875 2.09765625 C18.57242188 2.03481445 18.57242188 2.03481445 17.5703125 1.97070312 C14.56574445 1.80307539 11.5621597 1.69997608 8.5546875 1.59765625 C7.52472656 1.530625 6.49476563 1.46359375 5.43359375 1.39453125 C-0.58352253 1.24100617 -0.58352253 1.24100617 -5.875 3.80859375 C-7.88349313 5.81708688 -9.6716919 7.88169894 -11.4453125 10.09765625 C-12.43128588 11.11148883 -13.4292598 12.11397088 -14.4453125 13.09765625 C-15.1053125 13.75765625 -15.7653125 14.41765625 -16.4453125 15.09765625 C-16.7753125 14.10765625 -17.1053125 13.11765625 -17.4453125 12.09765625 C-15.13878771 8.76600933 -12.45715114 5.80831103 -9.4453125 3.09765625 C-8.7853125 3.09765625 -8.1253125 3.09765625 -7.4453125 3.09765625 C-7.4453125 2.43765625 -7.4453125 1.77765625 -7.4453125 1.09765625 C-4.83580014 -0.20709993 -2.91829965 -0.01535947 0 0 Z " fill="#B3AF6E" transform="translate(222.4453125,114.90234375)"/>
<path d="M0 0 C3.79379058 1.49041773 5.68343758 3.69062512 8 7 C8 7.66 8 8.32 8 9 C20.375 8.505 20.375 8.505 33 8 C32.67 8.99 32.34 9.98 32 11 C23.75 11 15.5 11 7 11 C6.67 10.01 6.34 9.02 6 8 C4.7625 7.319375 4.7625 7.319375 3.5 6.625 C1 5 1 5 0.1875 2.3125 C0.0946875 1.1678125 0.0946875 1.1678125 0 0 Z " fill="#807F9D" transform="translate(375,197)"/>
<path d="M0 0 C0.33 0 0.66 0 1 0 C1.19441368 2.2910905 1.38033135 4.58290337 1.5625 6.875 C1.71912109 8.78925781 1.71912109 8.78925781 1.87890625 10.7421875 C2 14 2 14 1 16 C-9.89 16 -20.78 16 -32 16 C-32 15.67 -32 15.34 -32 15 C-21.77 15 -11.54 15 -1 15 C-0.67 10.05 -0.34 5.1 0 0 Z " fill="#CFAFAE" transform="translate(164,141)"/>
<path d="M0 0 C0.66 0 1.32 0 2 0 C2.33 0.66 2.66 1.32 3 2 C23.295 2.495 23.295 2.495 44 3 C44 3.33 44 3.66 44 4 C23.21 4.495 23.21 4.495 2 5 C1.34 3.35 0.68 1.7 0 0 Z " fill="#171768" transform="translate(38,128)"/>
<path d="M0 0 C1.65322266 0.01740234 1.65322266 0.01740234 3.33984375 0.03515625 C4.99693359 0.04869141 4.99693359 0.04869141 6.6875 0.0625 C7.54214844 0.07410156 8.39679688 0.08570313 9.27734375 0.09765625 C9.27734375 0.42765625 9.27734375 0.75765625 9.27734375 1.09765625 C6.96734375 1.09765625 4.65734375 1.09765625 2.27734375 1.09765625 C2.48359375 2.19078125 2.68984375 3.28390625 2.90234375 4.41015625 C3.27734375 8.09765625 3.27734375 8.09765625 1.27734375 11.09765625 C-0.37265625 7.79765625 -2.02265625 4.49765625 -3.72265625 1.09765625 C-2.72265625 0.09765625 -2.72265625 0.09765625 0 0 Z " fill="#82383E" transform="translate(76.72265625,189.90234375)"/>
<path d="M0 0 C1.41778293 2.83556587 0.86257622 4.9908706 0.5625 8.125 C0.46066406 9.22070312 0.35882813 10.31640625 0.25390625 11.4453125 C0.17011719 12.28835937 0.08632813 13.13140625 0 14 C2.31 14 4.62 14 7 14 C7 14.66 7 15.32 7 16 C4.03 16 1.06 16 -2 16 C-2.05384521 13.70858714 -2.09272087 11.41681812 -2.125 9.125 C-2.14820313 7.84882813 -2.17140625 6.57265625 -2.1953125 5.2578125 C-2 2 -2 2 0 0 Z " fill="#9A5B61" transform="translate(503,189)"/>
<path d="M0 0 C0.99 0 1.98 0 3 0 C2.99476318 0.55985596 2.98952637 1.11971191 2.98413086 1.6965332 C2.96333309 4.23517737 2.95033096 6.77380359 2.9375 9.3125 C2.92912109 10.19357422 2.92074219 11.07464844 2.91210938 11.98242188 C2.90888672 12.82998047 2.90566406 13.67753906 2.90234375 14.55078125 C2.89710693 15.33106689 2.89187012 16.11135254 2.88647461 16.9152832 C2.91862137 19.1961555 2.91862137 19.1961555 4 22 C3.01 22 2.02 22 1 22 C0.67 14.74 0.34 7.48 0 0 Z " fill="#CFC876" transform="translate(367,126)"/>
<path d="M0 0 C0.33 0 0.66 0 1 0 C1 6.27 1 12.54 1 19 C0.34 19 -0.32 19 -1 19 C-2.40327063 13.23099851 -2.72018231 5.44036461 0 0 Z " fill="#D8D8E7" transform="translate(342,152)"/>
<path d="M0 0 C0.66 0.33 1.32 0.66 2 1 C1.27683594 1.68835938 1.27683594 1.68835938 0.5390625 2.390625 C-0.09257812 3.00421875 -0.72421875 3.6178125 -1.375 4.25 C-2.00148438 4.85328125 -2.62796875 5.4565625 -3.2734375 6.078125 C-4.97310161 7.9700588 -5.98459866 9.68201309 -7 12 C-8.10336858 8.68989426 -8.13531135 6.3186024 -7 3 C-4.73330587 1.48887058 -2.5968046 0.86560153 0 0 Z " fill="#C2BD66" transform="translate(311,216)"/>
<path d="M0 0 C2.63743301 2.63743301 2.86055002 4.81908961 3.6875 8.4375 C3.95949219 9.59121094 4.23148437 10.74492187 4.51171875 11.93359375 C5 15 5 15 4 18 C4 17.34 4 16.68 4 16 C3.34 15.67 2.68 15.34 2 15 C-0.72958539 10.29904739 -0.18359329 5.25280812 0 0 Z " fill="#676FB6" transform="translate(438,169)"/>
<path d="M0 0 C0.33333333 1.66666667 0.66666667 3.33333333 1 5 C1.20625 5.886875 1.4125 6.77375 1.625 7.6875 C2 10 2 10 1 12 C0.67 11.01 0.34 10.02 0 9 C-0.66 8.67 -1.32 8.34 -2 8 C-2.73075648 5.6859378 -3.40138258 3.35171131 -4 1 C-2 0 -2 0 0 0 Z " fill="#9A5D60" transform="translate(49,139)"/>
<path d="M0 0 C2.625 -0.1875 2.625 -0.1875 5 0 C5.33 0.99 5.66 1.98 6 3 C4.02 3.33 2.04 3.66 0 4 C-0.33 7.3 -0.66 10.6 -1 14 C-1.33 14 -1.66 14 -2 14 C-2.05410687 12.22950311 -2.09284119 10.45853151 -2.125 8.6875 C-2.14820313 7.70136719 -2.17140625 6.71523437 -2.1953125 5.69921875 C-2 3 -2 3 0 0 Z " fill="#BA9D9E" transform="translate(503,138)"/>
<path d="M0 0 C0.33 0.99 0.66 1.98 1 3 C-0.14453125 4.82421875 -0.14453125 4.82421875 -1.8125 6.6875 C-2.35519531 7.31011719 -2.89789063 7.93273437 -3.45703125 8.57421875 C-5 10 -5 10 -7 10 C-7 10.66 -7 11.32 -7 12 C-7.99 11.67 -8.98 11.34 -10 11 C-9.04882866 9.8274869 -8.08882991 8.66212985 -7.125 7.5 C-6.32449219 6.52546875 -6.32449219 6.52546875 -5.5078125 5.53125 C-5.01023438 5.0259375 -4.51265625 4.520625 -4 4 C-3.34 4 -2.68 4 -2 4 C-1.34 2.68 -0.68 1.36 0 0 Z " fill="#7D7D9E" transform="translate(252,193)"/>
<path d="M0 0 C3.63 0.66 7.26 1.32 11 2 C11 2.66 11 3.32 11 4 C7.37 4 3.74 4 0 4 C0 2.68 0 1.36 0 0 Z " fill="#514D71" transform="translate(339,188)"/>
<path d="M0 0 C1.4241906 2.84838121 1.16995508 5.32787908 1.1875 8.5 C1.20167969 9.6653125 1.21585937 10.830625 1.23046875 12.03125 C1 15 1 15 -1 17 C-2.4241906 14.15161879 -2.16995508 11.67212092 -2.1875 8.5 C-2.20876953 6.75203125 -2.20876953 6.75203125 -2.23046875 4.96875 C-2 2 -2 2 0 0 Z " fill="#9F6B72" transform="translate(503,164)"/>
<path d="M0 0 C7.92 0.33 15.84 0.66 24 1 C24 1.33 24 1.66 24 2 C20.56255588 2.16783262 17.12503622 2.33406544 13.6875 2.5 C12.71103516 2.54769531 11.73457031 2.59539062 10.72851562 2.64453125 C9.32182617 2.71220703 9.32182617 2.71220703 7.88671875 2.78125 C7.02264404 2.82314453 6.15856934 2.86503906 5.26831055 2.90820312 C3.51337696 2.97922401 1.75637008 3 0 3 C0 2.01 0 1.02 0 0 Z " fill="#646488" transform="translate(364,214)"/>
<path d="M0 0 C-0.57352893 3.87132028 -2.48704352 6.08172796 -5 9 C-6.2077558 5.37673261 -5.54311128 4.35853631 -4 1 C-4.99 0.67 -5.98 0.34 -7 0 C-3.98968256 -0.93423645 -3.13349732 -1.04449911 0 0 Z " fill="#884E52" transform="translate(607,165)"/>
<path d="M0 0 C1.65 0 3.3 0 5 0 C6.0326802 2.78823655 6.04509293 3.8677274 5.0625 6.75 C4.711875 7.4925 4.36125 8.235 4 9 C3.34 9 2.68 9 2 9 C2 6.36 2 3.72 2 1 C1.34 0.67 0.68 0.34 0 0 Z " fill="#A97D80" transform="translate(615,139)"/>
<path d="M0 0 C2.31 0 4.62 0 7 0 C7 4.62 7 9.24 7 14 C6.67 14 6.34 14 6 14 C6 10.37 6 6.74 6 3 C4.02 2.34 2.04 1.68 0 1 C0 0.67 0 0.34 0 0 Z " fill="#611414" transform="translate(157,140)"/>
<path d="M0 0 C0.66 0 1.32 0 2 0 C1.57202798 5.70629354 -0.84345952 9.41078616 -4 14 C-4.33 13.01 -4.66 12.02 -5 11 C-4.00390625 9.0625 -4.00390625 9.0625 -2.5625 7 C-0.32567041 3.84413449 -0.32567041 3.84413449 0 0 Z " fill="#808293" transform="translate(574,217)"/>
<path d="M0 0 C3.59905908 0.55550695 4.99909799 1.74887248 7.25 4.5625 C8.03117188 5.52349609 8.03117188 5.52349609 8.828125 6.50390625 C9.21484375 6.99761719 9.6015625 7.49132812 10 8 C9.67 8.66 9.34 9.32 9 10 C8.34 10 7.68 10 7 10 C5.96564444 8.35443434 4.97236487 6.6829392 4 5 C2.68962066 3.31522656 1.36176922 1.64351457 0 0 Z " fill="#797997" transform="translate(209,198)"/>
<path d="M0 0 C-0.33 0.99 -0.66 1.98 -1 3 C-6.94 2.67 -12.88 2.34 -19 2 C-19 1.67 -19 1.34 -19 1 C-16.20837429 0.83262201 -13.41670379 0.66606598 -10.625 0.5 C-9.8309375 0.45230469 -9.036875 0.40460938 -8.21875 0.35546875 C-2.2265625 0 -2.2265625 0 0 0 Z " fill="#7373AC" transform="translate(408,205)"/>
<path d="M0 0 C-0.99 1.98 -1.98 3.96 -3 6 C-5 4.625 -5 4.625 -7 3 C-7 2.34 -7 1.68 -7 1 C-3.375 -1.125 -3.375 -1.125 0 0 Z " fill="#A97273" transform="translate(594,189)"/>
<path d="M0 0 C2.64 0 5.28 0 8 0 C8 0.66 8 1.32 8 2 C7.01 2 6.02 2 5 2 C4.67 2.66 4.34 3.32 4 4 C3.01 4 2.02 4 1 4 C0.67 2.68 0.34 1.36 0 0 Z " fill="#814346" transform="translate(59,165)"/>
<path d="M0 0 C0.99 0.33 1.98 0.66 3 1 C1.68 3.64 0.36 6.28 -1 9 C-1.66 7.68 -2.32 6.36 -3 5 C-1.625 2.25 -1.625 2.25 0 0 Z " fill="#945457" transform="translate(614,148)"/>
<path d="M0 0 C2 1.5625 2 1.5625 4 4 C4.25 7.75 4.25 7.75 4 11 C3.67 10.01 3.34 9.02 3 8 C2.34 7.67 1.68 7.34 1 7 C0.59270772 4.67843403 0.25561323 2.3431213 0 0 Z " fill="#8D8FC0" transform="translate(366,220)"/>
<path d="M0 0 C0.99 0 1.98 0 3 0 C2.67 2.64 2.34 5.28 2 8 C1.34 8 0.68 8 0 8 C0 5.36 0 2.72 0 0 Z " fill="#8A8571" transform="translate(367,126)"/>
<path d="M0 0 C0.33 0.99 0.66 1.98 1 3 C-0.65 4.32 -2.3 5.64 -4 7 C-4.33 6.34 -4.66 5.68 -5 5 C-3.35 3.35 -1.7 1.7 0 0 Z " fill="#B2AFBF" transform="translate(334,256)"/>
<path d="M0 0 C0.33 0 0.66 0 1 0 C1.33 4.29 1.66 8.58 2 13 C1.01 13 0.02 13 -1 13 C-0.67 8.71 -0.34 4.42 0 0 Z " fill="#A17777" transform="translate(164,192)"/>
<path d="M0 0 C0.66 0 1.32 0 2 0 C2.33 0.66 2.66 1.32 3 2 C5.12576782 2.46651207 5.12576782 2.46651207 7.5625 2.625 C8.38878906 2.69976562 9.21507812 2.77453125 10.06640625 2.8515625 C10.70449219 2.90054688 11.34257813 2.94953125 12 3 C12 3.33 12 3.66 12 4 C8.7 4.33 5.4 4.66 2 5 C1.34 3.35 0.68 1.7 0 0 Z " fill="#464360" transform="translate(38,128)"/>
<path d="" fill="#C9C9C9" transform="translate(0,0)"/>
<path d="M0 0 C2 1 2 1 2 1 Z " fill="#FFFFFF" transform="translate(362,218)"/>
<path d="" fill="#FFFFFF" transform="translate(0,0)"/>
<path d="M0 0 C2 1 2 1 2 1 Z " fill="#FFFFFF" transform="translate(160,188)"/>
<path d="" fill="#FFFFFF" transform="translate(0,0)"/>
<path d="" fill="#FFFFFF" transform="translate(0,0)"/>
<path d="" fill="#FFFFFF" transform="translate(0,0)"/>
<path d="" fill="#FFFFFF" transform="translate(0,0)"/>
<path d="" fill="#FFFFFF" transform="translate(0,0)"/>
<path d="" fill="#FFFFFF" transform="translate(0,0)"/>
<path d="" fill="#FFFFFF" transform="translate(0,0)"/>
<path d="" fill="#FFFFFF" transform="translate(0,0)"/>
</svg>
